{"glyphs":{"0":{"ha":764,"x_min":92,"x_max":672,"o":"m 382 939 q 599 817 525 939 q 672 461 672 696 q 598 106 672 228 q 382 -15 524 -15 q 165 106 239 -15 q 92 463 92 228 q 165 818 92 697 q 382 939 239 939 m 382 872 q 175 463 175 872 q 382 51 175 51 q 535 151 483 51 q 588 461 588 251 q 535 772 588 671 q 382 872 483 872 z "},"1":{"ha":574,"x_min":60,"x_max":406,"o":"m 406 0 l 325 0 l 325 835 l 97 693 l 60 753 l 336 924 l 406 924 l 406 0 z "},"2":{"ha":665,"x_min":46,"x_max":592,"o":"m 313 939 q 498 871 429 939 q 567 696 567 803 q 529 526 567 606 q 412 353 492 447 q 154 71 332 258 l 592 71 l 581 0 l 60 0 l 60 68 q 333 369 250 271 q 449 538 415 467 q 483 692 483 610 q 435 822 483 774 q 308 871 388 871 q 195 844 244 871 q 101 765 146 818 l 46 807 q 166 907 101 875 q 313 939 231 939 z "},"3":{"ha":675,"x_min":28,"x_max":588,"o":"m 307 939 q 442 908 385 939 q 531 826 500 878 q 561 708 561 774 q 510 562 561 618 q 378 492 460 506 q 528 427 469 488 q 588 261 588 367 q 551 118 588 181 q 448 20 515 56 q 293 -15 381 -15 q 28 104 132 -15 l 79 150 q 177 76 126 99 q 290 53 228 53 q 447 110 390 53 q 504 260 504 167 q 296 454 504 454 l 235 454 l 246 519 l 290 519 q 425 567 369 519 q 481 704 481 615 q 432 826 481 781 q 303 871 383 871 q 196 851 244 871 q 97 785 147 831 l 54 835 q 171 913 110 888 q 307 939 232 939 z "},"4":{"ha":719,"x_min":63,"x_max":671,"o":"m 671 243 l 546 243 l 546 0 l 467 0 l 467 243 l 63 243 l 63 303 l 344 939 l 413 911 l 149 310 l 467 310 l 476 581 l 546 581 l 546 310 l 671 310 l 671 243 z "},"5":{"ha":676,"x_min":47,"x_max":606,"o":"m 563 857 l 188 857 l 188 542 q 346 585 264 585 q 535 508 465 585 q 606 297 606 431 q 569 135 606 207 q 465 24 532 64 q 308 -15 397 -15 q 47 96 154 -15 l 97 144 q 192 75 142 97 q 308 53 242 53 q 464 119 407 53 q 521 299 521 185 q 469 465 521 410 q 328 519 417 519 q 249 509 283 519 q 174 475 215 499 l 110 475 l 110 924 l 575 924 l 563 857 z "},"6":{"ha":728,"x_min":92,"x_max":657,"o":"m 411 601 q 588 527 518 601 q 657 311 657 453 q 622 138 657 213 q 524 24 586 64 q 385 -15 463 -15 q 162 102 232 -15 q 92 417 92 219 q 132 694 92 576 q 247 876 172 813 q 425 939 322 939 q 597 885 518 939 l 563 829 q 424 872 496 872 q 244 760 311 872 q 174 465 178 647 q 411 601 267 601 m 385 51 q 526 122 476 51 q 575 308 575 192 q 527 479 575 424 q 400 535 479 535 q 273 494 331 535 q 174 382 215 453 q 228 136 178 221 q 385 51 278 51 z "},"7":{"ha":607,"x_min":42,"x_max":557,"o":"m 557 861 l 193 -11 l 118 14 l 474 856 l 42 856 l 42 924 l 557 924 l 557 861 z "},"8":{"ha":747,"x_min":74,"x_max":674,"o":"m 468 489 q 624 388 575 446 q 674 240 674 331 q 635 106 674 164 q 528 17 597 49 q 371 -15 460 -15 q 215 17 282 -15 q 110 106 147 49 q 74 239 74 164 q 272 496 74 417 q 152 583 190 533 q 114 708 114 632 q 150 832 114 779 q 246 912 186 885 q 374 939 306 939 q 501 913 442 939 q 598 835 561 886 q 635 710 635 783 q 594 585 635 638 q 468 489 554 533 m 194 707 q 233 601 194 640 q 365 528 271 563 l 408 513 q 520 599 486 554 q 554 707 554 643 q 505 831 554 786 q 374 875 456 875 q 244 831 294 875 q 194 707 194 786 m 372 53 q 530 102 471 53 q 589 240 589 151 q 568 333 589 296 q 504 397 547 369 q 383 453 461 424 l 336 471 q 201 378 243 435 q 158 239 158 322 q 217 101 158 150 q 372 53 275 53 z "},"9":{"ha":719,"x_min":74,"x_max":635,"o":"m 354 939 q 565 841 494 939 q 635 567 635 743 q 583 274 635 388 q 433 92 532 160 q 171 -26 333 24 l 150 36 q 442 196 342 94 q 553 474 543 297 q 453 378 511 413 q 325 344 394 344 q 196 380 253 344 q 106 481 139 415 q 74 636 74 547 q 110 797 74 728 q 211 902 147 865 q 354 939 275 939 m 339 411 q 456 447 404 411 q 553 550 508 482 q 507 794 554 715 q 357 872 460 872 q 210 810 264 872 q 157 635 157 749 q 206 469 157 528 q 339 411 256 411 z "},"\r":{"ha":388,"x_min":0,"x_max":0,"o":""}," ":{"ha":388,"x_min":0,"x_max":0,"o":""},"A":{"ha":785,"x_min":22,"x_max":761,"o":"m 590 260 l 190 260 l 107 0 l 22 0 l 340 951 l 444 951 l 761 0 l 674 0 l 590 260 m 568 331 l 392 883 l 214 331 l 568 331 z "},"Á":{"ha":785,"x_min":22,"x_max":761,"o":"m 590 260 l 190 260 l 107 0 l 22 0 l 340 951 l 444 951 l 761 0 l 674 0 l 590 260 m 568 331 l 392 883 l 214 331 l 568 331 m 542 1161 l 267 1053 l 244 1100 l 506 1233 l 542 1161 z "},"Ă":{"ha":785,"x_min":22,"x_max":761,"o":"m 590 260 l 190 260 l 107 0 l 22 0 l 340 951 l 444 951 l 761 0 l 674 0 l 590 260 m 568 331 l 392 883 l 214 331 l 568 331 m 392 1063 q 271 1102 321 1063 q 211 1201 221 1142 l 267 1214 q 313 1151 281 1174 q 392 1128 344 1128 q 472 1151 439 1128 q 518 1214 504 1174 l 574 1201 q 513 1102 564 1142 q 392 1063 463 1063 z "},"Ắ":{"ha":785,"x_min":22,"x_max":761,"o":"m 590 260 l 190 260 l 107 0 l 22 0 l 340 951 l 444 951 l 761 0 l 674 0 l 590 260 m 568 331 l 392 883 l 214 331 l 568 331 m 392 1026 q 271 1066 321 1026 q 211 1165 221 1106 l 267 1178 q 313 1115 281 1138 q 392 1092 344 1092 q 472 1115 439 1092 q 518 1178 504 1138 l 574 1165 q 513 1066 564 1106 q 392 1026 463 1026 m 560 1361 l 392 1194 l 356 1228 l 506 1411 l 560 1361 z "},"Ặ":{"ha":785,"x_min":22,"x_max":761,"o":"m 590 260 l 190 260 l 107 0 l 22 0 l 340 951 l 444 951 l 761 0 l 674 0 l 590 260 m 568 331 l 392 883 l 214 331 l 568 331 m 392 1063 q 271 1102 321 1063 q 211 1201 221 1142 l 267 1214 q 313 1151 281 1174 q 392 1128 344 1128 q 472 1151 439 1128 q 518 1214 504 1174 l 574 1201 q 513 1102 564 1142 q 392 1063 463 1063 m 393 -236 q 349 -219 365 -236 q 332 -178 332 -203 q 349 -136 332 -153 q 393 -119 365 -119 q 436 -136 419 -119 q 453 -178 453 -153 q 436 -219 453 -203 q 393 -236 419 -236 z "},"Ằ":{"ha":785,"x_min":22,"x_max":761,"o":"m 590 260 l 190 260 l 107 0 l 22 0 l 340 951 l 444 951 l 761 0 l 674 0 l 590 260 m 568 331 l 392 883 l 214 331 l 568 331 m 392 1026 q 271 1066 321 1026 q 211 1165 221 1106 l 267 1178 q 313 1115 281 1138 q 392 1092 344 1092 q 472 1115 439 1092 q 518 1178 504 1138 l 574 1165 q 513 1066 564 1106 q 392 1026 463 1026 m 440 1228 l 404 1194 l 238 1361 l 290 1411 l 440 1228 z "},"Ẳ":{"ha":785,"x_min":22,"x_max":761,"o":"m 590 260 l 190 260 l 107 0 l 22 0 l 340 951 l 444 951 l 761 0 l 674 0 l 590 260 m 568 331 l 392 883 l 214 331 l 568 331 m 392 1026 q 271 1066 321 1026 q 211 1165 221 1106 l 267 1178 q 313 1115 281 1138 q 392 1092 344 1092 q 472 1115 439 1092 q 518 1178 504 1138 l 574 1165 q 513 1066 564 1106 q 392 1026 463 1026 m 357 1267 q 430 1284 406 1269 q 454 1332 454 1299 q 437 1373 454 1358 q 389 1388 419 1388 q 308 1369 349 1388 l 286 1418 q 399 1447 336 1447 q 493 1417 458 1447 q 528 1336 528 1386 q 424 1229 528 1244 l 424 1165 l 357 1165 l 357 1267 z "},"Ẵ":{"ha":785,"x_min":22,"x_max":761,"o":"m 590 260 l 190 260 l 107 0 l 22 0 l 340 951 l 444 951 l 761 0 l 674 0 l 590 260 m 568 331 l 392 883 l 214 331 l 568 331 m 393 1026 q 272 1066 322 1026 q 213 1165 222 1106 l 268 1178 q 314 1115 282 1138 q 393 1092 346 1092 q 473 1115 440 1092 q 519 1178 506 1138 l 575 1165 q 515 1066 565 1106 q 393 1026 464 1026 m 478 1236 q 432 1245 453 1236 q 381 1272 411 1254 q 344 1293 358 1286 q 315 1300 329 1300 q 274 1287 292 1300 q 238 1244 257 1274 l 188 1269 q 315 1364 239 1364 q 359 1356 339 1364 q 404 1331 379 1347 q 444 1308 429 1315 q 478 1301 460 1301 q 517 1315 500 1301 q 556 1361 535 1329 l 606 1336 q 478 1236 557 1236 z "},"Ǎ":{"ha":785,"x_min":22,"x_max":761,"o":"m 590 260 l 190 260 l 107 0 l 22 0 l 340 951 l 444 951 l 761 0 l 674 0 l 590 260 m 568 331 l 392 883 l 214 331 l 568 331 m 597 1190 l 418 1050 l 368 1050 l 188 1190 l 224 1233 l 393 1122 l 561 1233 l 597 1190 z "},"Â":{"ha":785,"x_min":22,"x_max":761,"o":"m 590 260 l 190 260 l 107 0 l 22 0 l 340 951 l 444 951 l 761 0 l 674 0 l 590 260 m 568 331 l 392 883 l 214 331 l 568 331 m 188 1100 l 368 1242 l 418 1242 l 597 1100 l 561 1058 l 393 1169 l 224 1058 l 188 1100 z "},"Ấ":{"ha":785,"x_min":22,"x_max":761,"o":"m 590 260 l 190 260 l 107 0 l 22 0 l 340 951 l 444 951 l 761 0 l 674 0 l 590 260 m 568 331 l 392 883 l 214 331 l 568 331 m 186 1051 l 367 1193 l 417 1193 l 596 1051 l 560 1010 l 392 1121 l 222 1010 l 186 1051 m 719 1324 l 551 1157 l 515 1190 l 665 1374 l 719 1324 z "},"Ậ":{"ha":785,"x_min":22,"x_max":761,"o":"m 590 260 l 190 260 l 107 0 l 22 0 l 340 951 l 444 951 l 761 0 l 674 0 l 590 260 m 568 331 l 392 883 l 214 331 l 568 331 m 188 1100 l 368 1242 l 418 1242 l 597 1100 l 561 1058 l 393 1169 l 224 1058 l 188 1100 m 393 -236 q 349 -219 365 -236 q 332 -178 332 -203 q 349 -136 332 -153 q 393 -119 365 -119 q 436 -136 419 -119 q 453 -178 453 -153 q 436 -219 453 -203 q 393 -236 419 -236 z "},"Ầ":{"ha":785,"x_min":22,"x_max":761,"o":"m 590 260 l 190 260 l 107 0 l 22 0 l 340 951 l 444 951 l 761 0 l 674 0 l 590 260 m 568 331 l 392 883 l 214 331 l 568 331 m 186 1051 l 367 1193 l 417 1193 l 596 1051 l 560 1010 l 392 1121 l 222 1010 l 186 1051 m 274 1190 l 238 1157 l 71 1324 l 124 1374 l 274 1190 z "},"Ẩ":{"ha":785,"x_min":22,"x_max":761,"o":"m 590 260 l 190 260 l 107 0 l 22 0 l 340 951 l 444 951 l 761 0 l 674 0 l 590 260 m 568 331 l 392 883 l 214 331 l 568 331 m 186 1051 l 367 1193 l 417 1193 l 596 1051 l 560 1010 l 392 1121 l 222 1010 l 186 1051 m 535 1229 q 608 1247 583 1232 q 632 1294 632 1261 q 615 1335 632 1321 q 567 1350 597 1350 q 486 1332 526 1350 l 464 1381 q 576 1410 514 1410 q 671 1379 636 1410 q 706 1299 706 1349 q 601 1192 706 1207 l 601 1128 l 535 1128 l 535 1229 z "},"Ẫ":{"ha":785,"x_min":22,"x_max":761,"o":"m 590 260 l 190 260 l 107 0 l 22 0 l 340 951 l 444 951 l 761 0 l 674 0 l 590 260 m 568 331 l 392 883 l 214 331 l 568 331 m 186 1051 l 367 1193 l 417 1193 l 596 1051 l 560 1010 l 392 1121 l 222 1010 l 186 1051 m 474 1244 q 428 1253 449 1244 q 376 1281 407 1263 q 340 1301 354 1294 q 311 1308 325 1308 q 270 1295 288 1308 q 233 1253 253 1282 l 183 1278 q 311 1372 235 1372 q 355 1364 335 1372 q 400 1339 375 1356 q 440 1317 425 1324 q 474 1310 456 1310 q 513 1324 496 1310 q 551 1369 531 1338 l 601 1344 q 474 1244 553 1244 z "},"Ȁ":{"ha":785,"x_min":22,"x_max":761,"o":"m 590 260 l 190 260 l 107 0 l 22 0 l 340 951 l 444 951 l 761 0 l 674 0 l 590 260 m 568 331 l 392 883 l 214 331 l 568 331 m 339 1092 l 286 1067 l 157 1264 l 229 1301 l 339 1092 m 507 1097 l 454 1074 l 338 1263 l 410 1301 l 507 1097 z "},"Ä":{"ha":785,"x_min":22,"x_max":761,"o":"m 590 260 l 190 260 l 107 0 l 22 0 l 340 951 l 444 951 l 761 0 l 674 0 l 590 260 m 568 331 l 392 883 l 214 331 l 568 331 m 261 1206 q 301 1190 285 1206 q 317 1150 317 1174 q 301 1111 317 1126 q 261 1096 285 1096 q 222 1111 238 1096 q 206 1150 206 1126 q 222 1190 206 1174 q 261 1206 238 1206 m 524 1206 q 563 1190 547 1206 q 579 1150 579 1174 q 563 1111 579 1126 q 524 1096 547 1096 q 484 1111 500 1096 q 468 1150 468 1126 q 484 1190 468 1174 q 524 1206 500 1206 z "},"Ǟ":{"ha":785,"x_min":22,"x_max":761,"o":"m 590 260 l 190 260 l 107 0 l 22 0 l 340 951 l 444 951 l 761 0 l 674 0 l 590 260 m 568 331 l 392 883 l 214 331 l 568 331 m 261 1143 q 301 1127 285 1143 q 317 1088 317 1111 q 301 1049 317 1064 q 261 1033 285 1033 q 222 1049 238 1033 q 206 1088 206 1064 q 222 1127 206 1111 q 261 1143 238 1143 m 524 1143 q 563 1127 547 1143 q 579 1088 579 1111 q 563 1049 579 1064 q 524 1033 547 1033 q 484 1049 500 1033 q 468 1088 468 1064 q 484 1127 468 1111 q 524 1143 500 1143 m 228 1219 l 228 1285 l 563 1285 l 563 1219 l 228 1219 z "},"Ȧ":{"ha":785,"x_min":22,"x_max":761,"o":"m 590 260 l 190 260 l 107 0 l 22 0 l 340 951 l 444 951 l 761 0 l 674 0 l 590 260 m 568 331 l 392 883 l 214 331 l 568 331 m 392 1221 q 436 1204 419 1221 q 453 1163 453 1188 q 436 1121 453 1138 q 392 1104 419 1104 q 349 1121 365 1104 q 332 1163 332 1138 q 349 1204 332 1188 q 392 1221 365 1221 z "},"Ạ":{"ha":785,"x_min":22,"x_max":761,"o":"m 590 260 l 190 260 l 107 0 l 22 0 l 340 951 l 444 951 l 761 0 l 674 0 l 590 260 m 568 331 l 392 883 l 214 331 l 568 331 m 393 -236 q 349 -219 365 -236 q 332 -178 332 -203 q 349 -136 332 -153 q 393 -119 365 -119 q 436 -136 419 -119 q 453 -178 453 -153 q 436 -219 453 -203 q 393 -236 419 -236 z "},"Ǡ":{"ha":785,"x_min":22,"x_max":761,"o":"m 590 260 l 190 260 l 107 0 l 22 0 l 340 951 l 444 951 l 761 0 l 674 0 l 590 260 m 568 331 l 392 883 l 214 331 l 568 331 m 394 1147 q 439 1131 422 1147 q 456 1089 456 1114 q 439 1047 456 1064 q 394 1031 422 1031 q 351 1047 368 1031 q 335 1089 335 1064 q 351 1131 335 1114 q 394 1147 368 1147 m 229 1219 l 229 1285 l 564 1285 l 564 1219 l 229 1219 z "},"À":{"ha":785,"x_min":22,"x_max":761,"o":"m 590 260 l 190 260 l 107 0 l 22 0 l 340 951 l 444 951 l 761 0 l 674 0 l 590 260 m 568 331 l 392 883 l 214 331 l 568 331 m 535 1100 l 513 1053 l 238 1161 l 274 1233 l 535 1100 z "},"Ả":{"ha":785,"x_min":22,"x_max":761,"o":"m 590 260 l 190 260 l 107 0 l 22 0 l 340 951 l 444 951 l 761 0 l 674 0 l 590 260 m 568 331 l 392 883 l 214 331 l 568 331 m 360 1176 q 433 1194 408 1179 q 457 1242 457 1208 q 440 1283 457 1268 q 392 1297 422 1297 q 311 1279 351 1297 l 289 1328 q 401 1357 339 1357 q 496 1326 461 1357 q 531 1246 531 1296 q 426 1139 531 1154 l 426 1075 l 360 1075 l 360 1176 z "},"Ȃ":{"ha":785,"x_min":22,"x_max":761,"o":"m 590 260 l 190 260 l 107 0 l 22 0 l 340 951 l 444 951 l 761 0 l 674 0 l 590 260 m 568 331 l 392 883 l 214 331 l 568 331 m 392 1256 q 514 1214 464 1256 q 574 1103 564 1172 l 518 1090 q 392 1190 490 1190 q 267 1090 294 1190 l 211 1103 q 270 1214 221 1172 q 392 1256 319 1256 z "},"Ɑ":{"ha":939,"x_min":92,"x_max":844,"o":"m 779 169 q 794 92 779 115 q 844 54 808 69 l 818 -11 q 737 31 764 4 q 700 103 710 57 q 457 -15 607 -15 q 270 38 353 -15 q 140 199 188 92 q 92 457 92 306 q 140 733 92 618 q 272 907 188 847 q 465 967 357 967 q 699 863 606 967 l 706 951 l 779 951 l 779 169 m 463 56 q 592 88 536 56 q 696 178 649 119 l 696 788 q 598 868 654 840 q 472 896 542 896 q 259 785 339 896 q 179 457 179 675 q 217 232 179 322 q 318 99 254 142 q 463 56 382 56 z "},"Ā":{"ha":785,"x_min":22,"x_max":761,"o":"m 590 260 l 190 260 l 107 0 l 22 0 l 340 951 l 444 951 l 761 0 l 674 0 l 590 260 m 568 331 l 392 883 l 214 331 l 568 331 m 225 1114 l 225 1179 l 560 1179 l 560 1114 l 225 1114 z "},"Ą":{"ha":785,"x_min":22,"x_max":761,"o":"m 736 0 q 605 -78 643 -42 q 567 -164 567 -115 q 588 -217 567 -197 q 654 -236 610 -236 q 735 -226 692 -236 l 726 -293 q 646 -303 678 -303 q 532 -267 572 -303 q 492 -175 492 -232 q 535 -69 492 -115 q 669 15 579 -24 l 590 260 l 190 260 l 107 0 l 22 0 l 340 951 l 444 951 l 761 0 l 736 0 m 568 331 l 392 883 l 214 331 l 568 331 z "},"Å":{"ha":785,"x_min":22,"x_max":761,"o":"m 590 260 l 190 260 l 107 0 l 22 0 l 340 951 l 444 951 l 761 0 l 674 0 l 590 260 m 568 331 l 392 883 l 214 331 l 568 331 m 393 1315 q 491 1278 453 1315 q 529 1185 529 1242 q 491 1091 529 1128 q 393 1054 453 1054 q 294 1091 332 1054 q 256 1185 256 1128 q 294 1278 256 1242 q 393 1315 332 1315 m 393 1265 q 335 1244 356 1265 q 315 1185 315 1222 q 335 1125 315 1146 q 393 1104 356 1104 q 449 1125 429 1104 q 469 1185 469 1146 q 449 1244 469 1222 q 393 1265 429 1265 z "},"Ǻ":{"ha":785,"x_min":22,"x_max":761,"o":"m 590 260 l 190 260 l 107 0 l 22 0 l 340 951 l 444 951 l 761 0 l 674 0 l 590 260 m 568 331 l 392 883 l 214 331 l 568 331 m 393 1272 q 491 1235 453 1272 q 529 1142 529 1199 q 491 1048 529 1085 q 393 1011 453 1011 q 294 1048 332 1011 q 256 1142 256 1085 q 294 1235 256 1199 q 393 1272 332 1272 m 393 1222 q 335 1201 356 1222 q 315 1142 315 1179 q 335 1082 315 1103 q 393 1061 356 1061 q 449 1082 429 1061 q 469 1142 469 1103 q 449 1201 469 1179 q 393 1222 429 1222 m 543 1396 l 268 1288 l 246 1335 l 507 1468 l 543 1396 z "},"Ⱥ":{"ha":785,"x_min":22,"x_max":761,"o":"m 592 260 l 378 260 l 283 -97 l 238 -86 l 328 260 l 188 260 l 104 0 l 22 0 l 340 951 l 444 951 l 481 842 l 532 1035 l 578 1022 l 508 758 l 761 0 l 675 0 l 592 260 m 347 329 l 447 714 l 392 889 l 211 329 l 347 329 m 569 329 l 475 629 l 396 329 l 569 329 z "},"Ã":{"ha":785,"x_min":22,"x_max":761,"o":"m 590 260 l 190 260 l 107 0 l 22 0 l 340 951 l 444 951 l 761 0 l 674 0 l 590 260 m 568 331 l 392 883 l 214 331 l 568 331 m 474 1100 q 428 1109 449 1100 q 376 1136 407 1118 q 340 1157 354 1150 q 311 1164 325 1164 q 270 1151 288 1164 q 233 1108 253 1138 l 183 1133 q 311 1228 235 1228 q 355 1219 335 1228 q 400 1194 375 1211 q 440 1172 425 1179 q 474 1165 456 1165 q 513 1179 496 1165 q 551 1225 531 1193 l 601 1200 q 474 1100 553 1100 z "},"Æ":{"ha":1089,"x_min":0,"x_max":1024,"o":"m 1024 69 l 1024 0 l 640 0 l 576 256 l 181 256 l 83 0 l 0 0 l 371 951 l 958 951 l 949 882 l 497 882 l 589 526 l 947 526 l 947 458 l 607 458 l 707 69 l 1024 69 m 558 326 l 419 885 l 207 326 l 558 326 z "},"Ǽ":{"ha":1089,"x_min":0,"x_max":1024,"o":"m 1024 69 l 1024 0 l 640 0 l 576 256 l 181 256 l 83 0 l 0 0 l 371 951 l 958 951 l 949 882 l 497 882 l 589 526 l 947 526 l 947 458 l 607 458 l 707 69 l 1024 69 m 558 326 l 419 885 l 207 326 l 558 326 m 782 1161 l 507 1053 l 485 1100 l 746 1233 l 782 1161 z "},"Ǣ":{"ha":1089,"x_min":0,"x_max":1024,"o":"m 1024 69 l 1024 0 l 640 0 l 576 256 l 181 256 l 83 0 l 0 0 l 371 951 l 958 951 l 949 882 l 497 882 l 589 526 l 947 526 l 947 458 l 607 458 l 707 69 l 1024 69 m 558 326 l 419 885 l 207 326 l 558 326 m 465 1114 l 465 1179 l 800 1179 l 800 1114 l 465 1114 z "},"B":{"ha":831,"x_min":154,"x_max":756,"o":"m 536 504 q 694 435 633 493 q 756 264 756 378 q 665 65 756 131 q 414 0 575 0 l 154 0 l 154 951 l 367 951 q 622 892 532 951 q 711 714 711 832 q 663 572 711 626 q 536 504 615 518 m 238 882 l 238 533 l 429 533 q 572 580 518 533 q 626 708 626 626 q 563 842 626 801 q 375 882 500 882 l 238 882 m 414 69 q 669 264 669 69 q 606 417 669 367 q 439 467 543 467 l 238 467 l 238 69 l 414 69 z "},"Ḃ":{"ha":831,"x_min":154,"x_max":756,"o":"m 536 504 q 694 435 633 493 q 756 264 756 378 q 665 65 756 131 q 414 0 575 0 l 154 0 l 154 951 l 367 951 q 622 892 532 951 q 711 714 711 832 q 663 572 711 626 q 536 504 615 518 m 238 882 l 238 533 l 429 533 q 572 580 518 533 q 626 708 626 626 q 563 842 626 801 q 375 882 500 882 l 238 882 m 414 69 q 669 264 669 69 q 606 417 669 367 q 439 467 543 467 l 238 467 l 238 69 l 414 69 m 410 1221 q 454 1204 438 1221 q 471 1163 471 1188 q 454 1121 471 1138 q 410 1104 438 1104 q 367 1121 383 1104 q 350 1163 350 1138 q 367 1204 350 1188 q 410 1221 383 1221 z "},"Ḅ":{"ha":831,"x_min":154,"x_max":756,"o":"m 536 504 q 694 435 633 493 q 756 264 756 378 q 665 65 756 131 q 414 0 575 0 l 154 0 l 154 951 l 367 951 q 622 892 532 951 q 711 714 711 832 q 663 572 711 626 q 536 504 615 518 m 238 882 l 238 533 l 429 533 q 572 580 518 533 q 626 708 626 626 q 563 842 626 801 q 375 882 500 882 l 238 882 m 414 69 q 669 264 669 69 q 606 417 669 367 q 439 467 543 467 l 238 467 l 238 69 l 414 69 m 431 -236 q 386 -219 403 -236 q 369 -178 369 -203 q 386 -136 369 -153 q 431 -119 403 -119 q 474 -136 457 -119 q 490 -178 490 -153 q 474 -219 490 -203 q 431 -236 457 -236 z "},"Ꞵ":{"ha":831,"x_min":154,"x_max":756,"o":"m 536 504 q 694 438 633 493 q 756 274 756 383 q 670 70 756 140 q 440 0 585 0 q 238 33 336 0 l 238 -274 l 154 -274 l 154 951 l 367 951 q 622 892 532 951 q 711 714 711 832 q 663 572 711 626 q 536 504 615 518 m 440 69 q 607 120 544 69 q 669 274 669 171 q 606 419 669 372 q 439 467 543 467 l 343 467 l 353 533 l 429 533 q 572 580 518 533 q 626 708 626 626 q 563 842 626 801 q 375 882 500 882 l 238 882 l 238 100 q 440 69 333 69 z "},"Ɓ":{"ha":914,"x_min":21,"x_max":839,"o":"m 619 504 q 778 435 717 493 q 839 264 839 378 q 749 65 839 131 q 497 0 658 0 l 238 0 l 238 883 l 197 883 q 123 860 147 883 q 99 796 99 836 q 106 746 99 768 q 129 692 114 724 l 71 661 q 33 728 46 699 q 21 797 21 757 q 68 909 21 867 q 203 951 115 951 l 450 951 q 705 892 615 951 q 794 714 794 832 q 747 572 794 626 q 619 504 699 518 m 321 882 l 321 533 l 513 533 q 656 580 601 533 q 710 708 710 626 q 647 842 710 801 q 458 882 583 882 l 321 882 m 497 69 q 753 264 753 69 q 690 417 753 367 q 522 467 626 467 l 321 467 l 321 69 l 497 69 z "},"Ƀ":{"ha":835,"x_min":32,"x_max":760,"o":"m 540 504 q 699 435 638 493 q 760 264 760 378 q 669 65 760 131 q 418 0 579 0 l 158 0 l 158 243 l 32 243 l 32 308 l 158 308 l 158 951 l 371 951 q 626 892 536 951 q 715 714 715 832 q 667 572 715 626 q 540 504 619 518 m 242 882 l 242 533 l 433 533 q 576 580 522 533 q 631 708 631 626 q 567 842 631 801 q 379 882 504 882 l 242 882 m 418 69 q 674 264 674 69 q 610 417 674 367 q 443 467 547 467 l 242 467 l 242 308 l 485 308 l 485 243 l 242 243 l 242 69 l 418 69 z "},"Ƃ":{"ha":790,"x_min":154,"x_max":729,"o":"m 390 581 q 640 510 551 581 q 729 299 729 439 q 638 74 729 147 q 388 0 546 0 l 154 0 l 154 951 l 635 951 l 624 881 l 238 881 l 238 581 l 390 581 m 399 69 q 578 123 514 69 q 642 299 642 176 q 393 513 642 513 l 238 513 l 238 69 l 399 69 z "},"C":{"ha":764,"x_min":92,"x_max":732,"o":"m 476 967 q 610 945 556 967 q 721 879 665 924 l 676 824 q 583 879 628 863 q 482 896 539 896 q 263 793 347 896 q 179 476 179 690 q 218 243 179 338 q 324 103 257 149 q 478 58 392 58 q 593 78 546 58 q 689 138 640 99 l 732 83 q 475 -15 628 -15 q 277 42 364 -15 q 141 209 190 99 q 92 476 92 319 q 143 744 92 633 q 281 910 194 854 q 476 967 368 967 z "},"Ć":{"ha":764,"x_min":92,"x_max":732,"o":"m 476 967 q 610 945 556 967 q 721 879 665 924 l 676 824 q 583 879 628 863 q 482 896 539 896 q 263 793 347 896 q 179 476 179 690 q 218 243 179 338 q 324 103 257 149 q 478 58 392 58 q 593 78 546 58 q 689 138 640 99 l 732 83 q 475 -15 628 -15 q 277 42 364 -15 q 141 209 190 99 q 92 476 92 319 q 143 744 92 633 q 281 910 194 854 q 476 967 368 967 m 626 1161 l 351 1053 l 329 1100 l 590 1233 l 626 1161 z "},"Č":{"ha":764,"x_min":92,"x_max":732,"o":"m 476 967 q 610 945 556 967 q 721 879 665 924 l 676 824 q 583 879 628 863 q 482 896 539 896 q 263 793 347 896 q 179 476 179 690 q 218 243 179 338 q 324 103 257 149 q 478 58 392 58 q 593 78 546 58 q 689 138 640 99 l 732 83 q 475 -15 628 -15 q 277 42 364 -15 q 141 209 190 99 q 92 476 92 319 q 143 744 92 633 q 281 910 194 854 q 476 967 368 967 m 682 1190 l 503 1050 l 453 1050 l 272 1190 l 308 1233 l 478 1122 l 646 1233 l 682 1190 z "},"Ç":{"ha":764,"x_min":92,"x_max":732,"o":"m 497 -89 q 594 -122 563 -94 q 625 -194 625 -150 q 583 -283 625 -251 q 479 -315 542 -315 q 368 -286 413 -315 l 393 -236 q 478 -257 431 -257 q 533 -242 511 -257 q 554 -194 554 -226 q 524 -149 554 -164 q 431 -133 494 -133 l 442 -14 q 260 53 339 -6 q 136 220 181 113 q 92 476 92 328 q 143 744 92 633 q 281 910 194 854 q 476 967 368 967 q 610 945 556 967 q 721 879 665 924 l 676 824 q 583 879 628 863 q 482 896 539 896 q 263 793 347 896 q 179 476 179 690 q 218 243 179 338 q 324 103 257 149 q 478 58 392 58 q 593 78 546 58 q 689 138 640 99 l 732 83 q 497 -15 639 -8 l 497 -89 z "},"Ĉ":{"ha":764,"x_min":92,"x_max":732,"o":"m 476 967 q 610 945 556 967 q 721 879 665 924 l 676 824 q 583 879 628 863 q 482 896 539 896 q 263 793 347 896 q 179 476 179 690 q 218 243 179 338 q 324 103 257 149 q 478 58 392 58 q 593 78 546 58 q 689 138 640 99 l 732 83 q 475 -15 628 -15 q 277 42 364 -15 q 141 209 190 99 q 92 476 92 319 q 143 744 92 633 q 281 910 194 854 q 476 967 368 967 m 272 1100 l 453 1242 l 503 1242 l 682 1100 l 646 1058 l 478 1169 l 308 1058 l 272 1100 z "},"Ċ":{"ha":764,"x_min":92,"x_max":732,"o":"m 476 967 q 610 945 556 967 q 721 879 665 924 l 676 824 q 583 879 628 863 q 482 896 539 896 q 263 793 347 896 q 179 476 179 690 q 218 243 179 338 q 324 103 257 149 q 478 58 392 58 q 593 78 546 58 q 689 138 640 99 l 732 83 q 475 -15 628 -15 q 277 42 364 -15 q 141 209 190 99 q 92 476 92 319 q 143 744 92 633 q 281 910 194 854 q 476 967 368 967 m 476 1221 q 521 1204 504 1221 q 538 1163 538 1188 q 521 1121 538 1138 q 476 1104 504 1104 q 433 1121 450 1104 q 417 1163 417 1138 q 433 1204 417 1188 q 476 1221 450 1221 z "},"Ꭓ":{"ha":704,"x_min":14,"x_max":690,"o":"m 690 -160 l 596 -160 l 349 383 l 104 -160 l 14 -160 l 300 436 l 43 951 l 138 951 l 350 490 l 561 951 l 651 951 l 397 440 l 690 -160 z "},"Ƈ":{"ha":764,"x_min":92,"x_max":956,"o":"m 814 1144 q 956 1097 894 1144 l 922 1046 q 873 1069 897 1061 q 817 1078 849 1078 q 721 963 721 1078 l 721 879 l 682 832 q 584 881 631 865 q 482 896 538 896 q 263 793 347 896 q 179 476 179 690 q 218 243 179 338 q 324 103 257 149 q 478 58 392 58 q 591 78 544 58 q 688 139 638 99 l 732 83 q 475 -15 631 -15 q 277 42 364 -15 q 141 209 190 99 q 92 476 92 319 q 143 744 92 633 q 281 910 194 854 q 476 967 368 967 q 640 926 571 967 l 640 958 q 686 1097 640 1049 q 814 1144 732 1144 z "},"Ȼ":{"ha":764,"x_min":92,"x_max":732,"o":"m 732 83 q 475 -15 628 -15 q 354 4 413 -15 l 328 -97 l 282 -86 l 311 22 q 150 190 208 74 q 92 476 92 306 q 143 744 92 633 q 281 910 194 854 q 476 967 368 967 q 558 960 517 967 l 578 1035 l 622 1022 l 603 949 q 721 879 660 929 l 676 824 q 585 878 626 863 l 374 78 q 478 58 424 58 q 593 78 546 58 q 689 138 640 99 l 732 83 m 179 476 q 219 240 179 335 q 331 100 260 146 l 540 890 q 482 896 517 896 q 263 793 347 896 q 179 476 179 690 z "},"D":{"ha":878,"x_min":154,"x_max":786,"o":"m 343 951 q 663 851 540 951 q 786 483 786 751 q 662 108 786 215 q 358 0 538 0 l 154 0 l 154 951 l 343 951 m 238 882 l 238 69 l 364 69 q 699 483 699 69 q 650 735 699 647 q 527 852 601 822 q 354 882 453 882 l 238 882 z "},"Ǳ":{"ha":1581,"x_min":154,"x_max":1514,"o":"m 343 951 q 663 851 540 951 q 786 483 786 751 q 662 108 786 215 q 358 0 538 0 l 154 0 l 154 951 l 343 951 m 238 882 l 238 69 l 364 69 q 699 483 699 69 q 650 735 699 647 q 527 852 601 822 q 354 882 453 882 l 238 882 m 1514 883 l 1008 74 l 1506 74 l 1494 0 l 913 0 l 913 69 l 1422 879 l 965 879 l 965 951 l 1514 951 l 1514 883 z "},"Ǆ":{"ha":1581,"x_min":154,"x_max":1514,"o":"m 343 951 q 663 851 540 951 q 786 483 786 751 q 662 108 786 215 q 358 0 538 0 l 154 0 l 154 951 l 343 951 m 238 882 l 238 69 l 364 69 q 699 483 699 69 q 650 735 699 647 q 527 852 601 822 q 354 882 453 882 l 238 882 m 1514 883 l 1008 74 l 1506 74 l 1494 0 l 913 0 l 913 69 l 1422 879 l 965 879 l 965 951 l 1514 951 l 1514 883 m 1433 1190 l 1254 1050 l 1204 1050 l 1024 1190 l 1060 1233 l 1229 1122 l 1397 1233 l 1433 1190 z "},"Ɖ":{"ha":885,"x_min":32,"x_max":793,"o":"m 350 951 q 670 851 547 951 q 793 483 793 751 q 669 108 793 215 q 365 0 544 0 l 161 0 l 161 456 l 32 456 l 32 522 l 161 522 l 161 951 l 350 951 m 371 69 q 706 483 706 69 q 657 735 706 647 q 534 852 608 822 q 361 882 460 882 l 244 882 l 244 522 l 488 522 l 488 456 l 244 456 l 244 69 l 371 69 z "},"Ð":{"ha":885,"x_min":32,"x_max":793,"o":"m 350 951 q 670 851 547 951 q 793 483 793 751 q 669 108 793 215 q 365 0 544 0 l 161 0 l 161 456 l 32 456 l 32 522 l 161 522 l 161 951 l 350 951 m 371 69 q 706 483 706 69 q 657 735 706 647 q 534 852 608 822 q 361 882 460 882 l 244 882 l 244 522 l 488 522 l 488 456 l 244 456 l 244 69 l 371 69 z "},"Ď":{"ha":878,"x_min":154,"x_max":786,"o":"m 343 951 q 663 851 540 951 q 786 483 786 751 q 662 108 786 215 q 358 0 538 0 l 154 0 l 154 951 l 343 951 m 238 882 l 238 69 l 364 69 q 699 483 699 69 q 650 735 699 647 q 527 852 601 822 q 354 882 453 882 l 238 882 m 621 1190 l 442 1050 l 392 1050 l 211 1190 l 247 1233 l 417 1122 l 585 1233 l 621 1190 z "},"Ḓ":{"ha":878,"x_min":154,"x_max":786,"o":"m 343 951 q 663 851 540 951 q 786 483 786 751 q 662 108 786 215 q 358 0 538 0 l 154 0 l 154 951 l 343 951 m 238 882 l 238 69 l 364 69 q 699 483 699 69 q 650 735 699 647 q 527 852 601 822 q 354 882 453 882 l 238 882 m 211 -244 l 390 -97 l 440 -97 l 621 -244 l 585 -286 l 415 -168 l 247 -286 l 211 -244 z "},"Đ":{"ha":885,"x_min":32,"x_max":793,"o":"m 350 951 q 670 851 547 951 q 793 483 793 751 q 669 108 793 215 q 365 0 544 0 l 161 0 l 161 456 l 32 456 l 32 522 l 161 522 l 161 951 l 350 951 m 371 69 q 706 483 706 69 q 657 735 706 647 q 534 852 608 822 q 361 882 460 882 l 244 882 l 244 522 l 488 522 l 488 456 l 244 456 l 244 69 l 371 69 z "},"Ḋ":{"ha":878,"x_min":154,"x_max":786,"o":"m 343 951 q 663 851 540 951 q 786 483 786 751 q 662 108 786 215 q 358 0 538 0 l 154 0 l 154 951 l 343 951 m 238 882 l 238 69 l 364 69 q 699 483 699 69 q 650 735 699 647 q 527 852 601 822 q 354 882 453 882 l 238 882 m 415 1221 q 460 1204 443 1221 q 476 1163 476 1188 q 460 1121 476 1138 q 415 1104 443 1104 q 372 1121 389 1104 q 356 1163 356 1138 q 372 1204 356 1188 q 415 1221 389 1221 z "},"Ḍ":{"ha":878,"x_min":154,"x_max":786,"o":"m 343 951 q 663 851 540 951 q 786 483 786 751 q 662 108 786 215 q 358 0 538 0 l 154 0 l 154 951 l 343 951 m 238 882 l 238 69 l 364 69 q 699 483 699 69 q 650 735 699 647 q 527 852 601 822 q 354 882 453 882 l 238 882 m 417 -236 q 372 -219 389 -236 q 356 -178 356 -203 q 372 -136 356 -153 q 417 -119 389 -119 q 460 -136 443 -119 q 476 -178 476 -153 q 460 -219 476 -203 q 417 -236 443 -236 z "},"Ɗ":{"ha":961,"x_min":21,"x_max":869,"o":"m 426 951 q 747 851 624 951 q 869 483 869 751 q 745 108 869 215 q 442 0 621 0 l 238 0 l 238 883 l 197 883 q 123 860 147 883 q 99 796 99 836 q 106 746 99 768 q 129 692 114 724 l 71 661 q 33 728 46 699 q 21 797 21 757 q 68 909 21 867 q 203 951 115 951 l 426 951 m 447 69 q 782 483 782 69 q 733 735 782 647 q 610 852 685 822 q 438 882 536 882 l 321 882 l 321 69 l 447 69 z "},"Ḏ":{"ha":878,"x_min":154,"x_max":786,"o":"m 343 951 q 663 851 540 951 q 786 483 786 751 q 662 108 786 215 q 358 0 538 0 l 154 0 l 154 951 l 343 951 m 238 882 l 238 69 l 364 69 q 699 483 699 69 q 650 735 699 647 q 527 852 601 822 q 354 882 453 882 l 238 882 m 249 -221 l 249 -156 l 583 -156 l 583 -221 l 249 -221 z "},"Ƌ":{"ha":790,"x_min":61,"x_max":636,"o":"m 636 0 l 390 0 q 151 70 240 0 q 61 286 61 140 q 152 504 61 428 q 404 581 243 581 l 554 581 l 554 881 l 161 881 l 161 951 l 636 951 l 636 0 m 554 69 l 554 513 l 403 513 q 214 456 279 513 q 149 286 149 400 q 213 119 149 169 q 393 69 276 69 l 554 69 z "},"ǲ":{"ha":1464,"x_min":154,"x_max":1417,"o":"m 343 951 q 663 851 540 951 q 786 483 786 751 q 662 108 786 215 q 358 0 538 0 l 154 0 l 154 951 l 343 951 m 238 882 l 238 69 l 364 69 q 699 483 699 69 q 650 735 699 647 q 527 852 601 822 q 354 882 453 882 l 238 882 m 1417 664 l 1011 69 l 1414 69 l 1406 0 l 917 0 l 917 63 l 1322 657 l 950 657 l 950 726 l 1417 726 l 1417 664 z "},"ǅ":{"ha":1464,"x_min":154,"x_max":1417,"o":"m 343 951 q 663 851 540 951 q 786 483 786 751 q 662 108 786 215 q 358 0 538 0 l 154 0 l 154 951 l 343 951 m 238 882 l 238 69 l 364 69 q 699 483 699 69 q 650 735 699 647 q 527 852 601 822 q 354 882 453 882 l 238 882 m 1417 664 l 1011 69 l 1414 69 l 1406 0 l 917 0 l 917 63 l 1322 657 l 950 657 l 950 726 l 1417 726 l 1417 664 m 1382 1026 l 1203 879 l 1153 879 l 972 1026 l 1008 1068 l 1178 951 l 1346 1068 l 1382 1026 z "},"E":{"ha":711,"x_min":154,"x_max":647,"o":"m 628 882 l 238 882 l 238 528 l 575 528 l 575 458 l 238 458 l 238 69 l 647 69 l 647 0 l 154 0 l 154 951 l 638 951 l 628 882 z "},"É":{"ha":711,"x_min":154,"x_max":647,"o":"m 628 882 l 238 882 l 238 528 l 575 528 l 575 458 l 238 458 l 238 69 l 647 69 l 647 0 l 154 0 l 154 951 l 638 951 l 628 882 m 550 1161 l 275 1053 l 253 1100 l 514 1233 l 550 1161 z "},"Ĕ":{"ha":711,"x_min":154,"x_max":647,"o":"m 628 882 l 238 882 l 238 528 l 575 528 l 575 458 l 238 458 l 238 69 l 647 69 l 647 0 l 154 0 l 154 951 l 638 951 l 628 882 m 400 1063 q 279 1102 329 1063 q 219 1201 229 1142 l 275 1214 q 321 1151 289 1174 q 400 1128 353 1128 q 480 1151 447 1128 q 526 1214 513 1174 l 582 1201 q 522 1102 572 1142 q 400 1063 471 1063 z "},"Ě":{"ha":711,"x_min":154,"x_max":647,"o":"m 628 882 l 238 882 l 238 528 l 575 528 l 575 458 l 238 458 l 238 69 l 647 69 l 647 0 l 154 0 l 154 951 l 638 951 l 628 882 m 606 1190 l 426 1050 l 376 1050 l 196 1190 l 232 1233 l 401 1122 l 569 1233 l 606 1190 z "},"Ȩ":{"ha":711,"x_min":154,"x_max":647,"o":"m 419 0 l 419 -89 q 516 -122 485 -94 q 547 -194 547 -150 q 506 -283 547 -251 q 401 -315 464 -315 q 290 -286 333 -315 l 315 -236 q 400 -257 353 -257 q 455 -242 433 -257 q 476 -194 476 -226 q 447 -149 476 -164 q 353 -133 417 -133 l 365 0 l 154 0 l 154 951 l 638 951 l 628 882 l 238 882 l 238 528 l 575 528 l 575 458 l 238 458 l 238 69 l 647 69 l 647 0 l 419 0 z "},"Ê":{"ha":711,"x_min":154,"x_max":647,"o":"m 628 882 l 238 882 l 238 528 l 575 528 l 575 458 l 238 458 l 238 69 l 647 69 l 647 0 l 154 0 l 154 951 l 638 951 l 628 882 m 196 1100 l 376 1242 l 426 1242 l 606 1100 l 569 1058 l 401 1169 l 232 1058 l 196 1100 z "},"Ế":{"ha":711,"x_min":154,"x_max":728,"o":"m 628 882 l 238 882 l 238 528 l 575 528 l 575 458 l 238 458 l 238 69 l 647 69 l 647 0 l 154 0 l 154 951 l 638 951 l 628 882 m 194 1051 l 375 1193 l 425 1193 l 604 1051 l 568 1010 l 400 1121 l 231 1010 l 194 1051 m 728 1324 l 560 1157 l 524 1190 l 674 1374 l 728 1324 z "},"Ệ":{"ha":711,"x_min":154,"x_max":647,"o":"m 628 882 l 238 882 l 238 528 l 575 528 l 575 458 l 238 458 l 238 69 l 647 69 l 647 0 l 154 0 l 154 951 l 638 951 l 628 882 m 196 1100 l 376 1242 l 426 1242 l 606 1100 l 569 1058 l 401 1169 l 232 1058 l 196 1100 m 399 -236 q 354 -219 371 -236 q 338 -178 338 -203 q 354 -136 338 -153 q 399 -119 371 -119 q 442 -136 425 -119 q 458 -178 458 -153 q 442 -219 458 -203 q 399 -236 425 -236 z "},"Ề":{"ha":711,"x_min":79,"x_max":647,"o":"m 628 882 l 238 882 l 238 528 l 575 528 l 575 458 l 238 458 l 238 69 l 647 69 l 647 0 l 154 0 l 154 951 l 638 951 l 628 882 m 194 1051 l 375 1193 l 425 1193 l 604 1051 l 568 1010 l 400 1121 l 231 1010 l 194 1051 m 282 1190 l 246 1157 l 79 1324 l 132 1374 l 282 1190 z "},"Ể":{"ha":711,"x_min":154,"x_max":714,"o":"m 628 882 l 238 882 l 238 528 l 575 528 l 575 458 l 238 458 l 238 69 l 647 69 l 647 0 l 154 0 l 154 951 l 638 951 l 628 882 m 194 1051 l 375 1193 l 425 1193 l 604 1051 l 568 1010 l 400 1121 l 231 1010 l 194 1051 m 543 1229 q 616 1247 592 1232 q 640 1294 640 1261 q 623 1335 640 1321 q 575 1350 606 1350 q 494 1332 535 1350 l 472 1381 q 585 1410 522 1410 q 679 1379 644 1410 q 714 1299 714 1349 q 610 1192 714 1207 l 610 1128 l 543 1128 l 543 1229 z "},"Ễ":{"ha":711,"x_min":154,"x_max":647,"o":"m 628 882 l 238 882 l 238 528 l 575 528 l 575 458 l 238 458 l 238 69 l 647 69 l 647 0 l 154 0 l 154 951 l 638 951 l 628 882 m 194 1051 l 375 1193 l 425 1193 l 604 1051 l 568 1010 l 400 1121 l 231 1010 l 194 1051 m 482 1244 q 436 1253 457 1244 q 385 1281 415 1263 q 348 1301 363 1294 q 319 1308 333 1308 q 278 1295 296 1308 q 242 1253 261 1282 l 192 1278 q 319 1372 243 1372 q 363 1364 343 1372 q 408 1339 383 1356 q 449 1317 433 1324 q 482 1310 464 1310 q 522 1324 504 1310 q 560 1369 539 1338 l 610 1344 q 482 1244 561 1244 z "},"Ȅ":{"ha":711,"x_min":154,"x_max":647,"o":"m 628 882 l 238 882 l 238 528 l 575 528 l 575 458 l 238 458 l 238 69 l 647 69 l 647 0 l 154 0 l 154 951 l 638 951 l 628 882 m 347 1092 l 294 1067 l 165 1264 l 238 1301 l 347 1092 m 515 1097 l 463 1074 l 346 1263 l 418 1301 l 515 1097 z "},"Ë":{"ha":711,"x_min":154,"x_max":647,"o":"m 628 882 l 238 882 l 238 528 l 575 528 l 575 458 l 238 458 l 238 69 l 647 69 l 647 0 l 154 0 l 154 951 l 638 951 l 628 882 m 269 1206 q 309 1190 293 1206 q 325 1150 325 1174 q 309 1111 325 1126 q 269 1096 293 1096 q 230 1111 246 1096 q 214 1150 214 1126 q 230 1190 214 1174 q 269 1206 246 1206 m 532 1206 q 572 1190 556 1206 q 588 1150 588 1174 q 572 1111 588 1126 q 532 1096 556 1096 q 492 1111 508 1096 q 476 1150 476 1126 q 492 1190 476 1174 q 532 1206 508 1206 z "},"Ė":{"ha":711,"x_min":154,"x_max":647,"o":"m 628 882 l 238 882 l 238 528 l 575 528 l 575 458 l 238 458 l 238 69 l 647 69 l 647 0 l 154 0 l 154 951 l 638 951 l 628 882 m 400 1221 q 444 1204 428 1221 q 461 1163 461 1188 q 444 1121 461 1138 q 400 1104 428 1104 q 357 1121 374 1104 q 340 1163 340 1138 q 357 1204 340 1188 q 400 1221 374 1221 z "},"Ẹ":{"ha":711,"x_min":154,"x_max":647,"o":"m 628 882 l 238 882 l 238 528 l 575 528 l 575 458 l 238 458 l 238 69 l 647 69 l 647 0 l 154 0 l 154 951 l 638 951 l 628 882 m 399 -236 q 354 -219 371 -236 q 338 -178 338 -203 q 354 -136 338 -153 q 399 -119 371 -119 q 442 -136 425 -119 q 458 -178 458 -153 q 442 -219 458 -203 q 399 -236 425 -236 z "},"È":{"ha":711,"x_min":154,"x_max":647,"o":"m 628 882 l 238 882 l 238 528 l 575 528 l 575 458 l 238 458 l 238 69 l 647 69 l 647 0 l 154 0 l 154 951 l 638 951 l 628 882 m 543 1100 l 521 1053 l 246 1161 l 282 1233 l 543 1100 z "},"Ẻ":{"ha":711,"x_min":154,"x_max":647,"o":"m 628 882 l 238 882 l 238 528 l 575 528 l 575 458 l 238 458 l 238 69 l 647 69 l 647 0 l 154 0 l 154 951 l 638 951 l 628 882 m 368 1176 q 441 1194 417 1179 q 465 1242 465 1208 q 448 1283 465 1268 q 400 1297 431 1297 q 319 1279 360 1297 l 297 1328 q 410 1357 347 1357 q 504 1326 469 1357 q 539 1246 539 1296 q 435 1139 539 1154 l 435 1075 l 368 1075 l 368 1176 z "},"Ȇ":{"ha":711,"x_min":154,"x_max":647,"o":"m 628 882 l 238 882 l 238 528 l 575 528 l 575 458 l 238 458 l 238 69 l 647 69 l 647 0 l 154 0 l 154 951 l 638 951 l 628 882 m 400 1256 q 522 1214 472 1256 q 582 1103 572 1172 l 526 1090 q 400 1190 499 1190 q 275 1090 303 1190 l 219 1103 q 278 1214 229 1172 q 400 1256 328 1256 z "},"Ē":{"ha":711,"x_min":154,"x_max":647,"o":"m 628 882 l 238 882 l 238 528 l 575 528 l 575 458 l 238 458 l 238 69 l 647 69 l 647 0 l 154 0 l 154 951 l 638 951 l 628 882 m 233 1114 l 233 1179 l 568 1179 l 568 1114 l 233 1114 z "},"Ę":{"ha":711,"x_min":154,"x_max":647,"o":"m 647 69 l 647 0 l 603 0 q 472 -78 510 -42 q 433 -164 433 -115 q 455 -217 433 -197 q 521 -236 476 -236 q 601 -226 558 -236 l 593 -293 q 513 -303 544 -303 q 399 -267 439 -303 q 358 -175 358 -232 q 394 -78 358 -121 q 503 0 431 -35 l 154 0 l 154 951 l 638 951 l 628 882 l 238 882 l 238 528 l 575 528 l 575 458 l 238 458 l 238 69 l 647 69 z "},"Ɛ":{"ha":722,"x_min":74,"x_max":693,"o":"m 382 967 q 535 938 465 967 q 667 850 604 908 l 619 799 q 386 896 514 896 q 242 849 293 896 q 190 725 190 801 q 248 592 190 639 q 403 544 306 544 l 486 544 l 475 474 l 399 474 q 224 422 285 475 q 163 272 163 369 q 227 115 163 172 q 399 57 292 57 q 642 161 540 57 l 693 114 q 396 -15 571 -15 q 230 20 303 -15 q 115 121 157 56 q 74 272 74 186 q 134 442 74 381 q 288 514 194 504 q 153 586 203 532 q 104 729 104 640 q 178 901 104 835 q 382 967 253 967 z "},"Ǝ":{"ha":711,"x_min":64,"x_max":557,"o":"m 557 951 l 557 0 l 64 0 l 64 69 l 474 69 l 474 458 l 136 458 l 136 528 l 474 528 l 474 882 l 74 882 l 74 951 l 557 951 z "},"Ʃ":{"ha":686,"x_min":63,"x_max":622,"o":"m 622 881 l 165 881 l 463 496 l 463 449 l 165 71 l 622 71 l 622 0 l 63 0 l 63 61 l 383 471 l 63 890 l 63 951 l 622 951 l 622 881 z "},"Ɇ":{"ha":711,"x_min":154,"x_max":647,"o":"m 647 0 l 308 0 l 283 -97 l 238 -86 l 260 0 l 154 0 l 154 951 l 510 951 l 532 1035 l 578 1022 l 560 951 l 638 951 l 628 882 l 540 882 l 447 528 l 575 528 l 575 458 l 429 458 l 328 69 l 647 69 l 647 0 m 238 528 l 399 528 l 492 882 l 238 882 l 238 528 m 278 69 l 381 458 l 238 458 l 238 69 l 278 69 z "},"Ẽ":{"ha":711,"x_min":154,"x_max":647,"o":"m 628 882 l 238 882 l 238 528 l 575 528 l 575 458 l 238 458 l 238 69 l 647 69 l 647 0 l 154 0 l 154 951 l 638 951 l 628 882 m 482 1100 q 436 1109 457 1100 q 385 1136 415 1118 q 348 1157 363 1150 q 319 1164 333 1164 q 278 1151 296 1164 q 242 1108 261 1138 l 192 1133 q 319 1228 243 1228 q 363 1219 343 1228 q 408 1194 383 1211 q 449 1172 433 1179 q 482 1165 464 1165 q 522 1179 504 1165 q 560 1225 539 1193 l 610 1200 q 482 1100 561 1100 z "},"Ʒ":{"ha":686,"x_min":21,"x_max":619,"o":"m 307 536 q 540 466 461 536 q 619 264 619 396 q 582 119 619 182 q 474 20 544 56 q 307 -15 403 -15 q 144 15 213 -15 q 21 104 75 44 l 71 153 q 174 78 119 101 q 304 56 229 56 q 474 113 415 56 q 533 264 533 169 q 473 422 533 372 q 294 471 413 471 l 178 471 l 178 535 l 485 882 l 54 882 l 54 951 l 585 951 l 585 883 l 268 536 l 307 536 z "},"Ǯ":{"ha":686,"x_min":21,"x_max":619,"o":"m 307 536 q 540 466 461 536 q 619 264 619 396 q 582 119 619 182 q 474 20 544 56 q 307 -15 403 -15 q 144 15 213 -15 q 21 104 75 44 l 71 153 q 174 78 119 101 q 304 56 229 56 q 474 113 415 56 q 533 264 533 169 q 473 422 533 372 q 294 471 413 471 l 178 471 l 178 535 l 485 882 l 54 882 l 54 951 l 585 951 l 585 883 l 268 536 l 307 536 m 524 1190 l 344 1050 l 294 1050 l 114 1190 l 150 1233 l 319 1122 l 488 1233 l 524 1190 z "},"Ƹ":{"ha":686,"x_min":67,"x_max":664,"o":"m 664 104 q 538 14 607 43 q 367 -15 468 -15 q 208 19 276 -15 q 103 114 140 53 q 67 256 67 175 q 148 461 67 386 q 381 536 229 536 l 417 536 l 100 883 l 100 951 l 632 951 l 632 882 l 201 882 l 508 536 l 508 471 l 392 471 q 151 256 151 471 q 209 109 151 163 q 369 56 267 56 q 508 78 453 56 q 614 153 564 100 l 664 104 z "},"F":{"ha":668,"x_min":154,"x_max":629,"o":"m 154 951 l 629 951 l 619 882 l 238 882 l 238 511 l 567 511 l 567 442 l 238 442 l 238 0 l 154 0 l 154 951 z "},"Ḟ":{"ha":668,"x_min":154,"x_max":629,"o":"m 154 951 l 629 951 l 619 882 l 238 882 l 238 511 l 567 511 l 567 442 l 238 442 l 238 0 l 154 0 l 154 951 m 404 1221 q 449 1204 432 1221 q 465 1163 465 1188 q 449 1121 465 1138 q 404 1104 432 1104 q 361 1121 378 1104 q 344 1163 344 1138 q 361 1204 344 1188 q 404 1221 378 1221 z "},"Ƒ":{"ha":668,"x_min":-78,"x_max":629,"o":"m 238 882 l 238 511 l 567 511 l 567 442 l 238 442 l 238 -99 q 190 -237 238 -190 q 64 -285 143 -285 q -78 -237 -17 -285 l -43 -185 q 5 -208 -18 -200 q 61 -217 28 -217 q 129 -189 104 -217 q 154 -100 154 -161 l 154 951 l 629 951 l 619 882 l 238 882 z "},"G":{"ha":858,"x_min":92,"x_max":767,"o":"m 489 967 q 629 944 569 967 q 750 872 689 921 l 700 819 q 600 878 649 860 q 489 896 551 896 q 337 853 407 896 q 223 716 267 810 q 179 479 179 622 q 260 161 179 267 q 485 56 340 56 q 685 106 596 56 l 685 443 l 499 443 l 489 513 l 767 513 l 767 63 q 485 -15 631 -15 q 197 111 303 -15 q 92 479 92 238 q 147 747 92 636 q 292 912 201 857 q 489 967 383 967 z "},"Ǵ":{"ha":858,"x_min":92,"x_max":767,"o":"m 489 967 q 629 944 569 967 q 750 872 689 921 l 700 819 q 600 878 649 860 q 489 896 551 896 q 337 853 407 896 q 223 716 267 810 q 179 479 179 622 q 260 161 179 267 q 485 56 340 56 q 685 106 596 56 l 685 443 l 499 443 l 489 513 l 767 513 l 767 63 q 485 -15 631 -15 q 197 111 303 -15 q 92 479 92 238 q 147 747 92 636 q 292 912 201 857 q 489 967 383 967 m 638 1161 l 363 1053 l 340 1100 l 601 1233 l 638 1161 z "},"Ɣ":{"ha":757,"x_min":22,"x_max":735,"o":"m 429 83 q 493 -62 475 -12 q 511 -161 511 -111 q 477 -251 511 -218 q 379 -285 443 -285 q 282 -252 317 -285 q 247 -162 247 -219 q 265 -68 247 -118 q 329 83 283 -18 l 22 951 l 113 951 l 381 143 l 649 951 l 735 951 l 429 83 m 433 -157 q 421 -83 433 -122 q 379 26 408 -44 q 338 -84 350 -46 q 325 -157 325 -122 q 339 -202 325 -186 q 379 -218 353 -218 q 419 -202 406 -218 q 433 -157 433 -186 z "},"Ğ":{"ha":858,"x_min":92,"x_max":767,"o":"m 489 967 q 629 944 569 967 q 750 872 689 921 l 700 819 q 600 878 649 860 q 489 896 551 896 q 337 853 407 896 q 223 716 267 810 q 179 479 179 622 q 260 161 179 267 q 485 56 340 56 q 685 106 596 56 l 685 443 l 499 443 l 489 513 l 767 513 l 767 63 q 485 -15 631 -15 q 197 111 303 -15 q 92 479 92 238 q 147 747 92 636 q 292 912 201 857 q 489 967 383 967 m 488 1063 q 367 1102 417 1063 q 307 1201 317 1142 l 363 1214 q 408 1151 376 1174 q 488 1128 440 1128 q 567 1151 535 1128 q 614 1214 600 1174 l 669 1201 q 609 1102 660 1142 q 488 1063 558 1063 z "},"Ǧ":{"ha":858,"x_min":92,"x_max":767,"o":"m 489 967 q 629 944 569 967 q 750 872 689 921 l 700 819 q 600 878 649 860 q 489 896 551 896 q 337 853 407 896 q 223 716 267 810 q 179 479 179 622 q 260 161 179 267 q 485 56 340 56 q 685 106 596 56 l 685 443 l 499 443 l 489 513 l 767 513 l 767 63 q 485 -15 631 -15 q 197 111 303 -15 q 92 479 92 238 q 147 747 92 636 q 292 912 201 857 q 489 967 383 967 m 693 1190 l 514 1050 l 464 1050 l 283 1190 l 319 1233 l 489 1122 l 657 1233 l 693 1190 z "},"Ĝ":{"ha":858,"x_min":92,"x_max":767,"o":"m 489 967 q 629 944 569 967 q 750 872 689 921 l 700 819 q 600 878 649 860 q 489 896 551 896 q 337 853 407 896 q 223 716 267 810 q 179 479 179 622 q 260 161 179 267 q 485 56 340 56 q 685 106 596 56 l 685 443 l 499 443 l 489 513 l 767 513 l 767 63 q 485 -15 631 -15 q 197 111 303 -15 q 92 479 92 238 q 147 747 92 636 q 292 912 201 857 q 489 967 383 967 m 283 1100 l 464 1242 l 514 1242 l 693 1100 l 657 1058 l 489 1169 l 319 1058 l 283 1100 z "},"Ģ":{"ha":858,"x_min":92,"x_max":767,"o":"m 489 967 q 629 944 569 967 q 750 872 689 921 l 700 819 q 600 878 649 860 q 489 896 551 896 q 337 853 407 896 q 223 716 267 810 q 179 479 179 622 q 260 161 179 267 q 485 56 340 56 q 685 106 596 56 l 685 443 l 499 443 l 489 513 l 767 513 l 767 63 q 485 -15 631 -15 q 197 111 303 -15 q 92 479 92 238 q 147 747 92 636 q 292 912 201 857 q 489 967 383 967 m 472 -118 q 516 -135 499 -118 q 533 -176 533 -151 q 527 -211 533 -193 q 501 -268 521 -229 l 446 -387 l 397 -387 l 442 -229 q 411 -176 411 -210 q 428 -135 411 -151 q 472 -118 446 -118 z "},"Ġ":{"ha":858,"x_min":92,"x_max":767,"o":"m 489 967 q 629 944 569 967 q 750 872 689 921 l 700 819 q 600 878 649 860 q 489 896 551 896 q 337 853 407 896 q 223 716 267 810 q 179 479 179 622 q 260 161 179 267 q 485 56 340 56 q 685 106 596 56 l 685 443 l 499 443 l 489 513 l 767 513 l 767 63 q 485 -15 631 -15 q 197 111 303 -15 q 92 479 92 238 q 147 747 92 636 q 292 912 201 857 q 489 967 383 967 m 488 1221 q 532 1204 515 1221 q 549 1163 549 1188 q 532 1121 549 1138 q 488 1104 515 1104 q 444 1121 461 1104 q 428 1163 428 1138 q 444 1204 428 1188 q 488 1221 461 1221 z "},"Ɠ":{"ha":793,"x_min":92,"x_max":985,"o":"m 843 1144 q 985 1097 924 1144 l 951 1046 q 901 1070 924 1063 q 846 1078 878 1078 q 750 963 750 1078 l 750 872 l 707 826 q 602 879 654 863 q 488 896 550 896 q 337 853 407 896 q 223 716 267 810 q 179 479 179 622 q 260 161 179 267 q 485 56 340 56 q 685 106 596 56 l 685 443 l 499 443 l 489 513 l 767 513 l 767 63 q 481 -15 633 -15 q 275 40 363 -15 q 140 207 188 96 q 92 479 92 318 q 147 745 92 635 q 290 911 201 856 q 479 967 379 967 q 583 956 538 967 q 669 921 628 944 l 669 958 q 715 1097 669 1049 q 843 1144 761 1144 z "},"Ɂ":{"ha":640,"x_min":21,"x_max":597,"o":"m 218 424 l 319 449 q 462 525 414 474 q 510 681 510 576 q 456 837 510 778 q 303 896 401 896 q 180 872 236 896 q 69 799 124 847 l 21 850 q 156 938 88 910 q 307 967 224 967 q 461 931 396 967 q 562 830 526 894 q 597 683 597 765 q 531 485 597 550 q 350 390 464 419 l 301 378 l 301 0 l 218 0 l 218 424 z "},"Ǥ":{"ha":876,"x_min":92,"x_max":865,"o":"m 865 265 l 767 265 l 767 63 q 483 -15 633 -15 q 197 111 303 -15 q 92 479 92 238 q 147 745 92 635 q 293 911 203 856 q 486 967 383 967 q 628 944 568 967 q 750 872 689 921 l 700 821 q 600 878 649 860 q 488 896 551 896 q 337 853 407 896 q 223 716 267 810 q 179 479 179 622 q 260 161 179 267 q 485 56 340 56 q 685 104 594 56 l 685 265 l 499 265 l 499 336 l 685 336 l 685 443 l 499 443 l 489 513 l 767 513 l 767 336 l 865 336 l 865 265 z "},"H":{"ha":931,"x_min":154,"x_max":776,"o":"m 693 465 l 238 465 l 238 0 l 154 0 l 154 951 l 238 951 l 238 536 l 693 536 l 693 951 l 776 951 l 776 0 l 693 0 l 693 465 z "},"Ħ":{"ha":936,"x_min":65,"x_max":871,"o":"m 871 713 l 779 713 l 779 0 l 696 0 l 696 465 l 240 465 l 240 0 l 157 0 l 157 713 l 65 713 l 65 775 l 157 775 l 157 951 l 240 951 l 240 775 l 696 775 l 696 951 l 779 951 l 779 775 l 871 775 l 871 713 m 696 713 l 240 713 l 240 536 l 696 536 l 696 713 z "},"Ȟ":{"ha":931,"x_min":154,"x_max":776,"o":"m 693 465 l 238 465 l 238 0 l 154 0 l 154 951 l 238 951 l 238 536 l 693 536 l 693 951 l 776 951 l 776 0 l 693 0 l 693 465 m 668 1190 l 489 1050 l 439 1050 l 258 1190 l 294 1233 l 464 1122 l 632 1233 l 668 1190 z "},"Ĥ":{"ha":931,"x_min":154,"x_max":776,"o":"m 693 465 l 238 465 l 238 0 l 154 0 l 154 951 l 238 951 l 238 536 l 693 536 l 693 951 l 776 951 l 776 0 l 693 0 l 693 465 m 258 1100 l 439 1242 l 489 1242 l 668 1100 l 632 1058 l 464 1169 l 294 1058 l 258 1100 z "},"Ḥ":{"ha":931,"x_min":154,"x_max":776,"o":"m 693 465 l 238 465 l 238 0 l 154 0 l 154 951 l 238 951 l 238 536 l 693 536 l 693 951 l 776 951 l 776 0 l 693 0 l 693 465 m 465 -236 q 421 -219 438 -236 q 404 -178 404 -203 q 421 -136 404 -153 q 465 -119 438 -119 q 508 -136 492 -119 q 525 -178 525 -153 q 508 -219 525 -203 q 465 -236 492 -236 z "},"Ɦ":{"ha":1015,"x_min":21,"x_max":861,"o":"m 861 951 l 861 0 l 778 0 l 778 465 l 322 465 l 322 0 l 239 0 l 239 883 l 197 883 q 123 860 147 883 q 99 796 99 836 q 106 746 99 768 q 129 692 114 724 l 71 661 q 33 728 46 699 q 21 797 21 757 q 68 909 21 867 q 203 951 115 951 l 322 951 l 322 536 l 778 536 l 778 951 l 861 951 z "},"Ɥ":{"ha":825,"x_min":63,"x_max":671,"o":"m 671 951 l 671 0 l 588 0 l 588 410 q 470 335 531 360 q 333 310 410 310 q 137 383 211 310 q 63 582 63 456 l 63 951 l 146 951 l 146 588 q 200 435 146 488 q 351 383 254 383 q 485 411 425 383 q 588 486 546 439 l 588 951 l 671 951 z "},"Ƕ":{"ha":1339,"x_min":154,"x_max":1226,"o":"m 1190 726 q 1226 361 1226 518 q 1185 150 1226 235 q 1078 25 1144 65 q 931 -15 1011 -15 q 760 47 828 -15 q 693 221 693 108 l 693 465 l 238 465 l 238 0 l 154 0 l 154 951 l 238 951 l 238 536 l 693 536 l 693 951 l 776 951 l 776 226 q 819 96 776 139 q 933 53 861 53 q 1083 126 1021 53 q 1144 367 1144 200 q 1108 726 1144 532 l 1190 726 z "},"I":{"ha":392,"x_min":154,"x_max":238,"o":"m 238 0 l 154 0 l 154 951 l 238 951 l 238 0 z "},"Ĳ":{"ha":796,"x_min":154,"x_max":649,"o":"m 238 0 l 154 0 l 154 951 l 238 951 l 238 0 m 649 128 q 627 -10 649 43 q 560 -99 606 -64 q 432 -165 514 -133 l 410 -104 q 507 -47 474 -76 q 553 24 540 -17 q 565 132 565 65 l 565 951 l 649 951 l 649 128 z "},"Í":{"ha":392,"x_min":46,"x_max":343,"o":"m 238 0 l 154 0 l 154 951 l 238 951 l 238 0 m 343 1161 l 68 1053 l 46 1100 l 307 1233 l 343 1161 z "},"Ĭ":{"ha":392,"x_min":13,"x_max":375,"o":"m 238 0 l 154 0 l 154 951 l 238 951 l 238 0 m 193 1063 q 72 1102 122 1063 q 13 1201 22 1142 l 68 1214 q 114 1151 82 1174 q 193 1128 146 1128 q 273 1151 240 1128 q 319 1214 306 1174 l 375 1201 q 315 1102 365 1142 q 193 1063 264 1063 z "},"Ǐ":{"ha":392,"x_min":-11,"x_max":399,"o":"m 238 0 l 154 0 l 154 951 l 238 951 l 238 0 m 399 1190 l 219 1050 l 169 1050 l -11 1190 l 25 1233 l 194 1122 l 363 1233 l 399 1190 z "},"Î":{"ha":392,"x_min":-11,"x_max":399,"o":"m 238 0 l 154 0 l 154 951 l 238 951 l 238 0 m -11 1100 l 169 1242 l 219 1242 l 399 1100 l 363 1058 l 194 1169 l 25 1058 l -11 1100 z "},"Ȉ":{"ha":392,"x_min":-42,"x_max":308,"o":"m 238 0 l 154 0 l 154 951 l 238 951 l 238 0 m 140 1092 l 88 1067 l -42 1264 l 31 1301 l 140 1092 m 308 1097 l 256 1074 l 139 1263 l 211 1301 l 308 1097 z "},"Ï":{"ha":392,"x_min":7,"x_max":381,"o":"m 238 0 l 154 0 l 154 951 l 238 951 l 238 0 m 63 1206 q 102 1190 86 1206 q 118 1150 118 1174 q 102 1111 118 1126 q 63 1096 86 1096 q 23 1111 39 1096 q 7 1150 7 1126 q 23 1190 7 1174 q 63 1206 39 1206 m 325 1206 q 365 1190 349 1206 q 381 1150 381 1174 q 365 1111 381 1126 q 325 1096 349 1096 q 285 1111 301 1096 q 269 1150 269 1126 q 285 1190 269 1174 q 325 1206 301 1206 z "},"Ḯ":{"ha":392,"x_min":7,"x_max":381,"o":"m 238 0 l 154 0 l 154 951 l 238 951 l 238 0 m 357 1299 l 189 1132 l 153 1165 l 303 1349 l 357 1299 m 63 1143 q 102 1127 86 1143 q 118 1088 118 1111 q 102 1049 118 1064 q 63 1033 86 1033 q 23 1049 39 1033 q 7 1088 7 1064 q 23 1127 7 1111 q 63 1143 39 1143 m 325 1143 q 365 1127 349 1143 q 381 1088 381 1111 q 365 1049 381 1064 q 325 1033 349 1033 q 285 1049 301 1033 q 269 1088 269 1064 q 285 1127 269 1111 q 325 1143 301 1143 z "},"İ":{"ha":392,"x_min":133,"x_max":254,"o":"m 238 0 l 154 0 l 154 951 l 238 951 l 238 0 m 193 1221 q 238 1204 221 1221 q 254 1163 254 1188 q 238 1121 254 1138 q 193 1104 221 1104 q 150 1121 167 1104 q 133 1163 133 1138 q 150 1204 133 1188 q 193 1221 167 1221 z "},"Ị":{"ha":392,"x_min":135,"x_max":256,"o":"m 238 0 l 154 0 l 154 951 l 238 951 l 238 0 m 196 -236 q 151 -219 168 -236 q 135 -178 135 -203 q 151 -136 135 -153 q 196 -119 168 -119 q 239 -136 222 -119 q 256 -178 256 -153 q 239 -219 256 -203 q 196 -236 222 -236 z "},"Ì":{"ha":392,"x_min":39,"x_max":336,"o":"m 238 0 l 154 0 l 154 951 l 238 951 l 238 0 m 336 1100 l 314 1053 l 39 1161 l 75 1233 l 336 1100 z "},"Ỉ":{"ha":392,"x_min":90,"x_max":332,"o":"m 238 0 l 154 0 l 154 951 l 238 951 l 238 0 m 161 1176 q 234 1194 210 1179 q 258 1242 258 1208 q 241 1283 258 1268 q 193 1297 224 1297 q 113 1279 153 1297 l 90 1328 q 203 1357 140 1357 q 297 1326 263 1357 q 332 1246 332 1296 q 228 1139 332 1154 l 228 1075 l 161 1075 l 161 1176 z "},"Ȋ":{"ha":392,"x_min":13,"x_max":375,"o":"m 238 0 l 154 0 l 154 951 l 238 951 l 238 0 m 193 1256 q 315 1214 265 1256 q 375 1103 365 1172 l 319 1090 q 193 1190 292 1190 q 68 1090 96 1190 l 13 1103 q 72 1214 22 1172 q 193 1256 121 1256 z "},"Ī":{"ha":392,"x_min":26,"x_max":361,"o":"m 238 0 l 154 0 l 154 951 l 238 951 l 238 0 m 26 1114 l 26 1179 l 361 1179 l 361 1114 l 26 1114 z "},"Į":{"ha":392,"x_min":-7,"x_max":238,"o":"m 238 0 q 106 -78 144 -42 q 68 -164 68 -115 q 90 -217 68 -197 q 156 -236 111 -236 q 236 -226 193 -236 l 228 -293 q 147 -303 179 -303 q 33 -267 74 -303 q -7 -175 -7 -232 q 33 -74 -7 -118 q 154 8 72 -29 l 154 951 l 238 951 l 238 0 z "},"Ɩ":{"ha":478,"x_min":140,"x_max":456,"o":"m 456 32 q 314 -15 394 -15 q 188 32 235 -15 q 140 171 140 79 l 140 951 l 224 951 l 224 169 q 249 81 224 108 q 317 53 274 53 q 373 61 350 53 q 421 85 396 69 l 456 32 z "},"Ɨ":{"ha":439,"x_min":36,"x_max":404,"o":"m 404 465 l 261 465 l 261 0 l 178 0 l 178 465 l 36 465 l 36 533 l 178 533 l 178 951 l 261 951 l 261 533 l 404 533 l 404 465 z "},"Ĩ":{"ha":392,"x_min":-15,"x_max":403,"o":"m 238 0 l 154 0 l 154 951 l 238 951 l 238 0 m 275 1100 q 229 1109 250 1100 q 178 1136 208 1118 q 141 1157 156 1150 q 113 1164 126 1164 q 72 1151 89 1164 q 35 1108 54 1138 l -15 1133 q 113 1228 36 1228 q 156 1219 136 1228 q 201 1194 176 1211 q 242 1172 226 1179 q 275 1165 257 1165 q 315 1179 297 1165 q 353 1225 332 1193 l 403 1200 q 275 1100 354 1100 z "},"J":{"ha":404,"x_min":18,"x_max":257,"o":"m 257 128 q 235 -10 257 43 q 168 -99 214 -64 q 40 -165 122 -133 l 18 -104 q 115 -47 82 -76 q 161 24 149 -17 q 174 132 174 65 l 174 951 l 257 951 l 257 128 z "},"Ĵ":{"ha":404,"x_min":8,"x_max":418,"o":"m 257 128 q 235 -10 257 43 q 168 -99 214 -64 q 40 -165 122 -133 l 18 -104 q 115 -47 82 -76 q 161 24 149 -17 q 174 132 174 65 l 174 951 l 257 951 l 257 128 m 8 1100 l 189 1242 l 239 1242 l 418 1100 l 382 1058 l 214 1169 l 44 1058 l 8 1100 z "},"Ʝ":{"ha":429,"x_min":-111,"x_max":422,"o":"m 400 -125 q 274 -81 335 -96 q 210 -233 264 -182 q 61 -285 157 -285 q -65 -248 -19 -285 q -111 -149 -111 -211 q -56 -40 -111 -79 q 96 0 -1 0 q 192 -7 150 0 l 192 951 l 275 951 l 275 -24 q 422 -76 356 -44 l 400 -125 m 61 -224 q 159 -187 129 -224 q 192 -65 189 -150 q 96 -57 149 -57 q -39 -146 -39 -57 q 61 -224 -39 -224 z "},"Ɉ":{"ha":418,"x_min":18,"x_max":397,"o":"m 397 442 l 257 442 l 257 128 q 235 -10 257 43 q 168 -99 214 -64 q 40 -165 122 -133 l 18 -104 q 115 -47 82 -76 q 161 24 149 -17 q 174 132 174 65 l 174 442 l 29 442 l 29 511 l 174 511 l 174 951 l 257 951 l 257 511 l 397 511 l 397 442 z "},"K":{"ha":760,"x_min":154,"x_max":760,"o":"m 238 0 l 154 0 l 154 951 l 238 951 l 238 0 m 342 514 l 760 0 l 658 0 l 243 510 l 640 951 l 736 951 l 342 514 z "},"Ǩ":{"ha":760,"x_min":154,"x_max":760,"o":"m 238 0 l 154 0 l 154 951 l 238 951 l 238 0 m 342 514 l 760 0 l 658 0 l 243 510 l 640 951 l 736 951 l 342 514 m 631 1190 l 451 1050 l 401 1050 l 221 1190 l 257 1233 l 426 1122 l 594 1233 l 631 1190 z "},"Ķ":{"ha":760,"x_min":154,"x_max":760,"o":"m 238 0 l 154 0 l 154 951 l 238 951 l 238 0 m 342 514 l 760 0 l 658 0 l 243 510 l 640 951 l 736 951 l 342 514 m 426 -118 q 470 -135 453 -118 q 488 -176 488 -151 q 481 -211 488 -193 q 456 -268 475 -229 l 400 -387 l 351 -387 l 396 -229 q 365 -176 365 -210 q 383 -135 365 -151 q 426 -118 400 -118 z "},"Ƙ":{"ha":803,"x_min":154,"x_max":803,"o":"m 243 510 l 493 854 q 578 942 539 917 q 675 967 617 967 q 803 915 746 967 l 768 864 q 679 897 725 897 q 617 881 643 897 q 551 813 590 865 l 340 514 l 760 0 l 658 0 l 243 510 m 238 0 l 154 0 l 154 951 l 238 951 l 238 0 z "},"L":{"ha":663,"x_min":154,"x_max":635,"o":"m 238 75 l 635 75 l 624 0 l 154 0 l 154 951 l 238 951 l 238 75 z "},"Ǉ":{"ha":1067,"x_min":154,"x_max":919,"o":"m 238 75 l 635 75 l 624 0 l 154 0 l 154 951 l 238 951 l 238 75 m 919 128 q 898 -10 919 43 q 831 -99 876 -64 q 703 -165 785 -133 l 681 -104 q 778 -47 744 -76 q 824 24 811 -17 q 836 132 836 65 l 836 951 l 919 951 l 919 128 z "},"Ĺ":{"ha":663,"x_min":47,"x_max":635,"o":"m 238 75 l 635 75 l 624 0 l 154 0 l 154 951 l 238 951 l 238 75 m 344 1161 l 69 1053 l 47 1100 l 308 1233 l 344 1161 z "},"Ƚ":{"ha":685,"x_min":36,"x_max":657,"o":"m 657 75 l 646 0 l 176 0 l 176 469 l 36 469 l 36 539 l 176 539 l 176 951 l 260 951 l 260 539 l 404 539 l 404 469 l 260 469 l 260 75 l 657 75 z "},"Ɬ":{"ha":717,"x_min":25,"x_max":689,"o":"m 689 75 l 678 0 l 208 0 l 208 372 q 72 410 119 375 q 25 513 25 446 q 66 607 25 572 q 167 642 107 642 q 208 639 189 642 l 208 951 l 292 951 l 292 435 q 457 454 358 436 l 465 396 q 292 375 379 379 l 292 75 l 689 75 m 96 514 q 124 453 96 472 q 208 435 153 435 l 208 579 q 171 582 186 582 q 116 565 136 582 q 96 514 96 547 z "},"Ľ":{"ha":663,"x_min":154,"x_max":635,"o":"m 238 75 l 635 75 l 624 0 l 154 0 l 154 951 l 238 951 l 238 75 m 429 951 l 351 960 l 325 731 l 375 724 l 429 951 z "},"Ḽ":{"ha":663,"x_min":154,"x_max":635,"o":"m 238 75 l 635 75 l 624 0 l 154 0 l 154 951 l 238 951 l 238 75 m 186 -244 l 365 -97 l 415 -97 l 596 -244 l 560 -286 l 390 -168 l 222 -286 l 186 -244 z "},"Ļ":{"ha":663,"x_min":154,"x_max":635,"o":"m 238 75 l 635 75 l 624 0 l 154 0 l 154 951 l 238 951 l 238 75 m 392 -118 q 435 -135 418 -118 q 453 -176 453 -151 q 447 -211 453 -193 q 421 -268 440 -229 l 365 -387 l 317 -387 l 361 -229 q 331 -176 331 -210 q 348 -135 331 -151 q 392 -118 365 -118 z "},"Ŀ":{"ha":663,"x_min":154,"x_max":635,"o":"m 238 75 l 635 75 l 624 0 l 154 0 l 154 951 l 238 951 l 238 75 m 513 571 q 557 554 540 571 q 574 513 574 538 q 557 471 574 488 q 513 454 540 454 q 469 471 486 454 q 453 513 453 488 q 469 554 453 538 q 513 571 486 571 z "},"Ḷ":{"ha":663,"x_min":154,"x_max":635,"o":"m 238 75 l 635 75 l 624 0 l 154 0 l 154 951 l 238 951 l 238 75 m 392 -236 q 347 -219 364 -236 q 331 -178 331 -203 q 347 -136 331 -153 q 392 -119 364 -119 q 435 -136 418 -119 q 451 -178 451 -153 q 435 -219 451 -203 q 392 -236 418 -236 z "},"ǈ":{"ha":1038,"x_min":154,"x_max":910,"o":"m 238 75 l 635 75 l 624 0 l 154 0 l 154 951 l 238 951 l 238 75 m 890 26 q 869 -124 890 -68 q 808 -215 849 -181 q 694 -282 768 -249 l 671 -224 q 752 -172 724 -197 q 795 -101 781 -146 q 810 24 810 -56 l 810 726 l 890 726 l 890 26 m 849 1046 q 893 1029 876 1046 q 910 988 910 1013 q 893 946 910 963 q 849 929 876 929 q 806 946 822 929 q 789 988 789 963 q 806 1029 789 1013 q 849 1046 822 1046 z "},"Ł":{"ha":678,"x_min":46,"x_max":650,"o":"m 650 75 l 639 0 l 169 0 l 169 390 l 79 335 l 46 389 l 168 465 l 169 467 l 169 951 l 253 951 l 253 518 l 503 674 l 538 619 l 253 443 l 253 75 l 650 75 z "},"M":{"ha":1069,"x_min":96,"x_max":974,"o":"m 974 0 l 893 0 l 850 456 q 814 871 824 722 l 575 113 l 496 113 l 249 871 q 221 504 244 797 l 217 458 l 175 0 l 96 0 l 186 951 l 301 951 l 538 210 l 765 951 l 882 951 l 974 0 z "},"Ḿ":{"ha":1069,"x_min":96,"x_max":974,"o":"m 974 0 l 893 0 l 850 456 q 814 871 824 722 l 575 113 l 496 113 l 249 871 q 221 504 244 797 l 217 458 l 175 0 l 96 0 l 186 951 l 301 951 l 538 210 l 765 951 l 882 951 l 974 0 m 683 1161 l 408 1053 l 386 1100 l 647 1233 l 683 1161 z "},"Ṁ":{"ha":1069,"x_min":96,"x_max":974,"o":"m 974 0 l 893 0 l 850 456 q 814 871 824 722 l 575 113 l 496 113 l 249 871 q 221 504 244 797 l 217 458 l 175 0 l 96 0 l 186 951 l 301 951 l 538 210 l 765 951 l 882 951 l 974 0 m 533 1221 q 578 1204 561 1221 q 594 1163 594 1188 q 578 1121 594 1138 q 533 1104 561 1104 q 490 1121 507 1104 q 474 1163 474 1138 q 490 1204 474 1188 q 533 1221 507 1221 z "},"Ɯ":{"ha":1290,"x_min":140,"x_max":1136,"o":"m 1136 951 l 1136 0 l 1064 0 l 1057 129 q 953 23 1014 61 q 818 -15 893 -15 q 689 24 742 -15 q 613 138 636 64 q 363 -15 510 -15 q 199 57 257 -15 q 140 256 140 129 l 140 951 l 224 951 l 224 253 q 263 107 224 158 q 374 56 301 56 q 497 95 444 56 q 597 213 550 135 q 596 256 596 226 l 596 951 l 679 951 l 679 253 q 718 107 679 158 q 829 56 757 56 q 954 96 901 56 q 1053 214 1007 136 l 1053 951 l 1136 951 z "},"N":{"ha":935,"x_min":154,"x_max":781,"o":"m 781 0 l 671 0 l 222 860 q 233 532 233 686 l 233 0 l 154 0 l 154 951 l 261 951 l 713 92 q 701 374 701 253 l 701 951 l 781 951 l 781 0 z "},"Ǌ":{"ha":1339,"x_min":154,"x_max":1192,"o":"m 781 0 l 671 0 l 222 860 q 233 532 233 686 l 233 0 l 154 0 l 154 951 l 261 951 l 713 92 q 701 374 701 253 l 701 951 l 781 951 l 781 0 m 1192 128 q 1170 -10 1192 43 q 1103 -99 1149 -64 q 975 -165 1057 -133 l 953 -104 q 1050 -47 1017 -76 q 1096 24 1083 -17 q 1108 132 1108 65 l 1108 951 l 1192 951 l 1192 128 z "},"Ń":{"ha":935,"x_min":154,"x_max":781,"o":"m 781 0 l 671 0 l 222 860 q 233 532 233 686 l 233 0 l 154 0 l 154 951 l 261 951 l 713 92 q 701 374 701 253 l 701 951 l 781 951 l 781 0 m 628 1161 l 353 1053 l 331 1100 l 592 1233 l 628 1161 z "},"Ň":{"ha":935,"x_min":154,"x_max":781,"o":"m 781 0 l 671 0 l 222 860 q 233 532 233 686 l 233 0 l 154 0 l 154 951 l 261 951 l 713 92 q 701 374 701 253 l 701 951 l 781 951 l 781 0 m 683 1190 l 504 1050 l 454 1050 l 274 1190 l 310 1233 l 479 1122 l 647 1233 l 683 1190 z "},"Ṋ":{"ha":935,"x_min":154,"x_max":781,"o":"m 781 0 l 671 0 l 222 860 q 233 532 233 686 l 233 0 l 154 0 l 154 951 l 261 951 l 713 92 q 701 374 701 253 l 701 951 l 781 951 l 781 0 m 263 -244 l 442 -97 l 492 -97 l 672 -244 l 636 -286 l 467 -168 l 299 -286 l 263 -244 z "},"Ņ":{"ha":935,"x_min":154,"x_max":781,"o":"m 781 0 l 671 0 l 222 860 q 233 532 233 686 l 233 0 l 154 0 l 154 951 l 261 951 l 713 92 q 701 374 701 253 l 701 951 l 781 951 l 781 0 m 468 -118 q 512 -135 494 -118 q 529 -176 529 -151 q 523 -211 529 -193 q 497 -268 517 -229 l 442 -387 l 393 -387 l 438 -229 q 407 -176 407 -210 q 424 -135 407 -151 q 468 -118 442 -118 z "},"Ṅ":{"ha":935,"x_min":154,"x_max":781,"o":"m 781 0 l 671 0 l 222 860 q 233 532 233 686 l 233 0 l 154 0 l 154 951 l 261 951 l 713 92 q 701 374 701 253 l 701 951 l 781 951 l 781 0 m 478 1221 q 522 1204 506 1221 q 539 1163 539 1188 q 522 1121 539 1138 q 478 1104 506 1104 q 435 1121 451 1104 q 418 1163 418 1138 q 435 1204 418 1188 q 478 1221 451 1221 z "},"Ṇ":{"ha":935,"x_min":154,"x_max":781,"o":"m 781 0 l 671 0 l 222 860 q 233 532 233 686 l 233 0 l 154 0 l 154 951 l 261 951 l 713 92 q 701 374 701 253 l 701 951 l 781 951 l 781 0 m 468 -236 q 424 -219 440 -236 q 407 -178 407 -203 q 424 -136 407 -153 q 468 -119 440 -119 q 511 -136 494 -119 q 528 -178 528 -153 q 511 -219 528 -203 q 468 -236 494 -236 z "},"Ǹ":{"ha":935,"x_min":154,"x_max":781,"o":"m 781 0 l 671 0 l 222 860 q 233 532 233 686 l 233 0 l 154 0 l 154 951 l 261 951 l 713 92 q 701 374 701 253 l 701 951 l 781 951 l 781 0 m 621 1100 l 599 1053 l 324 1161 l 360 1233 l 621 1100 z "},"Ŋ":{"ha":935,"x_min":154,"x_max":781,"o":"m 781 951 l 781 -99 q 733 -237 781 -190 q 607 -285 686 -285 q 465 -237 526 -285 l 500 -185 q 548 -208 525 -200 q 604 -217 571 -217 q 672 -189 647 -217 q 697 -100 697 -161 l 697 0 l 671 0 l 222 860 q 233 532 233 686 l 233 0 l 154 0 l 154 951 l 261 951 l 713 92 q 701 374 701 253 l 701 951 l 781 951 z "},"Ɲ":{"ha":935,"x_min":-81,"x_max":781,"o":"m 781 951 l 781 0 l 671 0 l 222 860 q 233 532 233 686 l 233 -100 q 187 -237 233 -190 q 61 -285 140 -285 q -81 -237 -19 -285 l -47 -186 q 2 -210 -21 -201 q 57 -218 25 -218 q 154 -103 154 -218 l 154 951 l 261 951 l 713 92 q 701 374 701 253 l 701 951 l 781 951 z "},"ǋ":{"ha":1310,"x_min":154,"x_max":1182,"o":"m 781 0 l 671 0 l 222 860 q 233 532 233 686 l 233 0 l 154 0 l 154 951 l 261 951 l 713 92 q 701 374 701 253 l 701 951 l 781 951 l 781 0 m 1163 26 q 1142 -124 1163 -68 q 1081 -215 1121 -181 q 967 -282 1040 -249 l 943 -224 q 1024 -172 996 -197 q 1067 -101 1053 -146 q 1082 24 1082 -56 l 1082 726 l 1163 726 l 1163 26 m 1121 1046 q 1165 1029 1149 1046 q 1182 988 1182 1013 q 1165 946 1182 963 q 1121 929 1149 929 q 1078 946 1094 929 q 1061 988 1061 963 q 1078 1029 1061 1013 q 1121 1046 1094 1046 z "},"Ƞ":{"ha":921,"x_min":154,"x_max":776,"o":"m 529 967 q 713 894 650 967 q 776 693 776 822 l 776 -274 l 693 -274 l 693 676 q 515 896 693 896 q 364 856 428 896 q 238 739 300 815 l 238 0 l 154 0 l 154 951 l 226 951 l 235 817 q 529 967 358 967 z "},"Ñ":{"ha":935,"x_min":154,"x_max":781,"o":"m 781 0 l 671 0 l 222 860 q 233 532 233 686 l 233 0 l 154 0 l 154 951 l 261 951 l 713 92 q 701 374 701 253 l 701 951 l 781 951 l 781 0 m 560 1100 q 514 1109 535 1100 q 463 1136 493 1118 q 426 1157 440 1150 q 397 1164 411 1164 q 356 1151 374 1164 q 319 1108 339 1138 l 269 1133 q 397 1228 321 1228 q 441 1219 421 1228 q 486 1194 461 1211 q 526 1172 511 1179 q 560 1165 542 1165 q 599 1179 582 1165 q 638 1225 617 1193 l 688 1200 q 560 1100 639 1100 z "},"O":{"ha":960,"x_min":92,"x_max":868,"o":"m 479 967 q 683 910 596 967 q 819 743 771 854 q 868 475 868 632 q 820 210 868 321 q 685 42 772 100 q 479 -15 597 -15 q 276 42 364 -15 q 140 208 189 99 q 92 474 92 318 q 140 739 92 628 q 277 908 189 850 q 479 967 365 967 m 479 896 q 260 790 340 896 q 179 474 179 683 q 260 161 179 267 q 479 56 342 56 q 701 160 622 56 q 781 475 781 265 q 701 791 781 686 q 479 896 621 896 z "},"Ȣ":{"ha":889,"x_min":92,"x_max":797,"o":"m 601 538 q 747 440 697 507 q 797 278 797 372 q 757 131 797 197 q 638 24 717 64 q 444 -15 558 -15 q 253 23 333 -15 q 133 128 174 61 q 92 276 92 194 q 142 435 92 367 q 288 535 193 504 q 157 760 157 594 l 157 951 l 240 951 l 240 763 q 287 618 240 671 q 444 565 333 565 q 606 619 557 565 q 654 763 654 674 l 654 951 l 738 951 l 738 760 q 703 627 738 685 q 601 538 669 569 m 444 56 q 710 278 710 56 q 644 438 710 382 q 444 494 579 494 q 246 437 313 494 q 179 276 179 379 q 246 113 179 171 q 444 56 313 56 z "},"Ó":{"ha":960,"x_min":92,"x_max":868,"o":"m 479 967 q 683 910 596 967 q 819 743 771 854 q 868 475 868 632 q 820 210 868 321 q 685 42 772 100 q 479 -15 597 -15 q 276 42 364 -15 q 140 208 189 99 q 92 474 92 318 q 140 739 92 628 q 277 908 189 850 q 479 967 365 967 m 479 896 q 260 790 340 896 q 179 474 179 683 q 260 161 179 267 q 479 56 342 56 q 701 160 622 56 q 781 475 781 265 q 701 791 781 686 q 479 896 621 896 m 628 1161 l 353 1053 l 331 1100 l 592 1233 l 628 1161 z "},"Ŏ":{"ha":960,"x_min":92,"x_max":868,"o":"m 479 967 q 683 910 596 967 q 819 743 771 854 q 868 475 868 632 q 820 210 868 321 q 685 42 772 100 q 479 -15 597 -15 q 276 42 364 -15 q 140 208 189 99 q 92 474 92 318 q 140 739 92 628 q 277 908 189 850 q 479 967 365 967 m 479 896 q 260 790 340 896 q 179 474 179 683 q 260 161 179 267 q 479 56 342 56 q 701 160 622 56 q 781 475 781 265 q 701 791 781 686 q 479 896 621 896 m 478 1063 q 357 1102 407 1063 q 297 1201 307 1142 l 353 1214 q 399 1151 367 1174 q 478 1128 431 1128 q 558 1151 525 1128 q 604 1214 590 1174 l 660 1201 q 599 1102 650 1142 q 478 1063 549 1063 z "},"Ǒ":{"ha":960,"x_min":92,"x_max":868,"o":"m 479 967 q 683 910 596 967 q 819 743 771 854 q 868 475 868 632 q 820 210 868 321 q 685 42 772 100 q 479 -15 597 -15 q 276 42 364 -15 q 140 208 189 99 q 92 474 92 318 q 140 739 92 628 q 277 908 189 850 q 479 967 365 967 m 479 896 q 260 790 340 896 q 179 474 179 683 q 260 161 179 267 q 479 56 342 56 q 701 160 622 56 q 781 475 781 265 q 701 791 781 686 q 479 896 621 896 m 683 1190 l 504 1050 l 454 1050 l 274 1190 l 310 1233 l 479 1122 l 647 1233 l 683 1190 z "},"Ɵ":{"ha":960,"x_min":92,"x_max":868,"o":"m 479 967 q 683 910 596 967 q 819 742 771 853 q 868 474 868 632 q 820 210 868 321 q 685 42 772 100 q 479 -15 597 -15 q 276 42 364 -15 q 140 208 189 99 q 92 472 92 318 q 140 738 92 626 q 277 908 189 850 q 479 967 365 967 m 479 896 q 267 801 347 896 q 178 518 188 706 l 782 518 q 694 801 774 707 q 479 896 614 896 m 479 56 q 699 155 619 56 q 783 453 779 254 l 176 453 q 263 156 181 257 q 479 56 344 56 z "},"Ô":{"ha":960,"x_min":92,"x_max":868,"o":"m 479 967 q 683 910 596 967 q 819 743 771 854 q 868 475 868 632 q 820 210 868 321 q 685 42 772 100 q 479 -15 597 -15 q 276 42 364 -15 q 140 208 189 99 q 92 474 92 318 q 140 739 92 628 q 277 908 189 850 q 479 967 365 967 m 479 896 q 260 790 340 896 q 179 474 179 683 q 260 161 179 267 q 479 56 342 56 q 701 160 622 56 q 781 475 781 265 q 701 791 781 686 q 479 896 621 896 m 274 1100 l 454 1242 l 504 1242 l 683 1100 l 647 1058 l 479 1169 l 310 1058 l 274 1100 z "},"Ố":{"ha":960,"x_min":92,"x_max":868,"o":"m 479 967 q 683 910 596 967 q 819 743 771 854 q 868 475 868 632 q 820 210 868 321 q 685 42 772 100 q 479 -15 597 -15 q 276 42 364 -15 q 140 208 189 99 q 92 474 92 318 q 140 739 92 628 q 277 908 189 850 q 479 967 365 967 m 479 896 q 260 790 340 896 q 179 474 179 683 q 260 161 179 267 q 479 56 342 56 q 701 160 622 56 q 781 475 781 265 q 701 791 781 686 q 479 896 621 896 m 272 1051 l 453 1193 l 503 1193 l 682 1051 l 646 1010 l 478 1121 l 308 1010 l 272 1051 m 806 1324 l 638 1157 l 601 1190 l 751 1374 l 806 1324 z "},"Ộ":{"ha":960,"x_min":92,"x_max":868,"o":"m 479 967 q 683 910 596 967 q 819 743 771 854 q 868 475 868 632 q 820 210 868 321 q 685 42 772 100 q 479 -15 597 -15 q 276 42 364 -15 q 140 208 189 99 q 92 474 92 318 q 140 739 92 628 q 277 908 189 850 q 479 967 365 967 m 479 896 q 260 790 340 896 q 179 474 179 683 q 260 161 179 267 q 479 56 342 56 q 701 160 622 56 q 781 475 781 265 q 701 791 781 686 q 479 896 621 896 m 274 1100 l 454 1242 l 504 1242 l 683 1100 l 647 1058 l 479 1169 l 310 1058 l 274 1100 m 479 -236 q 435 -219 451 -236 q 418 -178 418 -203 q 435 -136 418 -153 q 479 -119 451 -119 q 522 -136 506 -119 q 539 -178 539 -153 q 522 -219 539 -203 q 479 -236 506 -236 z "},"Ồ":{"ha":960,"x_min":92,"x_max":868,"o":"m 479 967 q 683 910 596 967 q 819 743 771 854 q 868 475 868 632 q 820 210 868 321 q 685 42 772 100 q 479 -15 597 -15 q 276 42 364 -15 q 140 208 189 99 q 92 474 92 318 q 140 739 92 628 q 277 908 189 850 q 479 967 365 967 m 479 896 q 260 790 340 896 q 179 474 179 683 q 260 161 179 267 q 479 56 342 56 q 701 160 622 56 q 781 475 781 265 q 701 791 781 686 q 479 896 621 896 m 272 1051 l 453 1193 l 503 1193 l 682 1051 l 646 1010 l 478 1121 l 308 1010 l 272 1051 m 360 1190 l 324 1157 l 157 1324 l 210 1374 l 360 1190 z "},"Ổ":{"ha":960,"x_min":92,"x_max":868,"o":"m 479 967 q 683 910 596 967 q 819 743 771 854 q 868 475 868 632 q 820 210 868 321 q 685 42 772 100 q 479 -15 597 -15 q 276 42 364 -15 q 140 208 189 99 q 92 474 92 318 q 140 739 92 628 q 277 908 189 850 q 479 967 365 967 m 479 896 q 260 790 340 896 q 179 474 179 683 q 260 161 179 267 q 479 56 342 56 q 701 160 622 56 q 781 475 781 265 q 701 791 781 686 q 479 896 621 896 m 272 1051 l 453 1193 l 503 1193 l 682 1051 l 646 1010 l 478 1121 l 308 1010 l 272 1051 m 621 1229 q 694 1247 669 1232 q 718 1294 718 1261 q 701 1335 718 1321 q 653 1350 683 1350 q 572 1332 613 1350 l 550 1381 q 663 1410 600 1410 q 757 1379 722 1410 q 792 1299 792 1349 q 688 1192 792 1207 l 688 1128 l 621 1128 l 621 1229 z "},"Ỗ":{"ha":960,"x_min":92,"x_max":868,"o":"m 479 967 q 683 910 596 967 q 819 743 771 854 q 868 475 868 632 q 820 210 868 321 q 685 42 772 100 q 479 -15 597 -15 q 276 42 364 -15 q 140 208 189 99 q 92 474 92 318 q 140 739 92 628 q 277 908 189 850 q 479 967 365 967 m 479 896 q 260 790 340 896 q 179 474 179 683 q 260 161 179 267 q 479 56 342 56 q 701 160 622 56 q 781 475 781 265 q 701 791 781 686 q 479 896 621 896 m 272 1051 l 453 1193 l 503 1193 l 682 1051 l 646 1010 l 478 1121 l 308 1010 l 272 1051 m 560 1244 q 514 1253 535 1244 q 463 1281 493 1263 q 426 1301 440 1294 q 397 1308 411 1308 q 356 1295 374 1308 q 319 1253 339 1282 l 269 1278 q 397 1372 321 1372 q 441 1364 421 1372 q 486 1339 461 1356 q 526 1317 511 1324 q 560 1310 542 1310 q 599 1324 582 1310 q 638 1369 617 1338 l 688 1344 q 560 1244 639 1244 z "},"Ȍ":{"ha":960,"x_min":92,"x_max":868,"o":"m 479 967 q 683 910 596 967 q 819 743 771 854 q 868 475 868 632 q 820 210 868 321 q 685 42 772 100 q 479 -15 597 -15 q 276 42 364 -15 q 140 208 189 99 q 92 474 92 318 q 140 739 92 628 q 277 908 189 850 q 479 967 365 967 m 479 896 q 260 790 340 896 q 179 474 179 683 q 260 161 179 267 q 479 56 342 56 q 701 160 622 56 q 781 475 781 265 q 701 791 781 686 q 479 896 621 896 m 425 1092 l 372 1067 l 243 1264 l 315 1301 l 425 1092 m 593 1097 l 540 1074 l 424 1263 l 496 1301 l 593 1097 z "},"Ö":{"ha":960,"x_min":92,"x_max":868,"o":"m 479 967 q 683 910 596 967 q 819 743 771 854 q 868 475 868 632 q 820 210 868 321 q 685 42 772 100 q 479 -15 597 -15 q 276 42 364 -15 q 140 208 189 99 q 92 474 92 318 q 140 739 92 628 q 277 908 189 850 q 479 967 365 967 m 479 896 q 260 790 340 896 q 179 474 179 683 q 260 161 179 267 q 479 56 342 56 q 701 160 622 56 q 781 475 781 265 q 701 791 781 686 q 479 896 621 896 m 347 1206 q 387 1190 371 1206 q 403 1150 403 1174 q 387 1111 403 1126 q 347 1096 371 1096 q 308 1111 324 1096 q 292 1150 292 1126 q 308 1190 292 1174 q 347 1206 324 1206 m 610 1206 q 649 1190 633 1206 q 665 1150 665 1174 q 649 1111 665 1126 q 610 1096 633 1096 q 570 1111 586 1096 q 554 1150 554 1126 q 570 1190 554 1174 q 610 1206 586 1206 z "},"Ȫ":{"ha":960,"x_min":92,"x_max":868,"o":"m 479 967 q 683 910 596 967 q 819 743 771 854 q 868 475 868 632 q 820 210 868 321 q 685 42 772 100 q 479 -15 597 -15 q 276 42 364 -15 q 140 208 189 99 q 92 474 92 318 q 140 739 92 628 q 277 908 189 850 q 479 967 365 967 m 479 896 q 260 790 340 896 q 179 474 179 683 q 260 161 179 267 q 479 56 342 56 q 701 160 622 56 q 781 475 781 265 q 701 791 781 686 q 479 896 621 896 m 347 1143 q 387 1127 371 1143 q 403 1088 403 1111 q 387 1049 403 1064 q 347 1033 371 1033 q 308 1049 324 1033 q 292 1088 292 1064 q 308 1127 292 1111 q 347 1143 324 1143 m 610 1143 q 649 1127 633 1143 q 665 1088 665 1111 q 649 1049 665 1064 q 610 1033 633 1033 q 570 1049 586 1033 q 554 1088 554 1064 q 570 1127 554 1111 q 610 1143 586 1143 m 314 1219 l 314 1285 l 649 1285 l 649 1219 l 314 1219 z "},"Ȯ":{"ha":960,"x_min":92,"x_max":868,"o":"m 479 967 q 683 910 596 967 q 819 743 771 854 q 868 475 868 632 q 820 210 868 321 q 685 42 772 100 q 479 -15 597 -15 q 276 42 364 -15 q 140 208 189 99 q 92 474 92 318 q 140 739 92 628 q 277 908 189 850 q 479 967 365 967 m 479 896 q 260 790 340 896 q 179 474 179 683 q 260 161 179 267 q 479 56 342 56 q 701 160 622 56 q 781 475 781 265 q 701 791 781 686 q 479 896 621 896 m 478 1221 q 522 1204 506 1221 q 539 1163 539 1188 q 522 1121 539 1138 q 478 1104 506 1104 q 435 1121 451 1104 q 418 1163 418 1138 q 435 1204 418 1188 q 478 1221 451 1221 z "},"Ȱ":{"ha":960,"x_min":92,"x_max":868,"o":"m 479 967 q 683 910 596 967 q 819 743 771 854 q 868 475 868 632 q 820 210 868 321 q 685 42 772 100 q 479 -15 597 -15 q 276 42 364 -15 q 140 208 189 99 q 92 474 92 318 q 140 739 92 628 q 277 908 189 850 q 479 967 365 967 m 479 896 q 260 790 340 896 q 179 474 179 683 q 260 161 179 267 q 479 56 342 56 q 701 160 622 56 q 781 475 781 265 q 701 791 781 686 q 479 896 621 896 m 481 1147 q 525 1131 508 1147 q 542 1089 542 1114 q 525 1047 542 1064 q 481 1031 508 1031 q 438 1047 454 1031 q 421 1089 421 1064 q 438 1131 421 1114 q 481 1147 454 1147 m 315 1219 l 315 1285 l 650 1285 l 650 1219 l 315 1219 z "},"Ọ":{"ha":960,"x_min":92,"x_max":868,"o":"m 479 967 q 683 910 596 967 q 819 743 771 854 q 868 475 868 632 q 820 210 868 321 q 685 42 772 100 q 479 -15 597 -15 q 276 42 364 -15 q 140 208 189 99 q 92 474 92 318 q 140 739 92 628 q 277 908 189 850 q 479 967 365 967 m 479 896 q 260 790 340 896 q 179 474 179 683 q 260 161 179 267 q 479 56 342 56 q 701 160 622 56 q 781 475 781 265 q 701 791 781 686 q 479 896 621 896 m 479 -236 q 435 -219 451 -236 q 418 -178 418 -203 q 435 -136 418 -153 q 479 -119 451 -119 q 522 -136 506 -119 q 539 -178 539 -153 q 522 -219 539 -203 q 479 -236 506 -236 z "},"Ò":{"ha":960,"x_min":92,"x_max":868,"o":"m 479 967 q 683 910 596 967 q 819 743 771 854 q 868 475 868 632 q 820 210 868 321 q 685 42 772 100 q 479 -15 597 -15 q 276 42 364 -15 q 140 208 189 99 q 92 474 92 318 q 140 739 92 628 q 277 908 189 850 q 479 967 365 967 m 479 896 q 260 790 340 896 q 179 474 179 683 q 260 161 179 267 q 479 56 342 56 q 701 160 622 56 q 781 475 781 265 q 701 791 781 686 q 479 896 621 896 m 621 1100 l 599 1053 l 324 1161 l 360 1233 l 621 1100 z "},"Ỏ":{"ha":960,"x_min":92,"x_max":868,"o":"m 479 967 q 683 910 596 967 q 819 743 771 854 q 868 475 868 632 q 820 210 868 321 q 685 42 772 100 q 479 -15 597 -15 q 276 42 364 -15 q 140 208 189 99 q 92 474 92 318 q 140 739 92 628 q 277 908 189 850 q 479 967 365 967 m 479 896 q 260 790 340 896 q 179 474 179 683 q 260 161 179 267 q 479 56 342 56 q 701 160 622 56 q 781 475 781 265 q 701 791 781 686 q 479 896 621 896 m 446 1176 q 519 1194 494 1179 q 543 1242 543 1208 q 526 1283 543 1268 q 478 1297 508 1297 q 397 1279 438 1297 l 375 1328 q 488 1357 425 1357 q 582 1326 547 1357 q 617 1246 617 1296 q 513 1139 617 1154 l 513 1075 l 446 1075 l 446 1176 z "},"Ơ":{"ha":960,"x_min":92,"x_max":881,"o":"m 881 956 q 771 828 881 847 q 868 475 868 700 q 820 210 868 321 q 685 42 772 100 q 479 -15 597 -15 q 276 42 364 -15 q 140 208 189 99 q 92 474 92 318 q 140 739 92 628 q 277 908 189 850 q 479 967 365 967 q 731 874 631 967 q 792 899 772 879 q 811 953 811 918 q 792 1053 811 1004 l 856 1069 q 881 956 881 1022 m 479 56 q 701 160 622 56 q 781 475 781 265 q 701 791 781 686 q 479 896 621 896 q 260 790 340 896 q 179 474 179 683 q 260 161 179 267 q 479 56 342 56 z "},"Ớ":{"ha":960,"x_min":92,"x_max":881,"o":"m 353 1053 l 331 1100 l 592 1233 l 628 1161 l 353 1053 m 881 956 q 771 828 881 847 q 868 475 868 700 q 820 210 868 321 q 685 42 772 100 q 479 -15 597 -15 q 276 42 364 -15 q 140 208 189 99 q 92 474 92 318 q 140 739 92 628 q 277 908 189 850 q 479 967 365 967 q 731 874 631 967 q 792 899 772 879 q 811 953 811 918 q 792 1053 811 1004 l 856 1069 q 881 956 881 1022 m 479 56 q 701 160 622 56 q 781 475 781 265 q 701 791 781 686 q 479 896 621 896 q 260 790 340 896 q 179 474 179 683 q 260 161 179 267 q 479 56 342 56 z "},"Ợ":{"ha":960,"x_min":92,"x_max":881,"o":"m 881 956 q 771 828 881 847 q 868 475 868 700 q 820 210 868 321 q 685 42 772 100 q 479 -15 597 -15 q 276 42 364 -15 q 140 208 189 99 q 92 474 92 318 q 140 739 92 628 q 277 908 189 850 q 479 967 365 967 q 731 874 631 967 q 792 899 772 879 q 811 953 811 918 q 792 1053 811 1004 l 856 1069 q 881 956 881 1022 m 479 56 q 701 160 622 56 q 781 475 781 265 q 701 791 781 686 q 479 896 621 896 q 260 790 340 896 q 179 474 179 683 q 260 161 179 267 q 479 56 342 56 m 479 -119 q 522 -136 506 -119 q 539 -178 539 -153 q 522 -219 539 -203 q 479 -236 506 -236 q 435 -219 451 -236 q 418 -178 418 -203 q 435 -136 418 -153 q 479 -119 451 -119 z "},"Ờ":{"ha":960,"x_min":92,"x_max":881,"o":"m 599 1053 l 324 1161 l 360 1233 l 621 1100 l 599 1053 m 881 956 q 771 828 881 847 q 868 475 868 700 q 820 210 868 321 q 685 42 772 100 q 479 -15 597 -15 q 276 42 364 -15 q 140 208 189 99 q 92 474 92 318 q 140 739 92 628 q 277 908 189 850 q 479 967 365 967 q 731 874 631 967 q 792 899 772 879 q 811 953 811 918 q 792 1053 811 1004 l 856 1069 q 881 956 881 1022 m 479 56 q 701 160 622 56 q 781 475 781 265 q 701 791 781 686 q 479 896 621 896 q 260 790 340 896 q 179 474 179 683 q 260 161 179 267 q 479 56 342 56 z "},"Ở":{"ha":960,"x_min":92,"x_max":881,"o":"m 478 1297 q 397 1279 438 1297 l 375 1328 q 488 1357 425 1357 q 582 1326 547 1357 q 617 1246 617 1296 q 513 1139 617 1154 l 513 1075 l 446 1075 l 446 1176 q 519 1194 494 1179 q 543 1242 543 1208 q 526 1283 543 1268 q 478 1297 508 1297 m 881 956 q 771 828 881 847 q 868 475 868 700 q 820 210 868 321 q 685 42 772 100 q 479 -15 597 -15 q 276 42 364 -15 q 140 208 189 99 q 92 474 92 318 q 140 739 92 628 q 277 908 189 850 q 479 967 365 967 q 731 874 631 967 q 792 899 772 879 q 811 953 811 918 q 792 1053 811 1004 l 856 1069 q 881 956 881 1022 m 479 56 q 701 160 622 56 q 781 475 781 265 q 701 791 781 686 q 479 896 621 896 q 260 790 340 896 q 179 474 179 683 q 260 161 179 267 q 479 56 342 56 z "},"Ỡ":{"ha":960,"x_min":92,"x_max":881,"o":"m 397 1164 q 356 1151 374 1164 q 319 1108 339 1138 l 269 1133 q 397 1228 321 1228 q 441 1219 421 1228 q 486 1194 461 1211 q 526 1172 511 1179 q 560 1165 542 1165 q 599 1179 582 1165 q 638 1225 617 1193 l 688 1200 q 560 1100 639 1100 q 514 1109 535 1100 q 463 1136 493 1118 q 426 1157 440 1150 q 397 1164 411 1164 m 881 956 q 771 828 881 847 q 868 475 868 700 q 820 210 868 321 q 685 42 772 100 q 479 -15 597 -15 q 276 42 364 -15 q 140 208 189 99 q 92 474 92 318 q 140 739 92 628 q 277 908 189 850 q 479 967 365 967 q 731 874 631 967 q 792 899 772 879 q 811 953 811 918 q 792 1053 811 1004 l 856 1069 q 881 956 881 1022 m 479 56 q 701 160 622 56 q 781 475 781 265 q 701 791 781 686 q 479 896 621 896 q 260 790 340 896 q 179 474 179 683 q 260 161 179 267 q 479 56 342 56 z "},"Ő":{"ha":960,"x_min":92,"x_max":868,"o":"m 479 967 q 683 910 596 967 q 819 743 771 854 q 868 475 868 632 q 820 210 868 321 q 685 42 772 100 q 479 -15 597 -15 q 276 42 364 -15 q 140 208 189 99 q 92 474 92 318 q 140 739 92 628 q 277 908 189 850 q 479 967 365 967 m 479 896 q 260 790 340 896 q 179 474 179 683 q 260 161 179 267 q 479 56 342 56 q 701 160 622 56 q 781 475 781 265 q 701 791 781 686 q 479 896 621 896 m 522 1263 l 404 1074 l 351 1097 l 450 1301 l 522 1263 m 701 1264 l 572 1067 l 519 1092 l 629 1301 l 701 1264 z "},"Ƣ":{"ha":1254,"x_min":92,"x_max":1100,"o":"m 903 968 q 1049 918 999 968 q 1100 768 1100 868 l 1100 -274 l 1017 -274 l 1017 769 q 987 871 1017 840 q 899 901 957 901 q 820 890 857 901 q 744 857 783 879 q 836 698 804 794 q 868 475 868 601 q 820 210 868 321 q 685 42 772 100 q 479 -15 597 -15 q 276 42 364 -15 q 140 208 189 99 q 92 474 92 318 q 140 739 92 628 q 277 908 189 850 q 479 967 365 967 q 697 900 606 967 q 797 950 747 932 q 903 968 846 968 m 479 56 q 701 160 622 56 q 781 475 781 265 q 701 791 781 686 q 479 896 621 896 q 260 790 340 896 q 179 474 179 683 q 260 161 179 267 q 479 56 342 56 z "},"Ȏ":{"ha":960,"x_min":92,"x_max":868,"o":"m 479 967 q 683 910 596 967 q 819 743 771 854 q 868 475 868 632 q 820 210 868 321 q 685 42 772 100 q 479 -15 597 -15 q 276 42 364 -15 q 140 208 189 99 q 92 474 92 318 q 140 739 92 628 q 277 908 189 850 q 479 967 365 967 m 479 896 q 260 790 340 896 q 179 474 179 683 q 260 161 179 267 q 479 56 342 56 q 701 160 622 56 q 781 475 781 265 q 701 791 781 686 q 479 896 621 896 m 478 1256 q 600 1214 550 1256 q 660 1103 650 1172 l 604 1090 q 478 1190 576 1190 q 353 1090 381 1190 l 297 1103 q 356 1214 307 1172 q 478 1256 406 1256 z "},"Ō":{"ha":960,"x_min":92,"x_max":868,"o":"m 479 967 q 683 910 596 967 q 819 743 771 854 q 868 475 868 632 q 820 210 868 321 q 685 42 772 100 q 479 -15 597 -15 q 276 42 364 -15 q 140 208 189 99 q 92 474 92 318 q 140 739 92 628 q 277 908 189 850 q 479 967 365 967 m 479 896 q 260 790 340 896 q 179 474 179 683 q 260 161 179 267 q 479 56 342 56 q 701 160 622 56 q 781 475 781 265 q 701 791 781 686 q 479 896 621 896 m 311 1114 l 311 1179 l 646 1179 l 646 1114 l 311 1114 z "},"Ṓ":{"ha":960,"x_min":92,"x_max":868,"o":"m 479 967 q 683 910 596 967 q 819 743 771 854 q 868 475 868 632 q 820 210 868 321 q 685 42 772 100 q 479 -15 597 -15 q 276 42 364 -15 q 140 208 189 99 q 92 474 92 318 q 140 739 92 628 q 277 908 189 850 q 479 967 365 967 m 479 896 q 260 790 340 896 q 179 474 179 683 q 260 161 179 267 q 479 56 342 56 q 701 160 622 56 q 781 475 781 265 q 701 791 781 686 q 479 896 621 896 m 311 1060 l 311 1125 l 646 1125 l 646 1060 l 311 1060 m 628 1299 l 353 1190 l 331 1238 l 592 1371 l 628 1299 z "},"Ṑ":{"ha":960,"x_min":92,"x_max":868,"o":"m 628 1238 l 606 1190 l 331 1299 l 367 1371 l 628 1238 m 311 1060 l 311 1125 l 646 1125 l 646 1060 l 311 1060 m 479 967 q 683 910 596 967 q 819 743 771 854 q 868 475 868 632 q 820 210 868 321 q 685 42 772 100 q 479 -15 597 -15 q 276 42 364 -15 q 140 208 189 99 q 92 474 92 318 q 140 739 92 628 q 277 908 189 850 q 479 967 365 967 m 479 896 q 260 790 340 896 q 179 474 179 683 q 260 161 179 267 q 479 56 342 56 q 701 160 622 56 q 781 475 781 265 q 701 791 781 686 q 479 896 621 896 z "},"Ꞷ":{"ha":1165,"x_min":99,"x_max":1067,"o":"m 964 951 q 1041 695 1015 815 q 1067 404 1067 575 q 994 81 1067 176 q 789 -15 921 -15 q 651 25 701 -15 q 581 149 601 65 q 506 26 557 67 q 372 -15 456 -15 q 169 84 239 -15 q 99 406 99 183 q 125 690 99 572 q 204 951 151 807 l 288 951 q 206 688 231 808 q 182 408 182 568 q 231 135 182 214 q 376 56 279 56 q 495 104 453 56 q 538 271 538 153 l 538 551 l 621 551 l 621 271 q 664 103 621 151 q 785 56 707 56 q 890 85 847 56 q 958 191 933 114 q 983 406 983 268 q 959 685 983 565 q 881 951 935 806 l 964 951 z "},"Ǫ":{"ha":960,"x_min":92,"x_max":868,"o":"m 868 475 q 795 160 868 283 q 593 0 722 38 q 462 -78 500 -42 q 424 -164 424 -115 q 445 -217 424 -197 q 511 -236 467 -236 q 592 -226 549 -236 l 583 -293 q 503 -303 535 -303 q 389 -267 429 -303 q 349 -175 349 -232 q 377 -87 349 -126 q 464 -15 406 -49 q 269 47 353 -11 q 138 213 185 104 q 92 474 92 322 q 140 739 92 628 q 277 908 189 850 q 479 967 365 967 q 683 910 596 967 q 819 743 771 854 q 868 475 868 632 m 479 56 q 701 160 622 56 q 781 475 781 265 q 701 791 781 686 q 479 896 621 896 q 260 790 340 896 q 179 474 179 683 q 260 161 179 267 q 479 56 342 56 z "},"Ǭ":{"ha":960,"x_min":92,"x_max":868,"o":"m 646 1114 l 311 1114 l 311 1179 l 646 1179 l 646 1114 m 868 475 q 795 160 868 283 q 593 0 722 38 q 462 -78 500 -42 q 424 -164 424 -115 q 445 -217 424 -197 q 511 -236 467 -236 q 592 -226 549 -236 l 583 -293 q 503 -303 535 -303 q 389 -267 429 -303 q 349 -175 349 -232 q 377 -87 349 -126 q 464 -15 406 -49 q 269 47 353 -11 q 138 213 185 104 q 92 474 92 322 q 140 739 92 628 q 277 908 189 850 q 479 967 365 967 q 683 910 596 967 q 819 743 771 854 q 868 475 868 632 m 479 56 q 701 160 622 56 q 781 475 781 265 q 701 791 781 686 q 479 896 621 896 q 260 790 340 896 q 179 474 179 683 q 260 161 179 267 q 479 56 342 56 z "},"Ɔ":{"ha":764,"x_min":32,"x_max":672,"o":"m 314 967 q 503 911 422 967 q 628 746 583 856 q 672 476 672 636 q 623 210 672 321 q 488 42 574 99 q 290 -15 401 -15 q 32 83 140 -15 l 76 136 q 177 78 131 97 q 289 58 224 58 q 440 103 374 58 q 546 243 507 149 q 585 476 585 338 q 510 794 585 692 q 308 896 435 896 q 86 825 189 896 l 43 879 q 314 967 160 967 z "},"Ø":{"ha":960,"x_min":92,"x_max":868,"o":"m 651 929 q 811 762 754 878 q 868 475 868 646 q 820 210 868 321 q 685 42 772 100 q 479 -15 597 -15 q 371 -1 421 -15 l 326 -167 l 253 -146 l 307 24 q 148 191 204 76 q 92 474 92 306 q 140 739 92 628 q 277 908 189 850 q 479 967 365 967 q 585 954 535 967 l 633 1125 l 707 1106 l 651 929 m 179 474 q 219 231 179 326 q 335 92 260 136 l 569 883 q 479 896 528 896 q 260 790 340 896 q 179 474 179 683 m 479 56 q 701 160 622 56 q 781 475 781 265 q 622 863 781 775 l 388 68 q 479 56 429 56 z "},"Ǿ":{"ha":960,"x_min":92,"x_max":868,"o":"m 651 929 q 811 762 754 878 q 868 475 868 646 q 820 210 868 321 q 685 42 772 100 q 479 -15 597 -15 q 371 -1 421 -15 l 326 -167 l 253 -146 l 307 24 q 148 191 204 76 q 92 474 92 306 q 140 739 92 628 q 277 908 189 850 q 479 967 365 967 q 585 954 535 967 l 633 1125 l 707 1106 l 651 929 m 179 474 q 219 231 179 326 q 335 92 260 136 l 569 883 q 479 896 528 896 q 260 790 340 896 q 179 474 179 683 m 479 56 q 701 160 622 56 q 781 475 781 265 q 622 863 781 775 l 388 68 q 479 56 429 56 m 619 1178 l 344 1069 l 322 1117 l 583 1250 l 619 1178 z "},"Õ":{"ha":960,"x_min":92,"x_max":868,"o":"m 479 967 q 683 910 596 967 q 819 743 771 854 q 868 475 868 632 q 820 210 868 321 q 685 42 772 100 q 479 -15 597 -15 q 276 42 364 -15 q 140 208 189 99 q 92 474 92 318 q 140 739 92 628 q 277 908 189 850 q 479 967 365 967 m 479 896 q 260 790 340 896 q 179 474 179 683 q 260 161 179 267 q 479 56 342 56 q 701 160 622 56 q 781 475 781 265 q 701 791 781 686 q 479 896 621 896 m 560 1100 q 514 1109 535 1100 q 463 1136 493 1118 q 426 1157 440 1150 q 397 1164 411 1164 q 356 1151 374 1164 q 319 1108 339 1138 l 269 1133 q 397 1228 321 1228 q 441 1219 421 1228 q 486 1194 461 1211 q 526 1172 511 1179 q 560 1165 542 1165 q 599 1179 582 1165 q 638 1225 617 1193 l 688 1200 q 560 1100 639 1100 z "},"Ṍ":{"ha":960,"x_min":92,"x_max":868,"o":"m 479 967 q 683 910 596 967 q 819 743 771 854 q 868 475 868 632 q 820 210 868 321 q 685 42 772 100 q 479 -15 597 -15 q 276 42 364 -15 q 140 208 189 99 q 92 474 92 318 q 140 739 92 628 q 277 908 189 850 q 479 967 365 967 m 479 896 q 260 790 340 896 q 179 474 179 683 q 260 161 179 267 q 479 56 342 56 q 701 160 622 56 q 781 475 781 265 q 701 791 781 686 q 479 896 621 896 m 560 1051 q 514 1060 535 1051 q 463 1088 493 1069 q 426 1108 440 1101 q 397 1115 411 1115 q 356 1102 374 1115 q 319 1060 339 1089 l 269 1085 q 397 1179 321 1179 q 441 1171 421 1179 q 486 1146 461 1163 q 526 1124 511 1131 q 560 1117 542 1117 q 599 1131 582 1117 q 638 1176 617 1144 l 688 1151 q 560 1051 639 1051 m 628 1329 l 353 1221 l 331 1268 l 592 1401 l 628 1329 z "},"Ȭ":{"ha":960,"x_min":92,"x_max":868,"o":"m 479 967 q 683 910 596 967 q 819 743 771 854 q 868 475 868 632 q 820 210 868 321 q 685 42 772 100 q 479 -15 597 -15 q 276 42 364 -15 q 140 208 189 99 q 92 474 92 318 q 140 739 92 628 q 277 908 189 850 q 479 967 365 967 m 479 896 q 260 790 340 896 q 179 474 179 683 q 260 161 179 267 q 479 56 342 56 q 701 160 622 56 q 781 475 781 265 q 701 791 781 686 q 479 896 621 896 m 560 1051 q 514 1060 535 1051 q 463 1088 493 1069 q 426 1108 440 1101 q 397 1115 411 1115 q 356 1102 374 1115 q 319 1060 339 1089 l 269 1085 q 397 1179 321 1179 q 441 1171 421 1179 q 486 1146 461 1163 q 526 1124 511 1131 q 560 1117 542 1117 q 599 1131 582 1117 q 638 1176 617 1144 l 688 1151 q 560 1051 639 1051 m 307 1242 l 307 1307 l 642 1307 l 642 1242 l 307 1242 z "},"Œ":{"ha":1208,"x_min":92,"x_max":1144,"o":"m 1144 0 l 560 0 q 464 -15 514 -15 q 272 42 356 -15 q 140 209 188 99 q 92 474 92 319 q 140 738 92 626 q 272 908 188 850 q 464 967 357 967 q 564 951 515 967 l 1135 951 l 1125 882 l 685 882 q 793 738 753 828 q 839 528 833 649 l 1072 528 l 1072 458 l 840 458 q 796 226 838 325 q 679 69 754 126 l 1144 69 l 1144 0 m 179 474 q 216 242 179 336 q 317 101 253 147 q 465 56 382 56 q 676 163 599 56 q 753 482 753 269 q 675 791 753 686 q 465 896 597 896 q 258 789 336 896 q 179 474 179 682 z "},"P":{"ha":792,"x_min":154,"x_max":729,"o":"m 378 951 q 638 881 547 951 q 729 667 729 811 q 634 442 729 514 q 374 371 539 371 l 238 371 l 238 0 l 154 0 l 154 951 l 378 951 m 374 439 q 572 490 503 439 q 642 665 642 542 q 574 833 642 782 q 376 883 507 883 l 238 883 l 238 439 l 374 439 z "},"Ṕ":{"ha":792,"x_min":154,"x_max":729,"o":"m 378 951 q 638 881 547 951 q 729 667 729 811 q 634 442 729 514 q 374 371 539 371 l 238 371 l 238 0 l 154 0 l 154 951 l 378 951 m 374 439 q 572 490 503 439 q 642 665 642 542 q 574 833 642 782 q 376 883 507 883 l 238 883 l 238 439 l 374 439 m 546 1161 l 271 1053 l 249 1100 l 510 1233 l 546 1161 z "},"Ṗ":{"ha":792,"x_min":154,"x_max":729,"o":"m 378 951 q 638 881 547 951 q 729 667 729 811 q 634 442 729 514 q 374 371 539 371 l 238 371 l 238 0 l 154 0 l 154 951 l 378 951 m 374 439 q 572 490 503 439 q 642 665 642 542 q 574 833 642 782 q 376 883 507 883 l 238 883 l 238 439 l 374 439 m 396 1221 q 440 1204 424 1221 q 457 1163 457 1188 q 440 1121 457 1138 q 396 1104 424 1104 q 353 1121 369 1104 q 336 1163 336 1138 q 353 1204 336 1188 q 396 1221 369 1221 z "},"Ƥ":{"ha":875,"x_min":21,"x_max":813,"o":"m 461 951 q 722 881 631 951 q 813 667 813 811 q 717 442 813 514 q 457 371 622 371 l 321 371 l 321 0 l 238 0 l 238 883 l 197 883 q 123 860 147 883 q 99 796 99 836 q 106 746 99 768 q 129 692 114 724 l 71 661 q 33 728 46 699 q 21 797 21 757 q 68 909 21 867 q 203 951 115 951 l 461 951 m 457 439 q 656 490 586 439 q 725 665 725 542 q 658 833 725 782 q 460 883 590 883 l 321 883 l 321 439 l 457 439 z "},"Þ":{"ha":792,"x_min":154,"x_max":729,"o":"m 378 782 q 639 711 549 782 q 729 494 729 640 q 634 263 729 336 q 374 189 539 189 l 238 189 l 238 0 l 154 0 l 154 951 l 238 951 l 238 782 l 378 782 m 374 258 q 572 310 503 258 q 642 493 642 363 q 575 662 642 611 q 376 713 508 713 l 238 713 l 238 258 l 374 258 z "},"Q":{"ha":958,"x_min":92,"x_max":901,"o":"m 628 33 q 777 9 707 32 q 901 -58 847 -14 l 846 -129 q 690 -37 771 -62 q 479 -12 610 -12 q 276 44 364 -12 q 140 209 189 100 q 92 474 92 318 q 140 739 92 628 q 277 908 189 850 q 479 967 365 967 q 683 910 596 967 q 819 743 771 854 q 868 475 868 632 q 628 33 868 121 m 179 474 q 260 161 179 267 q 479 56 342 56 q 701 160 622 56 q 781 475 781 265 q 701 791 781 686 q 479 896 621 896 q 260 790 340 896 q 179 474 179 683 z "},"Ɋ":{"ha":917,"x_min":92,"x_max":994,"o":"m 994 -237 q 853 -285 933 -285 q 726 -237 774 -285 q 679 -99 679 -190 l 679 79 q 451 -15 589 -15 q 267 38 349 -15 q 139 199 186 92 q 92 457 92 306 q 139 732 92 617 q 269 907 186 847 q 454 967 351 967 q 682 871 593 967 l 689 951 l 763 951 l 763 -100 q 788 -189 763 -161 q 856 -217 813 -217 q 912 -208 889 -217 q 960 -185 935 -200 l 994 -237 m 457 56 q 679 157 590 56 l 679 797 q 461 896 593 896 q 256 785 333 896 q 179 457 179 675 q 256 156 179 257 q 457 56 333 56 z "},"R":{"ha":819,"x_min":154,"x_max":772,"o":"m 428 426 l 238 426 l 238 0 l 154 0 l 154 951 l 385 951 q 724 693 724 951 q 669 529 724 590 q 511 442 615 468 l 772 0 l 672 0 l 428 426 m 396 494 q 635 693 635 494 q 575 837 635 790 q 382 883 515 883 l 238 883 l 238 494 l 396 494 z "},"Ŕ":{"ha":819,"x_min":154,"x_max":772,"o":"m 428 426 l 238 426 l 238 0 l 154 0 l 154 951 l 385 951 q 724 693 724 951 q 669 529 724 590 q 511 442 615 468 l 772 0 l 672 0 l 428 426 m 396 494 q 635 693 635 494 q 575 837 635 790 q 382 883 515 883 l 238 883 l 238 494 l 396 494 m 553 1161 l 278 1053 l 256 1100 l 517 1233 l 553 1161 z "},"Ř":{"ha":819,"x_min":154,"x_max":772,"o":"m 428 426 l 238 426 l 238 0 l 154 0 l 154 951 l 385 951 q 724 693 724 951 q 669 529 724 590 q 511 442 615 468 l 772 0 l 672 0 l 428 426 m 396 494 q 635 693 635 494 q 575 837 635 790 q 382 883 515 883 l 238 883 l 238 494 l 396 494 m 608 1190 l 429 1050 l 379 1050 l 199 1190 l 235 1233 l 404 1122 l 572 1233 l 608 1190 z "},"Ŗ":{"ha":819,"x_min":154,"x_max":772,"o":"m 428 426 l 238 426 l 238 0 l 154 0 l 154 951 l 385 951 q 724 693 724 951 q 669 529 724 590 q 511 442 615 468 l 772 0 l 672 0 l 428 426 m 396 494 q 635 693 635 494 q 575 837 635 790 q 382 883 515 883 l 238 883 l 238 494 l 396 494 m 426 -118 q 470 -135 453 -118 q 488 -176 488 -151 q 481 -211 488 -193 q 456 -268 475 -229 l 400 -387 l 351 -387 l 396 -229 q 365 -176 365 -210 q 383 -135 365 -151 q 426 -118 400 -118 z "},"Ȑ":{"ha":819,"x_min":154,"x_max":772,"o":"m 428 426 l 238 426 l 238 0 l 154 0 l 154 951 l 385 951 q 724 693 724 951 q 669 529 724 590 q 511 442 615 468 l 772 0 l 672 0 l 428 426 m 396 494 q 635 693 635 494 q 575 837 635 790 q 382 883 515 883 l 238 883 l 238 494 l 396 494 m 350 1092 l 297 1067 l 168 1264 l 240 1301 l 350 1092 m 518 1097 l 465 1074 l 349 1263 l 421 1301 l 518 1097 z "},"Ṛ":{"ha":819,"x_min":154,"x_max":772,"o":"m 428 426 l 238 426 l 238 0 l 154 0 l 154 951 l 385 951 q 724 693 724 951 q 669 529 724 590 q 511 442 615 468 l 772 0 l 672 0 l 428 426 m 396 494 q 635 693 635 494 q 575 837 635 790 q 382 883 515 883 l 238 883 l 238 494 l 396 494 m 426 -236 q 382 -219 399 -236 q 365 -178 365 -203 q 382 -136 365 -153 q 426 -119 399 -119 q 469 -136 453 -119 q 486 -178 486 -153 q 469 -219 486 -203 q 426 -236 453 -236 z "},"Ȓ":{"ha":819,"x_min":154,"x_max":772,"o":"m 428 426 l 238 426 l 238 0 l 154 0 l 154 951 l 385 951 q 724 693 724 951 q 669 529 724 590 q 511 442 615 468 l 772 0 l 672 0 l 428 426 m 396 494 q 635 693 635 494 q 575 837 635 790 q 382 883 515 883 l 238 883 l 238 494 l 396 494 m 403 1256 q 525 1214 475 1256 q 585 1103 575 1172 l 529 1090 q 403 1190 501 1190 q 278 1090 306 1190 l 222 1103 q 281 1214 232 1172 q 403 1256 331 1256 z "},"Ɍ":{"ha":822,"x_min":32,"x_max":776,"o":"m 676 0 l 432 426 l 242 426 l 242 0 l 158 0 l 158 426 l 32 426 l 32 494 l 158 494 l 158 951 l 389 951 q 728 693 728 951 q 674 529 728 590 q 515 442 619 468 l 776 0 l 676 0 m 400 494 q 639 693 639 494 q 579 837 639 790 q 386 883 519 883 l 242 883 l 242 494 l 400 494 z "},"Ɽ":{"ha":819,"x_min":154,"x_max":772,"o":"m 238 -100 q 263 -189 238 -161 q 331 -217 288 -217 q 387 -208 364 -217 q 435 -185 410 -200 l 469 -237 q 328 -285 408 -285 q 201 -237 249 -285 q 154 -99 154 -190 l 154 951 l 385 951 q 724 693 724 951 q 669 529 724 590 q 511 442 615 468 l 772 0 l 672 0 l 428 426 l 238 426 l 238 -100 m 238 883 l 238 494 l 396 494 q 635 693 635 494 q 575 837 635 790 q 382 883 515 883 l 238 883 z "},"S":{"ha":749,"x_min":54,"x_max":674,"o":"m 371 967 q 522 941 458 967 q 644 861 585 915 l 596 808 q 490 875 542 854 q 374 896 439 896 q 231 852 285 896 q 176 735 176 808 q 197 652 176 685 q 264 594 217 619 q 399 542 311 568 q 551 479 493 513 q 642 393 610 446 q 674 260 674 340 q 635 117 674 179 q 524 19 596 54 q 358 -15 453 -15 q 54 104 181 -15 l 101 157 q 219 81 160 107 q 357 56 279 56 q 524 110 460 56 q 589 257 589 164 q 567 353 589 315 q 498 417 546 390 q 363 472 450 444 q 154 575 217 517 q 92 733 92 633 q 127 853 92 800 q 226 937 163 907 q 371 967 289 967 z "},"Ś":{"ha":749,"x_min":54,"x_max":674,"o":"m 371 967 q 522 941 458 967 q 644 861 585 915 l 596 808 q 490 875 542 854 q 374 896 439 896 q 231 852 285 896 q 176 735 176 808 q 197 652 176 685 q 264 594 217 619 q 399 542 311 568 q 551 479 493 513 q 642 393 610 446 q 674 260 674 340 q 635 117 674 179 q 524 19 596 54 q 358 -15 453 -15 q 54 104 181 -15 l 101 157 q 219 81 160 107 q 357 56 279 56 q 524 110 460 56 q 589 257 589 164 q 567 353 589 315 q 498 417 546 390 q 363 472 450 444 q 154 575 217 517 q 92 733 92 633 q 127 853 92 800 q 226 937 163 907 q 371 967 289 967 m 526 1161 l 251 1053 l 229 1100 l 490 1233 l 526 1161 z "},"Ꞌ":{"ha":288,"x_min":99,"x_max":189,"o":"m 99 951 l 189 951 l 178 492 l 110 492 l 99 951 z "},"Š":{"ha":749,"x_min":54,"x_max":674,"o":"m 371 967 q 522 941 458 967 q 644 861 585 915 l 596 808 q 490 875 542 854 q 374 896 439 896 q 231 852 285 896 q 176 735 176 808 q 197 652 176 685 q 264 594 217 619 q 399 542 311 568 q 551 479 493 513 q 642 393 610 446 q 674 260 674 340 q 635 117 674 179 q 524 19 596 54 q 358 -15 453 -15 q 54 104 181 -15 l 101 157 q 219 81 160 107 q 357 56 279 56 q 524 110 460 56 q 589 257 589 164 q 567 353 589 315 q 498 417 546 390 q 363 472 450 444 q 154 575 217 517 q 92 733 92 633 q 127 853 92 800 q 226 937 163 907 q 371 967 289 967 m 582 1190 l 403 1050 l 353 1050 l 172 1190 l 208 1233 l 378 1122 l 546 1233 l 582 1190 z "},"Ş":{"ha":749,"x_min":54,"x_max":674,"o":"m 674 260 q 596 68 674 143 q 388 -14 518 -7 l 388 -89 q 484 -122 453 -94 q 515 -194 515 -150 q 474 -283 515 -251 q 369 -315 432 -315 q 258 -286 303 -315 l 283 -236 q 368 -257 321 -257 q 423 -242 401 -257 q 444 -194 444 -226 q 415 -149 444 -164 q 321 -133 385 -133 l 332 -15 q 54 104 171 -6 l 101 157 q 219 81 160 107 q 357 56 279 56 q 524 110 460 56 q 589 257 589 164 q 567 353 589 315 q 498 417 546 390 q 363 472 450 444 q 154 575 217 517 q 92 733 92 633 q 127 853 92 800 q 226 937 163 907 q 371 967 289 967 q 522 941 458 967 q 644 861 585 915 l 596 808 q 490 875 542 854 q 374 896 439 896 q 231 852 285 896 q 176 735 176 808 q 197 652 176 685 q 264 594 217 619 q 399 542 311 568 q 551 479 493 513 q 642 393 610 446 q 674 260 674 340 z "},"Ŝ":{"ha":749,"x_min":54,"x_max":674,"o":"m 371 967 q 522 941 458 967 q 644 861 585 915 l 596 808 q 490 875 542 854 q 374 896 439 896 q 231 852 285 896 q 176 735 176 808 q 197 652 176 685 q 264 594 217 619 q 399 542 311 568 q 551 479 493 513 q 642 393 610 446 q 674 260 674 340 q 635 117 674 179 q 524 19 596 54 q 358 -15 453 -15 q 54 104 181 -15 l 101 157 q 219 81 160 107 q 357 56 279 56 q 524 110 460 56 q 589 257 589 164 q 567 353 589 315 q 498 417 546 390 q 363 472 450 444 q 154 575 217 517 q 92 733 92 633 q 127 853 92 800 q 226 937 163 907 q 371 967 289 967 m 172 1100 l 353 1242 l 403 1242 l 582 1100 l 546 1058 l 378 1169 l 208 1058 l 172 1100 z "},"Ș":{"ha":749,"x_min":54,"x_max":674,"o":"m 371 967 q 522 941 458 967 q 644 861 585 915 l 596 808 q 490 875 542 854 q 374 896 439 896 q 231 852 285 896 q 176 735 176 808 q 197 652 176 685 q 264 594 217 619 q 399 542 311 568 q 551 479 493 513 q 642 393 610 446 q 674 260 674 340 q 635 117 674 179 q 524 19 596 54 q 358 -15 453 -15 q 54 104 181 -15 l 101 157 q 219 81 160 107 q 357 56 279 56 q 524 110 460 56 q 589 257 589 164 q 567 353 589 315 q 498 417 546 390 q 363 472 450 444 q 154 575 217 517 q 92 733 92 633 q 127 853 92 800 q 226 937 163 907 q 371 967 289 967 m 367 -118 q 410 -135 393 -118 q 428 -176 428 -151 q 422 -211 428 -193 q 396 -268 415 -229 l 340 -387 l 292 -387 l 336 -229 q 306 -176 306 -210 q 323 -135 306 -151 q 367 -118 340 -118 z "},"Ṡ":{"ha":749,"x_min":54,"x_max":674,"o":"m 371 967 q 522 941 458 967 q 644 861 585 915 l 596 808 q 490 875 542 854 q 374 896 439 896 q 231 852 285 896 q 176 735 176 808 q 197 652 176 685 q 264 594 217 619 q 399 542 311 568 q 551 479 493 513 q 642 393 610 446 q 674 260 674 340 q 635 117 674 179 q 524 19 596 54 q 358 -15 453 -15 q 54 104 181 -15 l 101 157 q 219 81 160 107 q 357 56 279 56 q 524 110 460 56 q 589 257 589 164 q 567 353 589 315 q 498 417 546 390 q 363 472 450 444 q 154 575 217 517 q 92 733 92 633 q 127 853 92 800 q 226 937 163 907 q 371 967 289 967 m 376 1221 q 421 1204 404 1221 q 438 1163 438 1188 q 421 1121 438 1138 q 376 1104 404 1104 q 333 1121 350 1104 q 317 1163 317 1138 q 333 1204 317 1188 q 376 1221 350 1221 z "},"Ṣ":{"ha":749,"x_min":54,"x_max":674,"o":"m 371 967 q 522 941 458 967 q 644 861 585 915 l 596 808 q 490 875 542 854 q 374 896 439 896 q 231 852 285 896 q 176 735 176 808 q 197 652 176 685 q 264 594 217 619 q 399 542 311 568 q 551 479 493 513 q 642 393 610 446 q 674 260 674 340 q 635 117 674 179 q 524 19 596 54 q 358 -15 453 -15 q 54 104 181 -15 l 101 157 q 219 81 160 107 q 357 56 279 56 q 524 110 460 56 q 589 257 589 164 q 567 353 589 315 q 498 417 546 390 q 363 472 450 444 q 154 575 217 517 q 92 733 92 633 q 127 853 92 800 q 226 937 163 907 q 371 967 289 967 m 367 -236 q 322 -219 339 -236 q 306 -178 306 -203 q 322 -136 306 -153 q 367 -119 339 -119 q 410 -136 393 -119 q 426 -178 426 -153 q 410 -219 426 -203 q 367 -236 393 -236 z "},"ẞ":{"ha":901,"x_min":154,"x_max":828,"o":"m 444 967 q 768 872 601 967 l 768 815 l 506 535 q 828 258 828 501 q 749 58 828 131 q 539 -15 671 -15 q 379 17 440 -15 l 407 78 q 535 56 467 56 q 686 108 632 56 q 740 258 740 160 q 663 417 740 365 q 424 476 585 468 l 424 544 l 690 836 q 570 880 629 864 q 446 896 511 896 q 238 681 238 896 l 238 0 l 154 0 l 154 683 q 231 892 154 818 q 444 967 307 967 z "},"Ə":{"ha":900,"x_min":78,"x_max":808,"o":"m 440 967 q 712 847 615 967 q 808 481 808 728 q 708 110 808 235 q 440 -15 608 -15 q 173 107 268 -15 q 78 461 78 229 q 81 518 78 497 l 721 518 q 642 806 714 715 q 438 896 569 896 q 303 872 365 896 q 179 800 242 849 l 136 853 q 277 939 204 911 q 440 967 350 967 m 440 54 q 642 150 567 54 q 722 450 717 246 l 163 450 q 237 152 164 250 q 440 54 310 54 z "},"T":{"ha":688,"x_min":21,"x_max":674,"o":"m 664 878 l 385 878 l 385 0 l 303 0 l 303 878 l 21 878 l 21 951 l 674 951 l 664 878 z "},"Ŧ":{"ha":688,"x_min":21,"x_max":674,"o":"m 385 876 l 385 533 l 558 533 l 558 468 l 385 468 l 385 -1 l 303 -1 l 303 468 l 131 468 l 131 533 l 303 533 l 303 876 l 21 876 l 21 950 l 674 950 l 664 876 l 385 876 z "},"Ť":{"ha":688,"x_min":21,"x_max":674,"o":"m 664 878 l 385 878 l 385 0 l 303 0 l 303 878 l 21 878 l 21 951 l 674 951 l 664 878 m 549 1190 l 369 1050 l 319 1050 l 139 1190 l 175 1233 l 344 1122 l 513 1233 l 549 1190 z "},"Ţ":{"ha":688,"x_min":21,"x_max":674,"o":"m 385 -89 q 482 -122 450 -94 q 514 -194 514 -150 q 472 -283 514 -251 q 365 -315 429 -315 q 257 -286 300 -315 l 282 -236 q 364 -257 319 -257 q 421 -242 399 -257 q 443 -194 443 -226 q 413 -149 443 -164 q 319 -133 383 -133 l 332 0 l 303 0 l 303 878 l 21 878 l 21 951 l 674 951 l 664 878 l 385 878 l 385 -89 z "},"Ṱ":{"ha":688,"x_min":21,"x_max":674,"o":"m 664 878 l 385 878 l 385 0 l 303 0 l 303 878 l 21 878 l 21 951 l 674 951 l 664 878 m 139 -244 l 318 -97 l 368 -97 l 549 -244 l 513 -286 l 343 -168 l 175 -286 l 139 -244 z "},"Ț":{"ha":688,"x_min":21,"x_max":674,"o":"m 664 878 l 385 878 l 385 0 l 303 0 l 303 878 l 21 878 l 21 951 l 674 951 l 664 878 m 344 -118 q 388 -135 371 -118 q 406 -176 406 -151 q 399 -211 406 -193 q 374 -268 393 -229 l 318 -387 l 269 -387 l 314 -229 q 283 -176 283 -210 q 301 -135 283 -151 q 344 -118 318 -118 z "},"Ⱦ":{"ha":688,"x_min":21,"x_max":674,"o":"m 510 878 l 385 500 l 385 0 l 303 0 l 303 254 l 186 -97 l 142 -82 l 303 403 l 303 878 l 21 878 l 21 951 l 485 951 l 514 1038 l 558 1022 l 535 951 l 674 951 l 664 878 l 510 878 m 461 878 l 385 878 l 385 649 l 461 878 z "},"Ṫ":{"ha":688,"x_min":21,"x_max":674,"o":"m 664 878 l 385 878 l 385 0 l 303 0 l 303 878 l 21 878 l 21 951 l 674 951 l 664 878 m 343 1221 q 388 1204 371 1221 q 404 1163 404 1188 q 388 1121 404 1138 q 343 1104 371 1104 q 300 1121 317 1104 q 283 1163 283 1138 q 300 1204 283 1188 q 343 1221 317 1221 z "},"Ṭ":{"ha":688,"x_min":21,"x_max":674,"o":"m 664 878 l 385 878 l 385 0 l 303 0 l 303 878 l 21 878 l 21 951 l 674 951 l 664 878 m 344 -236 q 300 -219 317 -236 q 283 -178 283 -203 q 300 -136 283 -153 q 344 -119 317 -119 q 388 -136 371 -119 q 404 -178 404 -153 q 388 -219 404 -203 q 344 -236 371 -236 z "},"Ƭ":{"ha":726,"x_min":21,"x_max":713,"o":"m 703 878 l 425 878 l 425 0 l 342 0 l 342 878 l 199 878 q 124 856 149 878 q 100 794 100 833 q 108 746 100 767 q 131 693 115 725 l 69 661 q 33 727 46 697 q 21 796 21 757 q 69 909 21 867 q 207 951 118 951 l 713 951 l 703 878 z "},"Ṯ":{"ha":688,"x_min":21,"x_max":674,"o":"m 664 878 l 385 878 l 385 0 l 303 0 l 303 878 l 21 878 l 21 951 l 674 951 l 664 878 m 176 -221 l 176 -156 l 511 -156 l 511 -221 l 176 -221 z "},"Ƽ":{"ha":689,"x_min":47,"x_max":619,"o":"m 576 885 l 188 885 l 188 553 q 356 599 261 599 q 549 521 478 599 q 619 304 619 443 q 583 138 619 210 q 476 25 546 65 q 314 -15 407 -15 q 47 100 154 -15 l 99 147 q 194 76 143 99 q 314 53 246 53 q 476 120 417 53 q 535 306 535 188 q 482 477 535 421 q 338 533 429 533 q 254 523 290 533 q 174 489 218 513 l 110 489 l 110 951 l 589 951 l 576 885 z "},"Ƅ":{"ha":779,"x_min":81,"x_max":729,"o":"m 389 588 q 640 516 551 588 q 729 303 729 444 q 638 74 729 149 q 386 0 546 0 l 154 0 l 154 763 l 81 811 q 164 951 138 872 l 236 951 l 236 588 l 389 588 m 397 69 q 578 124 514 69 q 642 301 642 178 q 578 467 642 415 q 392 519 514 519 l 236 519 l 236 69 l 397 69 z "},"Ƨ":{"ha":736,"x_min":75,"x_max":683,"o":"m 390 967 q 585 904 513 967 q 657 740 657 842 q 594 581 657 639 q 386 475 532 524 q 251 417 300 447 q 182 348 203 388 q 161 250 161 308 q 222 107 161 158 q 378 56 283 56 q 518 81 457 56 q 635 156 579 107 l 683 104 q 546 15 621 46 q 376 -15 471 -15 q 220 18 289 -15 q 113 113 151 51 q 75 251 75 174 q 142 430 75 367 q 350 539 210 493 q 484 593 438 567 q 551 653 531 619 q 571 740 571 688 q 522 856 571 815 q 388 896 474 896 q 264 876 318 896 q 151 810 210 856 l 104 861 q 236 941 171 915 q 390 967 301 967 z "},"Ʈ":{"ha":688,"x_min":21,"x_max":674,"o":"m 385 878 l 385 1 l 386 1 l 386 -100 q 411 -189 386 -161 q 479 -217 436 -217 q 535 -208 513 -217 q 583 -185 558 -200 l 618 -237 q 476 -285 557 -285 q 350 -237 397 -285 q 303 -99 303 -190 l 303 878 l 21 878 l 21 951 l 674 951 l 664 878 l 385 878 z "},"U":{"ha":906,"x_min":140,"x_max":765,"o":"m 765 297 q 685 70 765 156 q 453 -15 604 -15 q 220 69 300 -15 q 140 297 140 154 l 140 951 l 224 951 l 224 304 q 280 121 224 185 q 453 57 336 57 q 625 122 569 57 q 681 304 681 186 l 681 951 l 765 951 l 765 297 z "},"Ú":{"ha":906,"x_min":140,"x_max":765,"o":"m 765 297 q 685 70 765 156 q 453 -15 604 -15 q 220 69 300 -15 q 140 297 140 154 l 140 951 l 224 951 l 224 304 q 280 121 224 185 q 453 57 336 57 q 625 122 569 57 q 681 304 681 186 l 681 951 l 765 951 l 765 297 m 601 1161 l 326 1053 l 304 1100 l 565 1233 l 601 1161 z "},"Ʉ":{"ha":938,"x_min":65,"x_max":872,"o":"m 872 713 l 782 713 l 782 297 q 701 70 782 156 q 469 -15 621 -15 q 237 69 317 -15 q 157 297 157 154 l 157 713 l 65 713 l 65 775 l 157 775 l 157 951 l 240 951 l 240 775 l 697 775 l 697 951 l 782 951 l 782 775 l 872 775 l 872 713 m 697 713 l 240 713 l 240 304 q 297 121 240 185 q 469 57 353 57 q 642 122 586 57 q 697 304 697 186 l 697 713 z "},"Ŭ":{"ha":906,"x_min":140,"x_max":765,"o":"m 765 297 q 685 70 765 156 q 453 -15 604 -15 q 220 69 300 -15 q 140 297 140 154 l 140 951 l 224 951 l 224 304 q 280 121 224 185 q 453 57 336 57 q 625 122 569 57 q 681 304 681 186 l 681 951 l 765 951 l 765 297 m 451 1063 q 331 1102 381 1063 q 271 1201 281 1142 l 326 1214 q 372 1151 340 1174 q 451 1128 404 1128 q 531 1151 499 1128 q 578 1214 564 1174 l 633 1201 q 573 1102 624 1142 q 451 1063 522 1063 z "},"Ǔ":{"ha":906,"x_min":140,"x_max":765,"o":"m 765 297 q 685 70 765 156 q 453 -15 604 -15 q 220 69 300 -15 q 140 297 140 154 l 140 951 l 224 951 l 224 304 q 280 121 224 185 q 453 57 336 57 q 625 122 569 57 q 681 304 681 186 l 681 951 l 765 951 l 765 297 m 657 1190 l 478 1050 l 428 1050 l 247 1190 l 283 1233 l 453 1122 l 621 1233 l 657 1190 z "},"Û":{"ha":906,"x_min":140,"x_max":765,"o":"m 765 297 q 685 70 765 156 q 453 -15 604 -15 q 220 69 300 -15 q 140 297 140 154 l 140 951 l 224 951 l 224 304 q 280 121 224 185 q 453 57 336 57 q 625 122 569 57 q 681 304 681 186 l 681 951 l 765 951 l 765 297 m 247 1100 l 428 1242 l 478 1242 l 657 1100 l 621 1058 l 453 1169 l 283 1058 l 247 1100 z "},"Ȕ":{"ha":906,"x_min":140,"x_max":765,"o":"m 765 297 q 685 70 765 156 q 453 -15 604 -15 q 220 69 300 -15 q 140 297 140 154 l 140 951 l 224 951 l 224 304 q 280 121 224 185 q 453 57 336 57 q 625 122 569 57 q 681 304 681 186 l 681 951 l 765 951 l 765 297 m 399 1092 l 346 1067 l 217 1264 l 289 1301 l 399 1092 m 567 1097 l 514 1074 l 397 1263 l 469 1301 l 567 1097 z "},"Ü":{"ha":906,"x_min":140,"x_max":765,"o":"m 765 297 q 685 70 765 156 q 453 -15 604 -15 q 220 69 300 -15 q 140 297 140 154 l 140 951 l 224 951 l 224 304 q 280 121 224 185 q 453 57 336 57 q 625 122 569 57 q 681 304 681 186 l 681 951 l 765 951 l 765 297 m 321 1206 q 360 1190 344 1206 q 376 1150 376 1174 q 360 1111 376 1126 q 321 1096 344 1096 q 281 1111 297 1096 q 265 1150 265 1126 q 281 1190 265 1174 q 321 1206 297 1206 m 583 1206 q 623 1190 607 1206 q 639 1150 639 1174 q 623 1111 639 1126 q 583 1096 607 1096 q 544 1111 560 1096 q 528 1150 528 1126 q 544 1190 528 1174 q 583 1206 560 1206 z "},"Ǘ":{"ha":906,"x_min":140,"x_max":765,"o":"m 765 297 q 685 70 765 156 q 453 -15 604 -15 q 220 69 300 -15 q 140 297 140 154 l 140 951 l 224 951 l 224 304 q 280 121 224 185 q 453 57 336 57 q 625 122 569 57 q 681 304 681 186 l 681 951 l 765 951 l 765 297 m 615 1299 l 447 1132 l 411 1165 l 561 1349 l 615 1299 m 321 1143 q 360 1127 344 1143 q 376 1088 376 1111 q 360 1049 376 1064 q 321 1033 344 1033 q 281 1049 297 1033 q 265 1088 265 1064 q 281 1127 265 1111 q 321 1143 297 1143 m 583 1143 q 623 1127 607 1143 q 639 1088 639 1111 q 623 1049 639 1064 q 583 1033 607 1033 q 544 1049 560 1033 q 528 1088 528 1064 q 544 1127 528 1111 q 583 1143 560 1143 z "},"Ǚ":{"ha":906,"x_min":140,"x_max":765,"o":"m 765 297 q 685 70 765 156 q 453 -15 604 -15 q 220 69 300 -15 q 140 297 140 154 l 140 951 l 224 951 l 224 304 q 280 121 224 185 q 453 57 336 57 q 625 122 569 57 q 681 304 681 186 l 681 951 l 765 951 l 765 297 m 654 1293 l 475 1153 l 425 1153 l 244 1293 l 281 1336 l 450 1225 l 618 1336 l 654 1293 m 321 1143 q 360 1127 344 1143 q 376 1088 376 1111 q 360 1049 376 1064 q 321 1033 344 1033 q 281 1049 297 1033 q 265 1088 265 1064 q 281 1127 265 1111 q 321 1143 297 1143 m 583 1143 q 624 1127 608 1143 q 639 1088 639 1111 q 624 1049 639 1064 q 583 1033 608 1033 q 544 1049 560 1033 q 528 1088 528 1064 q 544 1127 528 1111 q 583 1143 560 1143 z "},"Ǜ":{"ha":906,"x_min":140,"x_max":765,"o":"m 765 297 q 685 70 765 156 q 453 -15 604 -15 q 220 69 300 -15 q 140 297 140 154 l 140 951 l 224 951 l 224 304 q 280 121 224 185 q 453 57 336 57 q 625 122 569 57 q 681 304 681 186 l 681 951 l 765 951 l 765 297 m 500 1165 l 464 1132 l 297 1299 l 350 1349 l 500 1165 m 321 1143 q 360 1127 344 1143 q 376 1088 376 1111 q 360 1049 376 1064 q 321 1033 344 1033 q 281 1049 297 1033 q 265 1088 265 1064 q 281 1127 265 1111 q 321 1143 297 1143 m 583 1143 q 623 1127 607 1143 q 639 1088 639 1111 q 623 1049 639 1064 q 583 1033 607 1033 q 544 1049 560 1033 q 528 1088 528 1064 q 544 1127 528 1111 q 583 1143 560 1143 z "},"Ǖ":{"ha":906,"x_min":140,"x_max":765,"o":"m 765 297 q 685 70 765 156 q 453 -15 604 -15 q 220 69 300 -15 q 140 297 140 154 l 140 951 l 224 951 l 224 304 q 280 121 224 185 q 453 57 336 57 q 625 122 569 57 q 681 304 681 186 l 681 951 l 765 951 l 765 297 m 321 1143 q 360 1127 344 1143 q 376 1088 376 1111 q 360 1049 376 1064 q 321 1033 344 1033 q 281 1049 297 1033 q 265 1088 265 1064 q 281 1127 265 1111 q 321 1143 297 1143 m 583 1143 q 623 1127 607 1143 q 639 1088 639 1111 q 623 1049 639 1064 q 583 1033 607 1033 q 544 1049 560 1033 q 528 1088 528 1064 q 544 1127 528 1111 q 583 1143 560 1143 m 288 1219 l 288 1285 l 622 1285 l 622 1219 l 288 1219 z "},"Ụ":{"ha":906,"x_min":140,"x_max":765,"o":"m 765 297 q 685 70 765 156 q 453 -15 604 -15 q 220 69 300 -15 q 140 297 140 154 l 140 951 l 224 951 l 224 304 q 280 121 224 185 q 453 57 336 57 q 625 122 569 57 q 681 304 681 186 l 681 951 l 765 951 l 765 297 m 453 -236 q 408 -219 425 -236 q 392 -178 392 -203 q 408 -136 392 -153 q 453 -119 425 -119 q 496 -136 479 -119 q 513 -178 513 -153 q 496 -219 513 -203 q 453 -236 479 -236 z "},"Ù":{"ha":906,"x_min":140,"x_max":765,"o":"m 765 297 q 685 70 765 156 q 453 -15 604 -15 q 220 69 300 -15 q 140 297 140 154 l 140 951 l 224 951 l 224 304 q 280 121 224 185 q 453 57 336 57 q 625 122 569 57 q 681 304 681 186 l 681 951 l 765 951 l 765 297 m 594 1100 l 572 1053 l 297 1161 l 333 1233 l 594 1100 z "},"Ủ":{"ha":906,"x_min":140,"x_max":765,"o":"m 765 297 q 685 70 765 156 q 453 -15 604 -15 q 220 69 300 -15 q 140 297 140 154 l 140 951 l 224 951 l 224 304 q 280 121 224 185 q 453 57 336 57 q 625 122 569 57 q 681 304 681 186 l 681 951 l 765 951 l 765 297 m 419 1176 q 492 1194 468 1179 q 517 1242 517 1208 q 499 1283 517 1268 q 451 1297 482 1297 q 371 1279 411 1297 l 349 1328 q 461 1357 399 1357 q 556 1326 521 1357 q 590 1246 590 1296 q 486 1139 590 1154 l 486 1075 l 419 1075 l 419 1176 z "},"Ư":{"ha":906,"x_min":140,"x_max":907,"o":"m 765 297 q 685 70 765 156 q 453 -15 604 -15 q 220 69 300 -15 q 140 297 140 154 l 140 951 l 224 951 l 224 304 q 280 121 224 185 q 453 57 336 57 q 625 122 569 57 q 681 304 681 186 l 681 951 l 765 951 l 765 297 m 751 872 q 817 897 797 878 q 838 953 838 917 q 818 1053 838 1004 l 882 1069 q 907 956 907 1022 q 764 824 907 832 l 751 872 z "},"Ứ":{"ha":906,"x_min":140,"x_max":907,"o":"m 765 297 q 685 70 765 156 q 453 -15 604 -15 q 220 69 300 -15 q 140 297 140 154 l 140 951 l 224 951 l 224 304 q 280 121 224 185 q 453 57 336 57 q 625 122 569 57 q 681 304 681 186 l 681 951 l 765 951 l 765 297 m 751 872 q 817 897 797 878 q 838 953 838 917 q 818 1053 838 1004 l 882 1069 q 907 956 907 1022 q 764 824 907 832 l 751 872 m 601 1161 l 326 1053 l 304 1100 l 565 1233 l 601 1161 z "},"Ự":{"ha":906,"x_min":140,"x_max":907,"o":"m 765 297 q 685 70 765 156 q 453 -15 604 -15 q 220 69 300 -15 q 140 297 140 154 l 140 951 l 224 951 l 224 304 q 280 121 224 185 q 453 57 336 57 q 625 122 569 57 q 681 304 681 186 l 681 951 l 765 951 l 765 297 m 751 872 q 817 897 797 878 q 838 953 838 917 q 818 1053 838 1004 l 882 1069 q 907 956 907 1022 q 764 824 907 832 l 751 872 m 453 -236 q 408 -219 425 -236 q 392 -178 392 -203 q 408 -136 392 -153 q 453 -119 425 -119 q 496 -136 479 -119 q 513 -178 513 -153 q 496 -219 513 -203 q 453 -236 479 -236 z "},"Ừ":{"ha":906,"x_min":140,"x_max":907,"o":"m 765 297 q 685 70 765 156 q 453 -15 604 -15 q 220 69 300 -15 q 140 297 140 154 l 140 951 l 224 951 l 224 304 q 280 121 224 185 q 453 57 336 57 q 625 122 569 57 q 681 304 681 186 l 681 951 l 765 951 l 765 297 m 751 872 q 817 897 797 878 q 838 953 838 917 q 818 1053 838 1004 l 882 1069 q 907 956 907 1022 q 764 824 907 832 l 751 872 m 594 1100 l 572 1053 l 297 1161 l 333 1233 l 594 1100 z "},"Ử":{"ha":906,"x_min":140,"x_max":907,"o":"m 765 297 q 685 70 765 156 q 453 -15 604 -15 q 220 69 300 -15 q 140 297 140 154 l 140 951 l 224 951 l 224 304 q 280 121 224 185 q 453 57 336 57 q 625 122 569 57 q 681 304 681 186 l 681 951 l 765 951 l 765 297 m 751 872 q 817 897 797 878 q 838 953 838 917 q 818 1053 838 1004 l 882 1069 q 907 956 907 1022 q 764 824 907 832 l 751 872 m 419 1176 q 492 1194 468 1179 q 517 1242 517 1208 q 499 1283 517 1268 q 451 1297 482 1297 q 371 1279 411 1297 l 349 1328 q 461 1357 399 1357 q 556 1326 521 1357 q 590 1246 590 1296 q 486 1139 590 1154 l 486 1075 l 419 1075 l 419 1176 z "},"Ữ":{"ha":906,"x_min":140,"x_max":907,"o":"m 765 297 q 685 70 765 156 q 453 -15 604 -15 q 220 69 300 -15 q 140 297 140 154 l 140 951 l 224 951 l 224 304 q 280 121 224 185 q 453 57 336 57 q 625 122 569 57 q 681 304 681 186 l 681 951 l 765 951 l 765 297 m 751 872 q 817 897 797 878 q 838 953 838 917 q 818 1053 838 1004 l 882 1069 q 907 956 907 1022 q 764 824 907 832 l 751 872 m 533 1100 q 488 1109 508 1100 q 436 1136 467 1118 q 399 1157 414 1150 q 371 1164 385 1164 q 330 1151 347 1164 q 293 1108 313 1138 l 243 1133 q 371 1228 294 1228 q 415 1219 394 1228 q 460 1194 435 1211 q 500 1172 485 1179 q 533 1165 515 1165 q 573 1179 556 1165 q 611 1225 590 1193 l 661 1200 q 533 1100 613 1100 z "},"Ű":{"ha":906,"x_min":140,"x_max":765,"o":"m 765 297 q 685 70 765 156 q 453 -15 604 -15 q 220 69 300 -15 q 140 297 140 154 l 140 951 l 224 951 l 224 304 q 280 121 224 185 q 453 57 336 57 q 625 122 569 57 q 681 304 681 186 l 681 951 l 765 951 l 765 297 m 496 1263 l 378 1074 l 325 1097 l 424 1301 l 496 1263 m 675 1264 l 546 1067 l 493 1092 l 603 1301 l 675 1264 z "},"Ȗ":{"ha":906,"x_min":140,"x_max":765,"o":"m 765 297 q 685 70 765 156 q 453 -15 604 -15 q 220 69 300 -15 q 140 297 140 154 l 140 951 l 224 951 l 224 304 q 280 121 224 185 q 453 57 336 57 q 625 122 569 57 q 681 304 681 186 l 681 951 l 765 951 l 765 297 m 451 1256 q 574 1214 524 1256 q 633 1103 624 1172 l 578 1090 q 451 1190 550 1190 q 326 1090 354 1190 l 271 1103 q 330 1214 281 1172 q 451 1256 379 1256 z "},"Ū":{"ha":906,"x_min":140,"x_max":765,"o":"m 765 297 q 685 70 765 156 q 453 -15 604 -15 q 220 69 300 -15 q 140 297 140 154 l 140 951 l 224 951 l 224 304 q 280 121 224 185 q 453 57 336 57 q 625 122 569 57 q 681 304 681 186 l 681 951 l 765 951 l 765 297 m 285 1114 l 285 1179 l 619 1179 l 619 1114 l 285 1114 z "},"Ų":{"ha":906,"x_min":140,"x_max":765,"o":"m 765 951 l 765 297 q 713 104 765 183 q 560 -1 661 25 q 432 -80 469 -43 q 394 -164 394 -117 q 417 -217 394 -197 q 483 -236 439 -236 q 563 -226 518 -236 l 554 -293 q 474 -303 506 -303 q 360 -267 400 -303 q 319 -175 319 -232 q 449 -15 319 -75 q 219 71 297 -14 q 140 297 140 156 l 140 951 l 224 951 l 224 304 q 280 121 224 185 q 453 57 336 57 q 625 122 569 57 q 681 304 681 186 l 681 951 l 765 951 z "},"Ʊ":{"ha":960,"x_min":92,"x_max":868,"o":"m 479 -15 q 275 40 363 -15 q 140 199 188 96 q 92 443 92 303 q 144 708 92 606 q 282 881 196 810 l 122 881 l 122 951 l 378 951 l 378 882 q 231 711 283 815 q 179 443 179 607 q 260 156 179 256 q 479 56 340 56 q 699 156 618 56 q 781 443 781 257 q 728 710 781 606 q 582 882 675 814 l 582 951 l 838 951 l 838 881 l 679 881 q 817 713 767 815 q 868 443 868 611 q 819 201 868 304 q 683 41 771 97 q 479 -15 594 -15 z "},"Ů":{"ha":906,"x_min":140,"x_max":765,"o":"m 765 297 q 685 70 765 156 q 453 -15 604 -15 q 220 69 300 -15 q 140 297 140 154 l 140 951 l 224 951 l 224 304 q 280 121 224 185 q 453 57 336 57 q 625 122 569 57 q 681 304 681 186 l 681 951 l 765 951 l 765 297 m 453 1315 q 551 1278 513 1315 q 589 1185 589 1242 q 551 1091 589 1128 q 453 1054 513 1054 q 353 1091 392 1054 q 315 1185 315 1128 q 353 1278 315 1242 q 453 1315 392 1315 m 453 1265 q 395 1244 415 1265 q 375 1185 375 1222 q 395 1125 375 1146 q 453 1104 415 1104 q 509 1125 489 1104 q 529 1185 529 1146 q 509 1244 529 1222 q 453 1265 489 1265 z "},"Ũ":{"ha":906,"x_min":140,"x_max":765,"o":"m 765 297 q 685 70 765 156 q 453 -15 604 -15 q 220 69 300 -15 q 140 297 140 154 l 140 951 l 224 951 l 224 304 q 280 121 224 185 q 453 57 336 57 q 625 122 569 57 q 681 304 681 186 l 681 951 l 765 951 l 765 297 m 533 1100 q 488 1109 508 1100 q 436 1136 467 1118 q 399 1157 414 1150 q 371 1164 385 1164 q 330 1151 347 1164 q 293 1108 313 1138 l 243 1133 q 371 1228 294 1228 q 415 1219 394 1228 q 460 1194 435 1211 q 500 1172 485 1179 q 533 1165 515 1165 q 573 1179 556 1165 q 611 1225 590 1193 l 661 1200 q 533 1100 613 1100 z "},"Ṹ":{"ha":906,"x_min":140,"x_max":765,"o":"m 765 297 q 685 70 765 156 q 453 -15 604 -15 q 220 69 300 -15 q 140 297 140 154 l 140 951 l 224 951 l 224 304 q 280 121 224 185 q 453 57 336 57 q 625 122 569 57 q 681 304 681 186 l 681 951 l 765 951 l 765 297 m 533 1051 q 488 1060 508 1051 q 436 1088 467 1069 q 399 1108 414 1101 q 371 1115 385 1115 q 330 1102 347 1115 q 293 1060 313 1089 l 243 1085 q 371 1179 294 1179 q 415 1171 394 1179 q 460 1146 435 1163 q 500 1124 485 1131 q 533 1117 515 1117 q 573 1131 556 1117 q 611 1176 590 1144 l 661 1151 q 533 1051 613 1051 m 601 1329 l 326 1221 l 304 1268 l 565 1401 l 601 1329 z "},"V":{"ha":758,"x_min":22,"x_max":736,"o":"m 426 0 l 333 0 l 22 951 l 113 951 l 381 86 l 650 951 l 736 951 l 426 0 z "},"Ʋ":{"ha":906,"x_min":140,"x_max":765,"o":"m 628 967 q 730 929 694 967 q 765 817 765 892 l 765 408 q 722 181 765 276 q 600 35 678 85 q 421 -15 522 -15 q 216 63 292 -15 q 140 268 140 140 l 140 951 l 224 951 l 224 274 q 276 114 224 171 q 421 57 328 57 q 610 149 540 57 q 681 415 681 242 l 681 815 q 666 878 681 858 q 618 897 651 897 q 561 885 586 897 l 538 943 q 628 967 578 967 z "},"Ʌ":{"ha":785,"x_min":22,"x_max":761,"o":"m 761 0 l 674 0 l 392 883 l 107 0 l 22 0 l 340 951 l 444 951 l 761 0 z "},"W":{"ha":1125,"x_min":42,"x_max":1082,"o":"m 874 0 l 769 0 l 561 858 l 353 0 l 251 0 l 42 951 l 126 951 l 307 76 l 515 951 l 608 951 l 821 76 l 1003 951 l 1082 951 l 874 0 z "},"Ẃ":{"ha":1125,"x_min":42,"x_max":1082,"o":"m 874 0 l 769 0 l 561 858 l 353 0 l 251 0 l 42 951 l 126 951 l 307 76 l 515 951 l 608 951 l 821 76 l 1003 951 l 1082 951 l 874 0 m 711 1161 l 436 1053 l 414 1100 l 675 1233 l 711 1161 z "},"Ŵ":{"ha":1125,"x_min":42,"x_max":1082,"o":"m 874 0 l 769 0 l 561 858 l 353 0 l 251 0 l 42 951 l 126 951 l 307 76 l 515 951 l 608 951 l 821 76 l 1003 951 l 1082 951 l 874 0 m 357 1100 l 538 1242 l 588 1242 l 767 1100 l 731 1058 l 563 1169 l 393 1058 l 357 1100 z "},"Ẅ":{"ha":1125,"x_min":42,"x_max":1082,"o":"m 874 0 l 769 0 l 561 858 l 353 0 l 251 0 l 42 951 l 126 951 l 307 76 l 515 951 l 608 951 l 821 76 l 1003 951 l 1082 951 l 874 0 m 431 1206 q 470 1190 454 1206 q 486 1150 486 1174 q 470 1111 486 1126 q 431 1096 454 1096 q 391 1111 407 1096 q 375 1150 375 1126 q 391 1190 375 1174 q 431 1206 407 1206 m 693 1206 q 733 1190 717 1206 q 749 1150 749 1174 q 733 1111 749 1126 q 693 1096 717 1096 q 653 1111 669 1096 q 638 1150 638 1126 q 653 1190 638 1174 q 693 1206 669 1206 z "},"Ẁ":{"ha":1125,"x_min":42,"x_max":1082,"o":"m 874 0 l 769 0 l 561 858 l 353 0 l 251 0 l 42 951 l 126 951 l 307 76 l 515 951 l 608 951 l 821 76 l 1003 951 l 1082 951 l 874 0 m 704 1100 l 682 1053 l 407 1161 l 443 1233 l 704 1100 z "},"Ⱳ":{"ha":1178,"x_min":42,"x_max":1258,"o":"m 251 0 l 353 0 l 561 858 l 769 0 l 874 0 l 1042 808 q 1074 881 1053 861 q 1135 901 1096 901 q 1181 892 1161 901 q 1224 865 1200 883 l 1258 914 q 1198 953 1228 939 q 1129 967 1168 967 q 1026 932 1068 967 q 971 822 985 897 l 821 76 l 608 951 l 515 951 l 307 76 l 126 951 l 42 951 l 251 0 z "},"Ƿ":{"ha":792,"x_min":154,"x_max":729,"o":"m 474 967 q 658 899 586 967 q 729 714 729 832 q 637 490 729 572 q 374 344 544 407 l 238 294 l 238 0 l 154 0 l 154 951 l 238 951 l 238 874 q 474 967 338 967 m 374 415 q 571 531 500 463 q 642 714 642 600 q 594 849 642 801 q 463 896 546 896 q 238 804 333 896 l 238 365 l 374 415 z "},"X":{"ha":714,"x_min":14,"x_max":700,"o":"m 700 0 l 606 0 l 353 458 l 104 0 l 14 0 l 304 511 l 43 951 l 138 951 l 354 565 l 571 951 l 661 951 l 403 515 l 700 0 z "},"Y":{"ha":726,"x_min":18,"x_max":707,"o":"m 406 372 l 406 0 l 322 0 l 322 371 l 18 951 l 111 951 l 367 444 l 618 951 l 707 951 l 406 372 z "},"Ý":{"ha":726,"x_min":18,"x_max":707,"o":"m 406 372 l 406 0 l 322 0 l 322 371 l 18 951 l 111 951 l 367 444 l 618 951 l 707 951 l 406 372 m 511 1161 l 236 1053 l 214 1100 l 475 1233 l 511 1161 z "},"Ŷ":{"ha":726,"x_min":18,"x_max":707,"o":"m 406 372 l 406 0 l 322 0 l 322 371 l 18 951 l 111 951 l 367 444 l 618 951 l 707 951 l 406 372 m 157 1100 l 338 1242 l 388 1242 l 567 1100 l 531 1058 l 363 1169 l 193 1058 l 157 1100 z "},"Ÿ":{"ha":726,"x_min":18,"x_max":707,"o":"m 406 372 l 406 0 l 322 0 l 322 371 l 18 951 l 111 951 l 367 444 l 618 951 l 707 951 l 406 372 m 231 1206 q 270 1190 254 1206 q 286 1150 286 1174 q 270 1111 286 1126 q 231 1096 254 1096 q 191 1111 207 1096 q 175 1150 175 1126 q 191 1190 175 1174 q 231 1206 207 1206 m 493 1206 q 533 1190 517 1206 q 549 1150 549 1174 q 533 1111 549 1126 q 493 1096 517 1096 q 453 1111 469 1096 q 438 1150 438 1126 q 453 1190 438 1174 q 493 1206 469 1206 z "},"Ỵ":{"ha":726,"x_min":18,"x_max":707,"o":"m 406 372 l 406 0 l 322 0 l 322 371 l 18 951 l 111 951 l 367 444 l 618 951 l 707 951 l 406 372 m 364 -236 q 319 -219 336 -236 q 303 -178 303 -203 q 319 -136 303 -153 q 364 -119 336 -119 q 407 -136 390 -119 q 424 -178 424 -153 q 407 -219 424 -203 q 364 -236 390 -236 z "},"Ỳ":{"ha":726,"x_min":18,"x_max":707,"o":"m 406 372 l 406 0 l 322 0 l 322 371 l 18 951 l 111 951 l 367 444 l 618 951 l 707 951 l 406 372 m 504 1100 l 482 1053 l 207 1161 l 243 1233 l 504 1100 z "},"Ƴ":{"ha":761,"x_min":18,"x_max":842,"o":"m 322 371 l 18 951 l 111 951 l 367 444 l 546 836 q 616 936 578 906 q 713 967 654 967 q 781 953 751 967 q 842 914 811 939 l 807 865 q 764 892 785 883 q 717 901 743 901 q 662 883 683 901 q 614 810 640 864 l 406 372 l 406 0 l 322 0 l 322 371 z "},"Ỷ":{"ha":726,"x_min":18,"x_max":707,"o":"m 406 372 l 406 0 l 322 0 l 322 371 l 18 951 l 111 951 l 367 444 l 618 951 l 707 951 l 406 372 m 329 1176 q 402 1194 378 1179 q 426 1242 426 1208 q 409 1283 426 1268 q 361 1297 392 1297 q 281 1279 321 1297 l 258 1328 q 371 1357 308 1357 q 465 1326 431 1357 q 500 1246 500 1296 q 396 1139 500 1154 l 396 1075 l 329 1075 l 329 1176 z "},"Ȳ":{"ha":726,"x_min":18,"x_max":707,"o":"m 406 372 l 406 0 l 322 0 l 322 371 l 18 951 l 111 951 l 367 444 l 618 951 l 707 951 l 406 372 m 194 1114 l 194 1179 l 529 1179 l 529 1114 l 194 1114 z "},"Ȝ":{"ha":696,"x_min":29,"x_max":621,"o":"m 318 967 q 519 899 447 967 q 592 719 592 832 q 542 573 592 628 q 407 500 493 518 q 562 433 503 489 q 621 278 621 378 q 497 31 621 131 q 93 -125 374 -68 l 85 -53 q 351 30 253 -18 q 492 138 450 78 q 533 278 533 199 q 473 414 533 367 q 296 460 413 461 l 210 460 l 221 531 l 293 531 q 447 578 390 531 q 504 717 504 626 q 455 848 504 800 q 313 896 406 896 q 188 872 246 896 q 74 799 131 847 l 29 850 q 165 938 94 908 q 318 967 235 967 z "},"Ʀ":{"ha":819,"x_min":154,"x_max":772,"o":"m 428 251 l 238 251 l 238 0 l 154 0 l 154 951 l 238 951 l 238 776 l 385 776 q 724 518 724 776 q 669 354 724 415 q 511 267 615 293 l 772 -175 l 672 -175 l 428 251 m 396 319 q 635 518 635 319 q 576 661 635 615 q 382 707 517 707 l 238 707 l 238 319 l 396 319 z "},"Ɏ":{"ha":726,"x_min":18,"x_max":707,"o":"m 642 826 l 707 826 l 707 764 l 610 764 l 406 372 l 406 0 l 322 0 l 322 371 l 117 764 l 21 764 l 21 826 l 83 826 l 18 951 l 111 951 l 174 826 l 556 826 l 618 951 l 707 951 l 642 826 m 525 764 l 206 764 l 367 444 l 525 764 z "},"Ỹ":{"ha":726,"x_min":18,"x_max":707,"o":"m 406 372 l 406 0 l 322 0 l 322 371 l 18 951 l 111 951 l 367 444 l 618 951 l 707 951 l 406 372 m 443 1100 q 397 1109 418 1100 q 346 1136 376 1118 q 309 1157 324 1150 q 281 1164 294 1164 q 240 1151 257 1164 q 203 1108 222 1138 l 153 1133 q 281 1228 204 1228 q 324 1219 304 1228 q 369 1194 344 1211 q 410 1172 394 1179 q 443 1165 425 1165 q 483 1179 465 1165 q 521 1225 500 1193 l 571 1200 q 443 1100 522 1100 z "},"Z":{"ha":717,"x_min":49,"x_max":650,"o":"m 650 883 l 144 74 l 642 74 l 631 0 l 49 0 l 49 69 l 558 879 l 101 879 l 101 951 l 650 951 l 650 883 z "},"Ź":{"ha":717,"x_min":49,"x_max":650,"o":"m 650 883 l 144 74 l 642 74 l 631 0 l 49 0 l 49 69 l 558 879 l 101 879 l 101 951 l 650 951 l 650 883 m 514 1161 l 239 1053 l 217 1100 l 478 1233 l 514 1161 z "},"Ž":{"ha":717,"x_min":49,"x_max":650,"o":"m 650 883 l 144 74 l 642 74 l 631 0 l 49 0 l 49 69 l 558 879 l 101 879 l 101 951 l 650 951 l 650 883 m 569 1190 l 390 1050 l 340 1050 l 160 1190 l 196 1233 l 365 1122 l 533 1233 l 569 1190 z "},"Ż":{"ha":717,"x_min":49,"x_max":650,"o":"m 650 883 l 144 74 l 642 74 l 631 0 l 49 0 l 49 69 l 558 879 l 101 879 l 101 951 l 650 951 l 650 883 m 364 1221 q 408 1204 392 1221 q 425 1163 425 1188 q 408 1121 425 1138 q 364 1104 392 1104 q 321 1121 338 1104 q 304 1163 304 1138 q 321 1204 304 1188 q 364 1221 338 1221 z "},"Ẓ":{"ha":717,"x_min":49,"x_max":650,"o":"m 650 883 l 144 74 l 642 74 l 631 0 l 49 0 l 49 69 l 558 879 l 101 879 l 101 951 l 650 951 l 650 883 m 358 -236 q 314 -219 331 -236 q 297 -178 297 -203 q 314 -136 297 -153 q 358 -119 331 -119 q 401 -136 385 -119 q 418 -178 418 -153 q 401 -219 418 -203 q 358 -236 385 -236 z "},"Ȥ":{"ha":717,"x_min":49,"x_max":650,"o":"m 650 883 l 144 74 l 636 74 l 636 -99 q 589 -237 636 -190 q 463 -285 542 -285 q 321 -237 382 -285 l 354 -183 q 403 -208 379 -200 q 460 -217 426 -217 q 554 -100 554 -217 l 554 0 l 49 0 l 49 69 l 558 879 l 101 879 l 101 951 l 650 951 l 650 883 z "},"Ƶ":{"ha":717,"x_min":49,"x_max":650,"o":"m 650 883 l 417 513 l 569 513 l 569 444 l 375 444 l 142 74 l 642 74 l 631 0 l 49 0 l 49 69 l 286 444 l 149 444 l 149 513 l 329 513 l 561 879 l 101 879 l 101 951 l 650 951 l 650 883 z "},"ʙ":{"ha":764,"x_min":147,"x_max":675,"o":"m 494 394 q 628 342 582 386 q 675 218 675 297 q 595 56 675 111 q 379 0 515 0 l 147 0 l 147 718 q 368 742 263 742 q 565 690 494 742 q 635 549 635 638 q 598 446 635 486 q 494 394 561 406 m 369 676 q 228 665 299 676 l 228 419 l 400 419 q 513 451 472 419 q 553 547 553 483 q 369 676 553 676 m 379 65 q 533 101 476 65 q 590 218 590 138 q 545 323 590 289 q 406 357 500 357 l 228 357 l 228 65 l 379 65 z "},"ɢ":{"ha":771,"x_min":89,"x_max":654,"o":"m 415 743 q 538 724 485 743 q 644 664 592 704 l 597 613 q 511 659 554 644 q 417 674 468 674 q 297 641 353 674 q 208 540 242 608 q 174 368 174 471 q 236 131 174 207 q 411 54 299 54 q 575 90 503 54 l 575 332 l 421 332 l 413 397 l 654 397 l 654 53 q 411 -12 544 -12 q 175 84 261 -12 q 89 368 89 181 q 134 569 89 485 q 254 699 179 654 q 415 743 329 743 z "},"ʛ":{"ha":771,"x_min":89,"x_max":879,"o":"m 736 1032 q 879 985 815 1032 l 844 933 q 795 957 818 949 q 740 965 772 965 q 644 850 644 965 l 644 664 l 603 618 q 514 660 558 647 q 417 674 469 674 q 296 641 351 674 q 207 540 240 608 q 174 368 174 471 q 236 131 174 207 q 411 54 299 54 q 575 90 503 54 l 575 332 l 421 332 l 413 397 l 654 397 l 654 53 q 411 -12 544 -12 q 175 84 261 -12 q 89 368 89 181 q 134 569 89 485 q 254 699 179 654 q 415 743 329 743 q 564 708 494 743 l 564 846 q 610 985 564 938 q 736 1032 656 1032 z "},"ʜ":{"ha":817,"x_min":147,"x_max":669,"o":"m 589 342 l 228 342 l 228 0 l 147 0 l 147 726 l 228 726 l 228 410 l 589 410 l 589 726 l 669 726 l 669 0 l 589 0 l 589 342 z "},"ɪ":{"ha":444,"x_min":39,"x_max":406,"o":"m 261 661 l 261 67 l 406 67 l 406 0 l 39 0 l 39 67 l 181 67 l 181 661 l 39 661 l 39 726 l 406 726 l 406 661 l 261 661 z "},"ʟ":{"ha":578,"x_min":147,"x_max":561,"o":"m 228 71 l 561 71 l 550 0 l 147 0 l 147 726 l 228 726 l 228 71 z "},"ɴ":{"ha":819,"x_min":147,"x_max":672,"o":"m 672 0 l 568 0 l 214 647 q 222 358 222 514 l 222 0 l 147 0 l 147 726 l 251 726 l 606 79 q 596 307 596 186 l 596 726 l 672 726 l 672 0 z "},"ɶ":{"ha":1011,"x_min":89,"x_max":958,"o":"m 958 0 l 490 0 q 396 -15 444 -15 q 170 85 251 -15 q 89 363 89 186 q 126 564 89 478 q 233 696 164 650 q 397 742 303 742 q 499 726 453 742 l 951 726 l 942 661 l 590 661 q 668 558 638 624 q 704 410 699 493 l 897 410 l 897 344 l 706 344 q 581 65 697 150 l 958 65 l 958 0 m 175 363 q 233 132 175 211 q 397 53 290 53 q 560 134 500 53 q 621 368 621 215 q 560 596 621 518 q 397 674 499 674 q 233 594 292 674 q 175 363 175 515 z "},"ʀ":{"ha":728,"x_min":147,"x_max":657,"o":"m 564 0 l 369 301 q 340 300 360 300 l 228 300 l 228 0 l 147 0 l 147 726 l 329 726 q 547 672 474 726 q 619 514 619 618 q 576 385 619 438 q 449 313 532 333 l 657 0 l 564 0 m 343 365 q 536 514 536 365 q 486 625 536 589 q 326 661 436 661 l 228 661 l 228 365 l 343 365 z "},"ʁ":{"ha":728,"x_min":147,"x_max":657,"o":"m 449 415 q 576 343 532 394 q 619 217 619 292 q 547 55 619 110 q 329 0 474 0 l 147 0 l 147 726 l 228 726 l 228 426 l 340 426 q 369 425 360 426 l 564 726 l 657 726 l 449 415 m 326 65 q 486 103 436 65 q 536 217 536 140 q 487 325 536 289 q 343 361 438 361 l 228 361 l 228 65 l 326 65 z "},"ʏ":{"ha":593,"x_min":7,"x_max":585,"o":"m 338 286 l 338 0 l 257 0 l 257 285 l 7 726 l 93 726 l 300 347 l 500 726 l 585 726 l 338 286 z "},"a":{"ha":744,"x_min":78,"x_max":660,"o":"m 599 161 q 613 79 599 104 q 660 42 628 54 l 642 -15 q 565 22 592 -6 q 529 107 538 50 q 303 -15 454 -15 q 138 44 199 -15 q 78 201 78 103 q 158 375 78 314 q 379 436 238 436 l 518 436 l 518 507 q 479 634 518 594 q 350 674 440 674 q 153 632 267 674 l 132 693 q 361 742 254 742 q 599 511 599 742 l 599 161 m 317 50 q 518 178 447 50 l 518 378 l 392 378 q 222 335 281 378 q 164 206 164 292 q 204 90 164 131 q 317 50 244 50 z "},"á":{"ha":744,"x_min":78,"x_max":660,"o":"m 599 161 q 613 79 599 104 q 660 42 628 54 l 642 -15 q 565 22 592 -6 q 529 107 538 50 q 303 -15 454 -15 q 138 44 199 -15 q 78 201 78 103 q 158 375 78 314 q 379 436 238 436 l 518 436 l 518 507 q 479 634 518 594 q 350 674 440 674 q 153 632 267 674 l 132 693 q 361 742 254 742 q 599 511 599 742 l 599 161 m 317 50 q 518 178 447 50 l 518 378 l 392 378 q 222 335 281 378 q 164 206 164 292 q 204 90 164 131 q 317 50 244 50 m 499 1014 l 228 896 l 201 943 l 463 1086 l 499 1014 z "},"ă":{"ha":744,"x_min":78,"x_max":660,"o":"m 599 161 q 613 79 599 104 q 660 42 628 54 l 642 -15 q 565 22 592 -6 q 529 107 538 50 q 303 -15 454 -15 q 138 44 199 -15 q 78 201 78 103 q 158 375 78 314 q 379 436 238 436 l 518 436 l 518 507 q 479 634 518 594 q 350 674 440 674 q 153 632 267 674 l 132 693 q 361 742 254 742 q 599 511 599 742 l 599 161 m 317 50 q 518 178 447 50 l 518 378 l 392 378 q 222 335 281 378 q 164 206 164 292 q 204 90 164 131 q 317 50 244 50 m 357 907 q 235 949 285 907 q 176 1060 186 990 l 232 1072 q 357 972 260 972 q 483 1072 456 972 l 539 1060 q 479 949 529 990 q 357 907 429 907 z "},"ắ":{"ha":744,"x_min":78,"x_max":660,"o":"m 599 161 q 613 79 599 104 q 660 42 628 54 l 642 -15 q 565 22 592 -6 q 529 107 538 50 q 303 -15 454 -15 q 138 44 199 -15 q 78 201 78 103 q 158 375 78 314 q 379 436 238 436 l 518 436 l 518 507 q 479 634 518 594 q 350 674 440 674 q 153 632 267 674 l 132 693 q 361 742 254 742 q 599 511 599 742 l 599 161 m 317 50 q 518 178 447 50 l 518 378 l 392 378 q 222 335 281 378 q 164 206 164 292 q 204 90 164 131 q 317 50 244 50 m 357 829 q 236 869 286 829 q 176 968 186 908 l 232 981 q 278 917 246 940 q 357 894 310 894 q 437 917 404 894 q 483 981 469 940 l 539 968 q 478 869 529 908 q 357 829 428 829 m 525 1164 l 357 997 l 321 1031 l 471 1214 l 525 1164 z "},"ặ":{"ha":744,"x_min":78,"x_max":660,"o":"m 599 161 q 613 79 599 104 q 660 42 628 54 l 642 -15 q 565 22 592 -6 q 529 107 538 50 q 303 -15 454 -15 q 138 44 199 -15 q 78 201 78 103 q 158 375 78 314 q 379 436 238 436 l 518 436 l 518 507 q 479 634 518 594 q 350 674 440 674 q 153 632 267 674 l 132 693 q 361 742 254 742 q 599 511 599 742 l 599 161 m 317 50 q 518 178 447 50 l 518 378 l 392 378 q 222 335 281 378 q 164 206 164 292 q 204 90 164 131 q 317 50 244 50 m 357 907 q 235 949 285 907 q 176 1060 186 990 l 232 1072 q 357 972 260 972 q 483 1072 456 972 l 539 1060 q 479 949 529 990 q 357 907 429 907 m 358 -236 q 314 -219 331 -236 q 297 -178 297 -203 q 314 -136 297 -153 q 358 -119 331 -119 q 401 -136 385 -119 q 418 -178 418 -153 q 401 -219 418 -203 q 358 -236 385 -236 z "},"ằ":{"ha":744,"x_min":78,"x_max":660,"o":"m 599 161 q 613 79 599 104 q 660 42 628 54 l 642 -15 q 565 22 592 -6 q 529 107 538 50 q 303 -15 454 -15 q 138 44 199 -15 q 78 201 78 103 q 158 375 78 314 q 379 436 238 436 l 518 436 l 518 507 q 479 634 518 594 q 350 674 440 674 q 153 632 267 674 l 132 693 q 361 742 254 742 q 599 511 599 742 l 599 161 m 317 50 q 518 178 447 50 l 518 378 l 392 378 q 222 335 281 378 q 164 206 164 292 q 204 90 164 131 q 317 50 244 50 m 357 829 q 236 869 286 829 q 176 968 186 908 l 232 981 q 278 917 246 940 q 357 894 310 894 q 437 917 404 894 q 483 981 469 940 l 539 968 q 478 869 529 908 q 357 829 428 829 m 406 1031 l 369 997 l 203 1164 l 256 1214 l 406 1031 z "},"ẳ":{"ha":744,"x_min":78,"x_max":660,"o":"m 599 161 q 613 79 599 104 q 660 42 628 54 l 642 -15 q 565 22 592 -6 q 529 107 538 50 q 303 -15 454 -15 q 138 44 199 -15 q 78 201 78 103 q 158 375 78 314 q 379 436 238 436 l 518 436 l 518 507 q 479 634 518 594 q 350 674 440 674 q 153 632 267 674 l 132 693 q 361 742 254 742 q 599 511 599 742 l 599 161 m 317 50 q 518 178 447 50 l 518 378 l 392 378 q 222 335 281 378 q 164 206 164 292 q 204 90 164 131 q 317 50 244 50 m 357 829 q 236 869 286 829 q 176 968 186 908 l 232 981 q 278 917 246 940 q 357 894 310 894 q 437 917 404 894 q 483 981 469 940 l 539 968 q 478 869 529 908 q 357 829 428 829 m 322 1086 q 395 1103 371 1089 q 419 1150 419 1117 q 402 1192 419 1178 q 354 1207 385 1207 q 274 1188 313 1207 l 251 1236 q 364 1267 303 1267 q 458 1236 424 1267 q 493 1156 493 1206 q 466 1082 493 1108 q 389 1049 439 1056 l 389 969 l 322 969 l 322 1086 z "},"ẵ":{"ha":744,"x_min":78,"x_max":660,"o":"m 599 161 q 613 79 599 104 q 660 42 628 54 l 642 -15 q 565 22 592 -6 q 529 107 538 50 q 303 -15 454 -15 q 138 44 199 -15 q 78 201 78 103 q 158 375 78 314 q 379 436 238 436 l 518 436 l 518 507 q 479 634 518 594 q 350 674 440 674 q 153 632 267 674 l 132 693 q 361 742 254 742 q 599 511 599 742 l 599 161 m 317 50 q 518 178 447 50 l 518 378 l 392 378 q 222 335 281 378 q 164 206 164 292 q 204 90 164 131 q 317 50 244 50 m 361 829 q 240 869 290 829 q 181 968 190 908 l 236 981 q 282 917 250 940 q 361 894 314 894 q 441 917 408 894 q 488 981 474 940 l 543 968 q 483 869 533 908 q 361 829 432 829 m 443 1039 q 397 1048 418 1039 q 346 1075 376 1057 q 309 1096 324 1089 q 281 1103 294 1103 q 240 1090 257 1103 q 203 1047 222 1076 l 153 1072 q 281 1167 204 1167 q 324 1158 304 1167 q 369 1133 344 1150 q 410 1111 394 1118 q 443 1104 425 1104 q 483 1118 465 1104 q 521 1164 500 1132 l 571 1139 q 443 1039 522 1039 z "},"ǎ":{"ha":744,"x_min":78,"x_max":660,"o":"m 599 161 q 613 79 599 104 q 660 42 628 54 l 642 -15 q 565 22 592 -6 q 529 107 538 50 q 303 -15 454 -15 q 138 44 199 -15 q 78 201 78 103 q 158 375 78 314 q 379 436 238 436 l 518 436 l 518 507 q 479 634 518 594 q 350 674 440 674 q 153 632 267 674 l 132 693 q 361 742 254 742 q 599 511 599 742 l 599 161 m 317 50 q 518 178 447 50 l 518 378 l 392 378 q 222 335 281 378 q 164 206 164 292 q 204 90 164 131 q 317 50 244 50 m 563 1026 l 383 879 l 333 879 l 153 1026 l 189 1068 l 358 951 l 526 1068 l 563 1026 z "},"â":{"ha":744,"x_min":78,"x_max":660,"o":"m 599 161 q 613 79 599 104 q 660 42 628 54 l 642 -15 q 565 22 592 -6 q 529 107 538 50 q 303 -15 454 -15 q 138 44 199 -15 q 78 201 78 103 q 158 375 78 314 q 379 436 238 436 l 518 436 l 518 507 q 479 634 518 594 q 350 674 440 674 q 153 632 267 674 l 132 693 q 361 742 254 742 q 599 511 599 742 l 599 161 m 317 50 q 518 178 447 50 l 518 378 l 392 378 q 222 335 281 378 q 164 206 164 292 q 204 90 164 131 q 317 50 244 50 m 153 936 l 332 1082 l 382 1082 l 563 936 l 526 893 l 357 1011 l 189 893 l 153 936 z "},"ấ":{"ha":744,"x_min":78,"x_max":683,"o":"m 599 161 q 613 79 599 104 q 660 42 628 54 l 642 -15 q 565 22 592 -6 q 529 107 538 50 q 303 -15 454 -15 q 138 44 199 -15 q 78 201 78 103 q 158 375 78 314 q 379 436 238 436 l 518 436 l 518 507 q 479 634 518 594 q 350 674 440 674 q 153 632 267 674 l 132 693 q 361 742 254 742 q 599 511 599 742 l 599 161 m 317 50 q 518 178 447 50 l 518 378 l 392 378 q 222 335 281 378 q 164 206 164 292 q 204 90 164 131 q 317 50 244 50 m 150 857 l 331 999 l 381 999 l 560 857 l 524 815 l 356 926 l 186 815 l 150 857 m 683 1129 l 515 963 l 479 996 l 629 1179 l 683 1129 z "},"ậ":{"ha":744,"x_min":78,"x_max":660,"o":"m 599 161 q 613 79 599 104 q 660 42 628 54 l 642 -15 q 565 22 592 -6 q 529 107 538 50 q 303 -15 454 -15 q 138 44 199 -15 q 78 201 78 103 q 158 375 78 314 q 379 436 238 436 l 518 436 l 518 507 q 479 634 518 594 q 350 674 440 674 q 153 632 267 674 l 132 693 q 361 742 254 742 q 599 511 599 742 l 599 161 m 317 50 q 518 178 447 50 l 518 378 l 392 378 q 222 335 281 378 q 164 206 164 292 q 204 90 164 131 q 317 50 244 50 m 153 936 l 332 1082 l 382 1082 l 563 936 l 526 893 l 357 1011 l 189 893 l 153 936 m 358 -236 q 314 -219 331 -236 q 297 -178 297 -203 q 314 -136 297 -153 q 358 -119 331 -119 q 401 -136 385 -119 q 418 -178 418 -153 q 401 -219 418 -203 q 358 -236 385 -236 z "},"ầ":{"ha":744,"x_min":35,"x_max":660,"o":"m 599 161 q 613 79 599 104 q 660 42 628 54 l 642 -15 q 565 22 592 -6 q 529 107 538 50 q 303 -15 454 -15 q 138 44 199 -15 q 78 201 78 103 q 158 375 78 314 q 379 436 238 436 l 518 436 l 518 507 q 479 634 518 594 q 350 674 440 674 q 153 632 267 674 l 132 693 q 361 742 254 742 q 599 511 599 742 l 599 161 m 317 50 q 518 178 447 50 l 518 378 l 392 378 q 222 335 281 378 q 164 206 164 292 q 204 90 164 131 q 317 50 244 50 m 150 857 l 331 999 l 381 999 l 560 857 l 524 815 l 356 926 l 186 815 l 150 857 m 238 996 l 201 963 l 35 1129 l 88 1179 l 238 996 z "},"ẩ":{"ha":744,"x_min":78,"x_max":668,"o":"m 599 161 q 613 79 599 104 q 660 42 628 54 l 642 -15 q 565 22 592 -6 q 529 107 538 50 q 303 -15 454 -15 q 138 44 199 -15 q 78 201 78 103 q 158 375 78 314 q 379 436 238 436 l 518 436 l 518 507 q 479 634 518 594 q 350 674 440 674 q 153 632 267 674 l 132 693 q 361 742 254 742 q 599 511 599 742 l 599 161 m 317 50 q 518 178 447 50 l 518 378 l 392 378 q 222 335 281 378 q 164 206 164 292 q 204 90 164 131 q 317 50 244 50 m 150 857 l 331 999 l 381 999 l 560 857 l 524 815 l 356 926 l 186 815 l 150 857 m 497 1074 q 570 1090 546 1076 q 594 1138 594 1104 q 577 1180 594 1165 q 529 1194 560 1194 q 449 1175 488 1194 l 426 1224 q 539 1254 478 1254 q 633 1224 599 1254 q 668 1143 668 1193 q 641 1069 668 1096 q 564 1036 614 1043 l 564 957 l 497 957 l 497 1074 z "},"ẫ":{"ha":744,"x_min":78,"x_max":660,"o":"m 599 161 q 613 79 599 104 q 660 42 628 54 l 642 -15 q 565 22 592 -6 q 529 107 538 50 q 303 -15 454 -15 q 138 44 199 -15 q 78 201 78 103 q 158 375 78 314 q 379 436 238 436 l 518 436 l 518 507 q 479 634 518 594 q 350 674 440 674 q 153 632 267 674 l 132 693 q 361 742 254 742 q 599 511 599 742 l 599 161 m 317 50 q 518 178 447 50 l 518 378 l 392 378 q 222 335 281 378 q 164 206 164 292 q 204 90 164 131 q 317 50 244 50 m 150 843 l 331 985 l 381 985 l 560 843 l 524 801 l 356 913 l 186 801 l 150 843 m 438 1036 q 392 1045 413 1036 q 340 1072 371 1054 q 303 1093 318 1086 q 275 1100 289 1100 q 234 1087 251 1100 q 197 1044 217 1074 l 147 1069 q 275 1164 199 1164 q 319 1156 299 1164 q 364 1131 339 1147 q 404 1108 389 1115 q 438 1101 419 1101 q 477 1115 460 1101 q 515 1161 494 1129 l 565 1136 q 438 1036 517 1036 z "},"ȁ":{"ha":744,"x_min":78,"x_max":660,"o":"m 599 161 q 613 79 599 104 q 660 42 628 54 l 642 -15 q 565 22 592 -6 q 529 107 538 50 q 303 -15 454 -15 q 138 44 199 -15 q 78 201 78 103 q 158 375 78 314 q 379 436 238 436 l 518 436 l 518 507 q 479 634 518 594 q 350 674 440 674 q 153 632 267 674 l 132 693 q 361 742 254 742 q 599 511 599 742 l 599 161 m 317 50 q 518 178 447 50 l 518 378 l 392 378 q 222 335 281 378 q 164 206 164 292 q 204 90 164 131 q 317 50 244 50 m 317 917 l 264 892 l 135 1089 l 207 1126 l 317 917 m 485 922 l 432 899 l 315 1088 l 388 1126 l 485 922 z "},"ä":{"ha":744,"x_min":78,"x_max":660,"o":"m 599 161 q 613 79 599 104 q 660 42 628 54 l 642 -15 q 565 22 592 -6 q 529 107 538 50 q 303 -15 454 -15 q 138 44 199 -15 q 78 201 78 103 q 158 375 78 314 q 379 436 238 436 l 518 436 l 518 507 q 479 634 518 594 q 350 674 440 674 q 153 632 267 674 l 132 693 q 361 742 254 742 q 599 511 599 742 l 599 161 m 317 50 q 518 178 447 50 l 518 378 l 392 378 q 222 335 281 378 q 164 206 164 292 q 204 90 164 131 q 317 50 244 50 m 226 1031 q 266 1015 250 1031 q 282 975 282 999 q 266 936 282 951 q 226 921 250 921 q 187 936 203 921 q 171 975 171 951 q 187 1015 171 999 q 226 1031 203 1031 m 489 1031 q 528 1015 513 1031 q 544 975 544 999 q 528 936 544 951 q 489 921 513 921 q 449 936 465 921 q 433 975 433 951 q 449 1015 433 999 q 489 1031 465 1031 z "},"ǟ":{"ha":744,"x_min":78,"x_max":660,"o":"m 599 161 q 613 79 599 104 q 660 42 628 54 l 642 -15 q 565 22 592 -6 q 529 107 538 50 q 303 -15 454 -15 q 138 44 199 -15 q 78 201 78 103 q 158 375 78 314 q 379 436 238 436 l 518 436 l 518 507 q 479 634 518 594 q 350 674 440 674 q 153 632 267 674 l 132 693 q 361 742 254 742 q 599 511 599 742 l 599 161 m 317 50 q 518 178 447 50 l 518 378 l 392 378 q 222 335 281 378 q 164 206 164 292 q 204 90 164 131 q 317 50 244 50 m 228 989 q 267 973 251 989 q 283 933 283 957 q 267 894 283 910 q 228 879 251 879 q 188 894 204 879 q 172 933 172 910 q 188 973 172 957 q 228 989 204 989 m 490 989 q 530 973 514 989 q 546 933 546 957 q 530 894 546 910 q 490 879 514 879 q 451 894 467 879 q 435 933 435 910 q 451 973 435 957 q 490 989 467 989 m 192 1074 l 192 1139 l 526 1139 l 526 1074 l 192 1074 z "},"ȧ":{"ha":744,"x_min":78,"x_max":660,"o":"m 599 161 q 613 79 599 104 q 660 42 628 54 l 642 -15 q 565 22 592 -6 q 529 107 538 50 q 303 -15 454 -15 q 138 44 199 -15 q 78 201 78 103 q 158 375 78 314 q 379 436 238 436 l 518 436 l 518 507 q 479 634 518 594 q 350 674 440 674 q 153 632 267 674 l 132 693 q 361 742 254 742 q 599 511 599 742 l 599 161 m 317 50 q 518 178 447 50 l 518 378 l 392 378 q 222 335 281 378 q 164 206 164 292 q 204 90 164 131 q 317 50 244 50 m 357 1046 q 401 1029 385 1046 q 418 988 418 1013 q 401 946 418 963 q 357 929 385 929 q 314 946 331 929 q 297 988 297 963 q 314 1029 297 1013 q 357 1046 331 1046 z "},"ạ":{"ha":744,"x_min":78,"x_max":660,"o":"m 599 161 q 613 79 599 104 q 660 42 628 54 l 642 -15 q 565 22 592 -6 q 529 107 538 50 q 303 -15 454 -15 q 138 44 199 -15 q 78 201 78 103 q 158 375 78 314 q 379 436 238 436 l 518 436 l 518 507 q 479 634 518 594 q 350 674 440 674 q 153 632 267 674 l 132 693 q 361 742 254 742 q 599 511 599 742 l 599 161 m 317 50 q 518 178 447 50 l 518 378 l 392 378 q 222 335 281 378 q 164 206 164 292 q 204 90 164 131 q 317 50 244 50 m 358 -236 q 314 -219 331 -236 q 297 -178 297 -203 q 314 -136 297 -153 q 358 -119 331 -119 q 401 -136 385 -119 q 418 -178 418 -153 q 401 -219 418 -203 q 358 -236 385 -236 z "},"ǡ":{"ha":744,"x_min":78,"x_max":660,"o":"m 599 161 q 613 79 599 104 q 660 42 628 54 l 642 -15 q 565 22 592 -6 q 529 107 538 50 q 303 -15 454 -15 q 138 44 199 -15 q 78 201 78 103 q 158 375 78 314 q 379 436 238 436 l 518 436 l 518 507 q 479 634 518 594 q 350 674 440 674 q 153 632 267 674 l 132 693 q 361 742 254 742 q 599 511 599 742 l 599 161 m 317 50 q 518 178 447 50 l 518 378 l 392 378 q 222 335 281 378 q 164 206 164 292 q 204 90 164 131 q 317 50 244 50 m 357 976 q 401 960 385 976 q 418 918 418 943 q 401 876 418 893 q 357 860 385 860 q 314 876 331 860 q 297 918 297 893 q 314 960 297 943 q 357 976 331 976 m 192 1051 l 192 1117 l 526 1117 l 526 1051 l 192 1051 z "},"à":{"ha":744,"x_min":78,"x_max":660,"o":"m 599 161 q 613 79 599 104 q 660 42 628 54 l 642 -15 q 565 22 592 -6 q 529 107 538 50 q 303 -15 454 -15 q 138 44 199 -15 q 78 201 78 103 q 158 375 78 314 q 379 436 238 436 l 518 436 l 518 507 q 479 634 518 594 q 350 674 440 674 q 153 632 267 674 l 132 693 q 361 742 254 742 q 599 511 599 742 l 599 161 m 317 50 q 518 178 447 50 l 518 378 l 392 378 q 222 335 281 378 q 164 206 164 292 q 204 90 164 131 q 317 50 244 50 m 513 943 l 488 896 l 215 1014 l 251 1086 l 513 943 z "},"ả":{"ha":744,"x_min":78,"x_max":660,"o":"m 599 161 q 613 79 599 104 q 660 42 628 54 l 642 -15 q 565 22 592 -6 q 529 107 538 50 q 303 -15 454 -15 q 138 44 199 -15 q 78 201 78 103 q 158 375 78 314 q 379 436 238 436 l 518 436 l 518 507 q 479 634 518 594 q 350 674 440 674 q 153 632 267 674 l 132 693 q 361 742 254 742 q 599 511 599 742 l 599 161 m 317 50 q 518 178 447 50 l 518 378 l 392 378 q 222 335 281 378 q 164 206 164 292 q 204 90 164 131 q 317 50 244 50 m 325 972 q 398 989 374 975 q 422 1036 422 1003 q 405 1078 422 1064 q 357 1093 388 1093 q 276 1074 315 1093 l 254 1122 q 367 1153 306 1153 q 461 1122 426 1153 q 496 1042 496 1092 q 469 968 496 994 q 392 935 442 942 l 392 856 l 325 856 l 325 972 z "},"ȃ":{"ha":744,"x_min":78,"x_max":660,"o":"m 599 161 q 613 79 599 104 q 660 42 628 54 l 642 -15 q 565 22 592 -6 q 529 107 538 50 q 303 -15 454 -15 q 138 44 199 -15 q 78 201 78 103 q 158 375 78 314 q 379 436 238 436 l 518 436 l 518 507 q 479 634 518 594 q 350 674 440 674 q 153 632 267 674 l 132 693 q 361 742 254 742 q 599 511 599 742 l 599 161 m 317 50 q 518 178 447 50 l 518 378 l 392 378 q 222 335 281 378 q 164 206 164 292 q 204 90 164 131 q 317 50 244 50 m 357 1031 q 479 989 429 1031 q 539 878 529 947 l 483 865 q 357 965 456 965 q 232 865 260 965 l 176 878 q 235 989 186 947 q 357 1031 285 1031 z "},"ɑ":{"ha":813,"x_min":89,"x_max":725,"o":"m 658 169 q 673 91 658 115 q 725 51 688 67 l 699 -11 q 618 33 644 6 q 583 108 592 61 q 494 18 549 51 q 368 -15 439 -15 q 164 85 239 -15 q 89 360 89 186 q 124 558 89 471 q 226 693 160 644 q 379 742 292 742 q 498 713 450 742 q 582 639 546 685 l 589 726 l 658 726 l 658 169 m 378 51 q 492 85 444 51 q 578 186 539 118 l 578 565 q 389 675 500 675 q 233 593 292 675 q 175 361 174 511 q 228 131 175 211 q 378 51 282 51 z "},"ɒ":{"ha":813,"x_min":88,"x_max":724,"o":"m 444 742 q 649 641 574 742 q 724 367 724 540 q 688 169 724 256 q 587 33 653 82 q 433 -15 521 -15 q 315 13 363 -15 q 231 88 267 42 l 224 0 l 154 0 l 154 557 q 140 635 154 611 q 88 675 125 660 l 114 738 q 194 693 168 721 q 229 618 221 665 q 319 708 264 675 q 444 742 374 742 m 424 51 q 578 133 519 51 q 638 361 638 214 q 585 594 638 514 q 435 675 532 675 q 321 642 368 675 q 235 540 274 608 l 235 161 q 424 51 313 51 z "},"ā":{"ha":744,"x_min":78,"x_max":660,"o":"m 599 161 q 613 79 599 104 q 660 42 628 54 l 642 -15 q 565 22 592 -6 q 529 107 538 50 q 303 -15 454 -15 q 138 44 199 -15 q 78 201 78 103 q 158 375 78 314 q 379 436 238 436 l 518 436 l 518 507 q 479 634 518 594 q 350 674 440 674 q 153 632 267 674 l 132 693 q 361 742 254 742 q 599 511 599 742 l 599 161 m 317 50 q 518 178 447 50 l 518 378 l 392 378 q 222 335 281 378 q 164 206 164 292 q 204 90 164 131 q 317 50 244 50 m 190 939 l 190 1004 l 525 1004 l 525 939 l 190 939 z "},"ą":{"ha":744,"x_min":78,"x_max":660,"o":"m 642 -15 q 510 -94 549 -57 q 472 -179 472 -131 q 494 -232 472 -212 q 560 -251 515 -251 q 640 -242 597 -251 l 632 -308 q 551 -318 583 -318 q 438 -283 478 -318 q 397 -190 397 -247 q 444 -81 397 -128 q 586 6 490 -33 q 529 107 539 33 q 303 -15 454 -15 q 138 44 199 -15 q 78 201 78 103 q 158 375 78 314 q 379 436 238 436 l 518 436 l 518 507 q 479 634 518 594 q 350 674 440 674 q 153 632 267 674 l 132 693 q 361 742 254 742 q 599 511 599 742 l 599 161 q 613 79 599 104 q 660 42 628 54 l 642 -15 m 317 50 q 518 178 447 50 l 518 378 l 392 378 q 222 335 281 378 q 164 206 164 292 q 204 90 164 131 q 317 50 244 50 z "},"å":{"ha":744,"x_min":78,"x_max":660,"o":"m 599 161 q 613 79 599 104 q 660 42 628 54 l 642 -15 q 565 22 592 -6 q 529 107 538 50 q 303 -15 454 -15 q 138 44 199 -15 q 78 201 78 103 q 158 375 78 314 q 379 436 238 436 l 518 436 l 518 507 q 479 634 518 594 q 350 674 440 674 q 153 632 267 674 l 132 693 q 361 742 254 742 q 599 511 599 742 l 599 161 m 317 50 q 518 178 447 50 l 518 378 l 392 378 q 222 335 281 378 q 164 206 164 292 q 204 90 164 131 q 317 50 244 50 m 358 1140 q 456 1103 418 1140 q 494 1010 494 1067 q 456 916 494 953 q 358 879 418 879 q 259 916 297 879 q 221 1010 221 953 q 259 1103 221 1067 q 358 1140 297 1140 m 358 1090 q 301 1069 321 1090 q 281 1010 281 1047 q 301 950 281 971 q 358 929 321 929 q 415 950 394 929 q 435 1010 435 971 q 415 1069 435 1047 q 358 1090 394 1090 z "},"ǻ":{"ha":744,"x_min":78,"x_max":660,"o":"m 232 1088 l 210 1135 l 471 1268 l 507 1196 l 232 1088 m 222 947 q 260 1041 222 1004 q 360 1078 299 1078 q 458 1041 419 1078 q 496 947 496 1004 q 458 853 496 890 q 360 817 419 817 q 260 853 299 817 q 222 947 222 890 m 436 947 q 416 1006 436 985 q 360 1028 396 1028 q 302 1006 322 1028 q 282 947 282 985 q 302 888 282 908 q 360 867 322 867 q 416 888 396 867 q 436 947 436 908 m 599 161 q 613 79 599 104 q 660 42 628 54 l 642 -15 q 565 22 592 -6 q 529 107 538 50 q 303 -15 454 -15 q 138 44 199 -15 q 78 201 78 103 q 158 375 78 314 q 379 436 238 436 l 518 436 l 518 507 q 479 634 518 594 q 350 674 440 674 q 153 632 267 674 l 132 693 q 361 742 254 742 q 599 511 599 742 l 599 161 m 317 50 q 518 178 447 50 l 518 378 l 392 378 q 222 335 281 378 q 164 206 164 292 q 204 90 164 131 q 317 50 244 50 z "},"ⱥ":{"ha":744,"x_min":78,"x_max":660,"o":"m 599 161 q 613 79 599 104 q 660 42 628 54 l 642 -15 q 565 22 592 -6 q 529 107 538 50 q 303 -15 454 -15 l 289 -15 l 267 -97 l 224 -86 l 244 -10 q 122 62 165 6 q 78 201 78 118 q 154 374 78 313 q 367 438 231 435 l 429 664 q 350 674 399 674 q 153 632 267 674 l 132 693 q 361 742 254 742 q 447 732 413 742 l 472 822 l 515 810 l 490 718 q 599 511 599 668 l 599 161 m 518 507 q 469 643 518 603 l 414 438 l 518 438 l 518 507 m 317 50 q 518 178 447 50 l 518 378 l 397 378 l 307 50 l 317 50 m 164 206 q 190 109 164 147 q 263 57 215 71 l 350 376 q 212 326 260 368 q 164 206 164 283 z "},"ã":{"ha":744,"x_min":78,"x_max":660,"o":"m 599 161 q 613 79 599 104 q 660 42 628 54 l 642 -15 q 565 22 592 -6 q 529 107 538 50 q 303 -15 454 -15 q 138 44 199 -15 q 78 201 78 103 q 158 375 78 314 q 379 436 238 436 l 518 436 l 518 507 q 479 634 518 594 q 350 674 440 674 q 153 632 267 674 l 132 693 q 361 742 254 742 q 599 511 599 742 l 599 161 m 317 50 q 518 178 447 50 l 518 378 l 392 378 q 222 335 281 378 q 164 206 164 292 q 204 90 164 131 q 317 50 244 50 m 439 925 q 393 934 414 925 q 342 961 372 943 q 305 982 319 975 q 276 989 290 989 q 235 976 253 989 q 199 933 218 963 l 149 958 q 276 1053 200 1053 q 320 1044 300 1053 q 365 1019 340 1036 q 406 997 390 1004 q 439 990 421 990 q 478 1004 461 990 q 517 1050 496 1018 l 567 1025 q 439 925 518 925 z "},"ɐ":{"ha":744,"x_min":85,"x_max":667,"o":"m 394 53 q 592 94 478 53 l 613 33 q 383 -15 490 -15 q 146 215 146 -15 l 146 565 q 131 647 146 622 q 85 685 117 672 l 103 742 q 180 704 153 732 q 215 619 207 676 q 442 742 290 742 q 606 683 546 742 q 667 525 667 624 q 587 351 667 413 q 365 290 507 290 l 226 290 l 226 219 q 265 92 226 132 q 394 53 304 53 m 428 676 q 226 549 297 676 l 226 349 l 353 349 q 522 392 464 349 q 581 521 581 435 q 540 636 581 596 q 428 676 500 676 z "},"æ":{"ha":1176,"x_min":78,"x_max":1094,"o":"m 1094 390 q 1092 332 1094 360 l 607 332 q 673 122 613 190 q 832 53 733 53 q 933 70 889 53 q 1028 125 978 88 l 1067 74 q 955 7 1013 29 q 828 -15 897 -15 q 674 23 740 -15 q 569 133 608 61 q 451 19 514 54 q 306 -15 388 -15 q 139 44 200 -15 q 78 201 78 104 q 159 376 78 314 q 382 438 240 438 l 521 438 l 521 507 q 481 634 521 594 q 353 674 442 674 q 156 632 269 674 l 133 693 q 363 742 256 742 q 508 706 454 742 q 585 601 563 671 q 817 742 660 742 q 1023 648 951 742 q 1094 390 1094 554 m 1014 415 q 964 606 1014 538 q 815 675 914 675 q 669 606 725 675 q 607 394 613 536 l 1014 394 l 1014 415 m 318 50 q 440 84 388 50 q 543 196 492 118 q 521 356 521 271 l 521 378 l 393 378 q 224 334 283 378 q 165 206 165 290 q 206 90 165 131 q 318 50 246 50 z "},"ǽ":{"ha":1176,"x_min":78,"x_max":1094,"o":"m 1094 390 q 1092 332 1094 360 l 607 332 q 673 122 613 190 q 832 53 733 53 q 933 70 889 53 q 1028 125 978 88 l 1067 74 q 955 7 1013 29 q 828 -15 897 -15 q 674 23 740 -15 q 569 133 608 61 q 451 19 514 54 q 306 -15 388 -15 q 139 44 200 -15 q 78 201 78 104 q 159 376 78 314 q 382 438 240 438 l 521 438 l 521 507 q 481 634 521 594 q 353 674 442 674 q 156 632 269 674 l 133 693 q 363 742 256 742 q 508 706 454 742 q 585 601 563 671 q 817 742 660 742 q 1023 648 951 742 q 1094 390 1094 554 m 1014 415 q 964 606 1014 538 q 815 675 914 675 q 669 606 725 675 q 607 394 613 536 l 1014 394 l 1014 415 m 318 50 q 440 84 388 50 q 543 196 492 118 q 521 356 521 271 l 521 378 l 393 378 q 224 334 283 378 q 165 206 165 290 q 206 90 165 131 q 318 50 246 50 m 731 1014 l 460 896 l 433 943 l 694 1086 l 731 1014 z "},"ǣ":{"ha":1176,"x_min":78,"x_max":1094,"o":"m 1094 390 q 1092 332 1094 360 l 607 332 q 673 122 613 190 q 832 53 733 53 q 933 70 889 53 q 1028 125 978 88 l 1067 74 q 955 7 1013 29 q 828 -15 897 -15 q 674 23 740 -15 q 569 133 608 61 q 451 19 514 54 q 306 -15 388 -15 q 139 44 200 -15 q 78 201 78 104 q 159 376 78 314 q 382 438 240 438 l 521 438 l 521 507 q 481 634 521 594 q 353 674 442 674 q 156 632 269 674 l 133 693 q 363 742 256 742 q 508 706 454 742 q 585 601 563 671 q 817 742 660 742 q 1023 648 951 742 q 1094 390 1094 554 m 1014 415 q 964 606 1014 538 q 815 675 914 675 q 669 606 725 675 q 607 394 613 536 l 1014 394 l 1014 415 m 318 50 q 440 84 388 50 q 543 196 492 118 q 521 356 521 271 l 521 378 l 393 378 q 224 334 283 378 q 165 206 165 290 q 206 90 165 131 q 318 50 246 50 m 422 939 l 422 1004 l 757 1004 l 757 939 l 422 939 z "},"b":{"ha":807,"x_min":147,"x_max":711,"o":"m 446 742 q 642 644 572 742 q 711 367 711 547 q 638 88 711 190 q 435 -15 565 -15 q 316 14 369 -15 q 226 92 263 43 l 218 0 l 147 0 l 147 1022 l 228 1032 l 228 625 q 446 742 314 742 m 419 51 q 572 131 518 51 q 625 367 625 211 q 429 675 625 675 q 317 642 364 675 q 228 550 269 610 l 228 168 q 311 83 263 114 q 419 51 360 51 z "},"ḃ":{"ha":807,"x_min":147,"x_max":711,"o":"m 446 742 q 642 644 572 742 q 711 367 711 547 q 638 88 711 190 q 435 -15 565 -15 q 316 14 369 -15 q 226 92 263 43 l 218 0 l 147 0 l 147 1022 l 228 1032 l 228 625 q 446 742 314 742 m 419 51 q 572 131 518 51 q 625 367 625 211 q 429 675 625 675 q 317 642 364 675 q 228 550 269 610 l 228 168 q 311 83 263 114 q 419 51 360 51 m 419 1292 q 464 1275 447 1292 q 481 1233 481 1258 q 464 1192 481 1208 q 419 1175 447 1175 q 376 1192 393 1175 q 360 1233 360 1208 q 376 1275 360 1258 q 419 1292 393 1292 z "},"ḅ":{"ha":807,"x_min":147,"x_max":711,"o":"m 446 742 q 642 644 572 742 q 711 367 711 547 q 638 88 711 190 q 435 -15 565 -15 q 316 14 369 -15 q 226 92 263 43 l 218 0 l 147 0 l 147 1022 l 228 1032 l 228 625 q 446 742 314 742 m 419 51 q 572 131 518 51 q 625 367 625 211 q 429 675 625 675 q 317 642 364 675 q 228 550 269 610 l 228 168 q 311 83 263 114 q 419 51 360 51 m 421 -236 q 376 -219 393 -236 q 360 -178 360 -203 q 376 -136 360 -153 q 421 -119 393 -119 q 464 -136 447 -119 q 481 -178 481 -153 q 464 -219 481 -203 q 421 -236 447 -236 z "},"ꞵ":{"ha":818,"x_min":147,"x_max":746,"o":"m 457 557 q 663 485 581 553 q 746 281 746 417 q 706 124 746 192 q 601 21 667 57 q 456 -15 535 -15 q 229 75 324 -15 l 229 -274 l 147 -286 l 147 751 q 220 958 147 885 q 418 1032 293 1032 q 603 967 531 1032 q 676 789 676 901 q 619 628 678 686 q 457 557 560 569 m 450 53 q 603 114 543 53 q 664 279 664 175 q 590 459 663 397 q 382 521 517 521 l 315 521 l 325 585 l 388 585 q 535 632 472 585 q 599 786 599 679 q 549 921 597 875 q 418 967 500 967 q 279 913 329 967 q 229 750 229 858 l 229 147 q 328 75 276 97 q 450 53 381 53 z "},"ɓ":{"ha":807,"x_min":147,"x_max":711,"o":"m 446 742 q 642 644 572 742 q 711 367 711 547 q 638 88 711 190 q 435 -15 565 -15 q 316 14 369 -15 q 226 92 263 43 l 218 0 l 147 0 l 147 846 q 201 982 147 932 q 349 1032 256 1032 q 518 993 436 1032 l 490 933 q 354 965 418 965 q 259 936 290 965 q 228 843 228 907 l 228 625 q 446 742 314 742 m 419 51 q 572 131 518 51 q 625 367 625 211 q 429 675 625 675 q 317 642 364 675 q 228 550 269 610 l 228 168 q 311 83 263 114 q 419 51 360 51 z "},"ʭ":{"ha":451,"x_min":42,"x_max":410,"o":"m 42 740 l 410 740 l 410 557 l 347 557 l 347 682 l 104 682 l 104 557 l 42 557 l 42 740 m 42 185 l 410 185 l 410 1 l 347 1 l 347 126 l 104 126 l 104 1 l 42 1 l 42 185 z "},"ʘ":{"ha":1099,"x_min":92,"x_max":1007,"o":"m 549 967 q 788 909 685 967 q 949 740 892 851 q 1007 475 1007 629 q 950 213 1007 324 q 789 44 893 103 q 549 -15 685 -15 q 310 42 414 -15 q 149 210 207 100 q 92 474 92 321 q 150 737 92 625 q 312 908 208 849 q 549 967 415 967 m 549 899 q 274 790 376 899 q 171 474 171 681 q 219 242 171 338 q 352 100 267 147 q 549 53 438 53 q 826 160 725 53 q 928 475 928 268 q 826 790 928 682 q 549 899 724 899 m 549 533 q 593 517 576 533 q 610 475 610 500 q 593 433 610 450 q 549 417 576 417 q 506 433 522 417 q 489 475 489 450 q 506 517 489 500 q 549 533 522 533 z "},"ʬ":{"ha":642,"x_min":57,"x_max":585,"o":"m 488 556 l 404 556 l 322 856 l 240 556 l 156 556 l 57 921 l 129 921 l 201 613 l 288 921 l 361 921 l 444 613 l 518 921 l 585 921 l 488 556 m 488 0 l 404 0 l 322 300 l 240 0 l 156 0 l 57 365 l 129 365 l 201 57 l 288 365 l 361 365 l 444 57 l 518 365 l 585 365 l 488 0 z "},"ƀ":{"ha":814,"x_min":49,"x_max":718,"o":"m 453 742 q 649 644 579 742 q 718 367 718 547 q 645 88 718 190 q 442 -15 572 -15 q 323 14 376 -15 q 233 92 269 43 l 225 0 l 154 0 l 154 856 l 49 856 l 49 921 l 154 921 l 154 1022 l 235 1032 l 235 921 l 464 921 l 464 856 l 235 856 l 235 625 q 453 742 321 742 m 426 51 q 578 131 525 51 q 632 367 632 211 q 436 675 632 675 q 324 642 371 675 q 235 550 276 610 l 235 168 q 318 83 269 114 q 426 51 367 51 z "},"ƃ":{"ha":807,"x_min":147,"x_max":711,"o":"m 446 742 q 642 644 572 742 q 711 367 711 547 q 638 88 711 190 q 435 -15 565 -15 q 316 14 369 -15 q 226 92 263 43 l 218 0 l 147 0 l 147 1022 l 556 1022 l 543 957 l 228 957 l 228 625 q 446 742 314 742 m 419 51 q 572 131 518 51 q 625 367 625 211 q 429 675 625 675 q 317 642 364 675 q 228 550 269 610 l 228 168 q 311 83 263 114 q 419 51 360 51 z "},"c":{"ha":651,"x_min":89,"x_max":606,"o":"m 396 742 q 507 724 458 742 q 601 668 556 707 l 561 615 q 487 658 525 644 q 400 672 449 672 q 236 592 297 672 q 175 360 175 513 q 235 132 175 208 q 399 56 296 56 q 487 71 447 56 q 567 117 526 86 l 606 63 q 397 -15 514 -15 q 235 29 304 -15 q 127 158 165 74 q 89 358 89 242 q 127 560 89 474 q 235 694 165 647 q 396 742 304 742 z "},"ć":{"ha":651,"x_min":89,"x_max":606,"o":"m 396 742 q 507 724 458 742 q 601 668 556 707 l 561 615 q 487 658 525 644 q 400 672 449 672 q 236 592 297 672 q 175 360 175 513 q 235 132 175 208 q 399 56 296 56 q 487 71 447 56 q 567 117 526 86 l 606 63 q 397 -15 514 -15 q 235 29 304 -15 q 127 158 165 74 q 89 358 89 242 q 127 560 89 474 q 235 694 165 647 q 396 742 304 742 m 538 1014 l 267 896 l 240 943 l 501 1086 l 538 1014 z "},"č":{"ha":651,"x_min":89,"x_max":606,"o":"m 396 742 q 507 724 458 742 q 601 668 556 707 l 561 615 q 487 658 525 644 q 400 672 449 672 q 236 592 297 672 q 175 360 175 513 q 235 132 175 208 q 399 56 296 56 q 487 71 447 56 q 567 117 526 86 l 606 63 q 397 -15 514 -15 q 235 29 304 -15 q 127 158 165 74 q 89 358 89 242 q 127 560 89 474 q 235 694 165 647 q 396 742 304 742 m 601 1026 l 422 879 l 372 879 l 192 1026 l 228 1068 l 397 951 l 565 1068 l 601 1026 z "},"ç":{"ha":651,"x_min":89,"x_max":606,"o":"m 414 -89 q 510 -122 479 -94 q 542 -194 542 -150 q 500 -283 542 -251 q 396 -315 458 -315 q 285 -286 329 -315 l 310 -236 q 394 -257 347 -257 q 449 -242 428 -257 q 471 -194 471 -226 q 441 -149 471 -164 q 347 -133 411 -133 l 358 -12 q 161 99 233 1 q 89 358 89 196 q 127 560 89 474 q 235 694 165 647 q 396 742 304 742 q 507 724 458 742 q 601 668 556 707 l 561 615 q 487 658 525 644 q 400 672 449 672 q 236 592 297 672 q 175 360 175 513 q 235 132 175 208 q 399 56 296 56 q 487 71 447 56 q 567 117 526 86 l 606 63 q 414 -15 524 -10 l 414 -89 z "},"ĉ":{"ha":651,"x_min":89,"x_max":606,"o":"m 396 742 q 507 724 458 742 q 601 668 556 707 l 561 615 q 487 658 525 644 q 400 672 449 672 q 236 592 297 672 q 175 360 175 513 q 235 132 175 208 q 399 56 296 56 q 487 71 447 56 q 567 117 526 86 l 606 63 q 397 -15 514 -15 q 235 29 304 -15 q 127 158 165 74 q 89 358 89 242 q 127 560 89 474 q 235 694 165 647 q 396 742 304 742 m 192 936 l 371 1082 l 421 1082 l 601 936 l 565 893 l 396 1011 l 228 893 l 192 936 z "},"ɕ":{"ha":667,"x_min":89,"x_max":628,"o":"m 476 303 q 587 264 546 303 q 628 161 628 225 q 566 32 628 79 q 401 -15 504 -15 q 276 8 332 -15 l 231 -90 l 174 -67 l 222 38 q 124 165 158 83 q 89 358 89 247 q 127 560 89 474 q 235 694 165 647 q 396 742 304 742 q 507 724 458 742 q 601 668 556 707 l 561 614 q 487 658 525 644 q 400 672 449 672 q 236 592 297 672 q 175 360 175 513 q 256 108 175 189 q 353 258 303 214 q 476 303 404 303 m 407 56 q 513 81 472 56 q 554 161 554 107 q 534 219 554 199 q 474 239 514 239 q 388 205 422 239 q 308 75 353 171 q 407 56 351 56 z "},"ċ":{"ha":651,"x_min":89,"x_max":606,"o":"m 396 742 q 507 724 458 742 q 601 668 556 707 l 561 615 q 487 658 525 644 q 400 672 449 672 q 236 592 297 672 q 175 360 175 513 q 235 132 175 208 q 399 56 296 56 q 487 71 447 56 q 567 117 526 86 l 606 63 q 397 -15 514 -15 q 235 29 304 -15 q 127 158 165 74 q 89 358 89 242 q 127 560 89 474 q 235 694 165 647 q 396 742 304 742 m 396 1046 q 440 1029 424 1046 q 457 988 457 1013 q 440 946 457 963 q 396 929 424 929 q 353 946 369 929 q 336 988 336 963 q 353 1029 336 1013 q 396 1046 369 1046 z "},"ƈ":{"ha":651,"x_min":89,"x_max":836,"o":"m 694 1032 q 836 985 775 1032 l 803 933 q 752 958 775 950 q 697 965 729 965 q 601 850 601 965 l 601 668 l 567 622 q 489 660 528 647 q 400 672 450 672 q 236 592 297 672 q 175 360 175 513 q 235 132 175 208 q 399 56 296 56 q 487 71 447 56 q 567 117 526 86 l 606 63 q 397 -15 514 -15 q 235 29 304 -15 q 127 158 165 74 q 89 358 89 242 q 127 560 89 474 q 235 694 165 647 q 396 742 304 742 q 521 714 465 742 l 521 846 q 567 985 521 938 q 694 1032 614 1032 z "},"ʗ":{"ha":678,"x_min":115,"x_max":633,"o":"m 432 742 q 535 724 489 742 q 628 668 582 707 l 589 615 q 515 658 553 644 q 432 672 478 672 q 264 558 325 672 q 203 222 203 444 q 263 -108 203 3 q 428 -218 324 -218 q 515 -203 475 -218 q 593 -156 554 -187 l 633 -211 q 428 -289 540 -289 q 262 -230 332 -289 q 153 -56 192 -171 q 115 221 115 58 q 153 501 115 383 q 263 680 192 618 q 432 742 335 742 z "},"ȼ":{"ha":651,"x_min":89,"x_max":606,"o":"m 606 63 q 397 -15 514 -15 q 300 -1 343 -15 l 274 -97 l 229 -86 l 257 17 q 133 145 178 57 q 89 358 89 233 q 127 560 89 474 q 235 694 165 647 q 396 742 304 742 q 456 738 428 742 l 479 822 l 522 810 l 500 726 q 601 668 553 710 l 561 615 q 481 660 526 644 l 319 69 q 399 56 353 56 q 487 71 447 56 q 567 117 526 86 l 606 63 m 175 360 q 278 90 175 164 l 438 669 q 400 672 413 672 q 236 592 297 672 q 175 360 175 513 z "},"d":{"ha":813,"x_min":96,"x_max":665,"o":"m 665 1022 l 665 0 l 596 0 l 586 111 q 368 -15 511 -15 q 169 85 242 -15 q 96 360 96 186 q 130 558 96 472 q 228 693 164 644 q 381 742 293 742 q 585 643 504 742 l 585 1032 l 665 1022 m 381 51 q 498 85 450 51 q 585 186 546 118 l 585 565 q 394 675 507 675 q 238 593 296 675 q 182 361 181 511 q 235 131 182 211 q 381 51 288 51 z "},"ð":{"ha":772,"x_min":89,"x_max":676,"o":"m 450 922 q 622 706 568 833 q 676 389 676 579 q 596 90 676 196 q 379 -15 515 -15 q 168 76 247 -15 q 89 324 89 167 q 120 484 89 410 q 213 604 151 558 q 360 650 274 650 q 585 539 492 650 q 526 726 569 644 q 401 872 482 807 l 294 765 l 236 792 l 347 907 q 178 969 256 954 l 196 1033 q 397 957 303 1013 l 493 1058 l 542 1015 l 450 922 m 379 51 q 538 139 481 51 q 594 392 594 226 q 592 458 594 419 q 371 585 500 585 q 223 512 274 585 q 172 325 172 439 q 227 123 172 194 q 379 51 282 51 z "},"ȸ":{"ha":1189,"x_min":96,"x_max":1093,"o":"m 844 742 q 1026 644 960 742 q 1093 367 1093 546 q 1022 88 1093 192 q 831 -15 951 -15 q 717 20 767 -15 q 636 113 668 56 l 628 0 l 568 0 l 558 111 q 472 19 524 53 q 354 -15 421 -15 q 218 31 276 -15 q 128 161 160 76 q 96 360 96 246 q 129 558 96 471 q 224 693 163 644 q 367 742 285 742 q 557 631 481 742 l 557 1022 l 638 1032 l 638 625 q 844 742 722 742 m 367 51 q 472 85 426 51 q 557 186 518 118 l 557 557 q 474 645 515 615 q 378 675 432 675 q 276 638 321 675 q 207 531 232 601 q 182 361 182 460 q 233 132 182 213 q 367 51 283 51 m 821 51 q 956 132 906 51 q 1007 367 1007 213 q 960 599 1007 522 q 829 675 914 675 q 724 643 768 675 q 638 551 679 611 l 638 192 q 718 87 675 122 q 821 51 761 51 z "},"ď":{"ha":813,"x_min":96,"x_max":851,"o":"m 665 1022 l 665 0 l 596 0 l 586 111 q 368 -15 511 -15 q 169 85 242 -15 q 96 360 96 186 q 130 558 96 472 q 228 693 164 644 q 381 742 293 742 q 585 643 504 742 l 585 1032 l 665 1022 m 381 51 q 498 85 450 51 q 585 186 546 118 l 585 565 q 394 675 507 675 q 238 593 296 675 q 182 361 181 511 q 235 131 182 211 q 381 51 288 51 m 851 1022 l 774 1031 l 747 801 l 797 794 l 851 1022 z "},"ḓ":{"ha":813,"x_min":96,"x_max":665,"o":"m 665 1022 l 665 0 l 596 0 l 586 111 q 368 -15 511 -15 q 169 85 242 -15 q 96 360 96 186 q 130 558 96 472 q 228 693 164 644 q 381 742 293 742 q 585 643 504 742 l 585 1032 l 665 1022 m 381 51 q 498 85 450 51 q 585 186 546 118 l 585 565 q 394 675 507 675 q 238 593 296 675 q 182 361 181 511 q 235 131 182 211 q 381 51 288 51 m 215 -244 l 394 -97 l 444 -97 l 625 -244 l 589 -286 l 419 -168 l 251 -286 l 215 -244 z "},"đ":{"ha":821,"x_min":96,"x_max":772,"o":"m 772 921 l 772 856 l 665 856 l 665 0 l 596 0 l 586 111 q 368 -15 511 -15 q 169 85 242 -15 q 96 360 96 186 q 130 558 96 472 q 228 693 164 644 q 381 742 293 742 q 585 643 504 742 l 585 856 l 357 856 l 357 921 l 585 921 l 585 1032 l 665 1022 l 665 921 l 772 921 m 381 51 q 498 85 450 51 q 585 186 546 118 l 585 565 q 394 675 507 675 q 238 593 296 675 q 182 361 181 511 q 235 131 182 211 q 381 51 288 51 z "},"ȡ":{"ha":964,"x_min":96,"x_max":999,"o":"m 860 281 q 960 244 922 281 q 999 151 999 208 q 941 31 999 76 q 793 -15 883 -15 q 676 13 729 -15 l 626 -90 l 569 -67 l 629 51 q 593 121 603 82 q 368 -15 517 -15 q 169 85 242 -15 q 96 360 96 186 q 130 558 96 472 q 228 693 164 644 q 381 742 293 742 q 585 643 504 742 l 585 1032 l 665 1022 l 665 176 q 669 132 665 153 q 749 243 704 206 q 860 281 793 281 m 381 51 q 498 85 450 51 q 585 186 546 118 l 585 565 q 394 675 507 675 q 238 593 296 675 q 182 361 181 511 q 235 131 182 211 q 381 51 288 51 m 793 56 q 890 81 856 56 q 925 151 925 106 q 906 200 925 182 q 856 218 888 218 q 776 186 808 218 q 706 75 744 154 q 793 56 738 56 z "},"ḋ":{"ha":813,"x_min":96,"x_max":665,"o":"m 665 1022 l 665 0 l 596 0 l 586 111 q 368 -15 511 -15 q 169 85 242 -15 q 96 360 96 186 q 130 558 96 472 q 228 693 164 644 q 381 742 293 742 q 585 643 504 742 l 585 1032 l 665 1022 m 381 51 q 498 85 450 51 q 585 186 546 118 l 585 565 q 394 675 507 675 q 238 593 296 675 q 182 361 181 511 q 235 131 182 211 q 381 51 288 51 m 400 1292 q 444 1275 428 1292 q 461 1233 461 1258 q 444 1192 461 1208 q 400 1175 428 1175 q 357 1192 374 1175 q 340 1233 340 1208 q 357 1275 340 1258 q 400 1292 374 1292 z "},"ḍ":{"ha":813,"x_min":96,"x_max":665,"o":"m 665 1022 l 665 0 l 596 0 l 586 111 q 368 -15 511 -15 q 169 85 242 -15 q 96 360 96 186 q 130 558 96 472 q 228 693 164 644 q 381 742 293 742 q 585 643 504 742 l 585 1032 l 665 1022 m 381 51 q 498 85 450 51 q 585 186 546 118 l 585 565 q 394 675 507 675 q 238 593 296 675 q 182 361 181 511 q 235 131 182 211 q 381 51 288 51 m 421 -236 q 376 -219 393 -236 q 360 -178 360 -203 q 376 -136 360 -153 q 421 -119 393 -119 q 464 -136 447 -119 q 481 -178 481 -153 q 464 -219 481 -203 q 421 -236 447 -236 z "},"ƍ":{"ha":788,"x_min":89,"x_max":699,"o":"m 478 78 q 589 -2 556 42 q 624 -110 622 -46 q 596 -201 624 -160 q 515 -267 568 -243 q 393 -292 463 -292 q 269 -274 324 -292 q 165 -224 215 -257 l 208 -172 q 292 -213 253 -201 q 385 -225 332 -225 q 500 -192 460 -225 q 540 -108 540 -160 q 525 -47 540 -72 q 471 1 510 -22 q 356 56 432 25 q 152 189 215 111 q 89 401 89 267 q 126 576 89 499 q 232 698 163 654 q 397 742 301 742 q 617 651 536 742 q 699 404 699 561 q 640 206 699 288 q 478 78 582 125 m 175 401 q 197 269 175 321 q 272 178 219 217 q 419 101 325 139 q 614 404 614 193 q 558 603 614 533 q 397 674 501 674 q 233 602 290 674 q 175 401 175 531 z "},"ʤ":{"ha":1257,"x_min":96,"x_max":1213,"o":"m 889 278 q 1132 208 1051 278 q 1213 6 1213 139 q 1175 -146 1213 -81 q 1068 -248 1138 -211 q 906 -285 999 -285 q 751 -255 817 -285 q 632 -165 686 -225 l 681 -121 q 783 -194 731 -172 q 904 -217 836 -217 q 1069 -158 1013 -217 q 1126 7 1126 -99 q 1067 165 1126 117 q 876 214 1007 214 l 788 214 l 788 278 l 1083 657 l 665 657 l 665 0 l 596 0 l 586 111 q 368 -15 511 -15 q 169 85 242 -15 q 96 360 96 186 q 130 558 96 472 q 228 693 164 644 q 381 742 293 742 q 585 643 504 742 l 585 1032 l 665 1022 l 665 726 l 1178 726 l 1178 664 l 872 278 l 889 278 m 381 51 q 498 85 450 51 q 585 186 546 118 l 585 565 q 394 675 507 675 q 238 593 296 675 q 182 361 181 511 q 235 131 182 211 q 381 51 288 51 z "},"ɗ":{"ha":813,"x_min":96,"x_max":900,"o":"m 758 1032 q 900 985 839 1032 l 867 933 q 816 958 839 950 q 761 965 793 965 q 665 850 665 965 l 665 0 l 596 0 l 586 111 q 368 -15 511 -15 q 169 85 242 -15 q 96 360 96 186 q 130 558 96 472 q 228 693 164 644 q 381 742 293 742 q 585 643 504 742 l 585 846 q 631 985 585 938 q 758 1032 678 1032 m 381 51 q 498 85 450 51 q 585 186 546 118 l 585 565 q 394 675 507 675 q 238 593 296 675 q 182 361 181 511 q 235 131 182 211 q 381 51 288 51 z "},"ḏ":{"ha":813,"x_min":96,"x_max":665,"o":"m 665 1022 l 665 0 l 596 0 l 586 111 q 368 -15 511 -15 q 169 85 242 -15 q 96 360 96 186 q 130 558 96 472 q 228 693 164 644 q 381 742 293 742 q 585 643 504 742 l 585 1032 l 665 1022 m 381 51 q 498 85 450 51 q 585 186 546 118 l 585 565 q 394 675 507 675 q 238 593 296 675 q 182 361 181 511 q 235 131 182 211 q 381 51 288 51 m 253 -221 l 253 -156 l 588 -156 l 588 -221 l 253 -221 z "},"ɖ":{"ha":813,"x_min":96,"x_max":900,"o":"m 900 -237 q 758 -285 839 -285 q 632 -237 679 -285 q 585 -99 585 -190 l 585 108 q 368 -15 510 -15 q 169 85 242 -15 q 96 360 96 186 q 130 558 96 472 q 228 693 164 644 q 381 742 293 742 q 585 643 504 742 l 585 1032 l 665 1022 l 665 -103 q 761 -218 665 -218 q 817 -210 794 -218 q 867 -186 840 -203 l 900 -237 m 381 51 q 498 85 450 51 q 585 186 546 118 l 585 565 q 394 675 507 675 q 238 593 296 675 q 182 361 181 511 q 235 131 182 211 q 381 51 288 51 z "},"ƌ":{"ha":813,"x_min":96,"x_max":665,"o":"m 665 0 l 596 0 l 586 111 q 368 -15 511 -15 q 169 85 242 -15 q 96 360 96 186 q 130 558 96 472 q 228 693 164 644 q 381 742 293 742 q 585 643 504 742 l 585 957 l 264 957 l 264 1022 l 665 1022 l 665 0 m 381 51 q 498 85 450 51 q 585 186 546 118 l 585 565 q 394 675 507 675 q 238 593 296 675 q 182 361 181 511 q 235 131 182 211 q 381 51 288 51 z "},"ǳ":{"ha":1399,"x_min":96,"x_max":1351,"o":"m 665 1022 l 665 0 l 596 0 l 586 111 q 368 -15 511 -15 q 169 85 242 -15 q 96 360 96 186 q 130 558 96 472 q 228 693 164 644 q 381 742 293 742 q 585 643 504 742 l 585 1032 l 665 1022 m 381 51 q 498 85 450 51 q 585 186 546 118 l 585 565 q 394 675 507 675 q 238 593 296 675 q 182 361 181 511 q 235 131 182 211 q 381 51 288 51 m 1351 664 l 946 69 l 1349 69 l 1340 0 l 851 0 l 851 63 l 1257 657 l 885 657 l 885 726 l 1351 726 l 1351 664 z "},"ʣ":{"ha":1221,"x_min":96,"x_max":1174,"o":"m 1174 664 l 756 69 l 1171 69 l 1161 0 l 596 0 l 586 111 q 368 -15 511 -15 q 169 85 242 -15 q 96 360 96 186 q 130 558 96 472 q 228 693 164 644 q 381 742 293 742 q 585 643 504 742 l 585 1032 l 665 1022 l 665 726 l 1174 726 l 1174 664 m 381 51 q 498 85 450 51 q 585 186 546 118 l 585 565 q 394 675 507 675 q 238 593 296 675 q 182 361 181 511 q 235 131 182 211 q 381 51 288 51 m 1082 657 l 665 657 l 665 63 l 1082 657 z "},"ǆ":{"ha":1399,"x_min":96,"x_max":1351,"o":"m 665 1022 l 665 0 l 596 0 l 586 111 q 368 -15 511 -15 q 169 85 242 -15 q 96 360 96 186 q 130 558 96 472 q 228 693 164 644 q 381 742 293 742 q 585 643 504 742 l 585 1032 l 665 1022 m 381 51 q 498 85 450 51 q 585 186 546 118 l 585 565 q 394 675 507 675 q 238 593 296 675 q 182 361 181 511 q 235 131 182 211 q 381 51 288 51 m 1351 664 l 946 69 l 1349 69 l 1340 0 l 851 0 l 851 63 l 1257 657 l 885 657 l 885 726 l 1351 726 l 1351 664 m 1317 1026 l 1138 879 l 1088 879 l 907 1026 l 943 1068 l 1113 951 l 1281 1068 l 1317 1026 z "},"ʥ":{"ha":1233,"x_min":96,"x_max":1261,"o":"m 1261 156 q 1198 38 1261 76 q 1004 0 1135 0 q 999 -104 999 -46 l 1000 -154 l 936 -154 q 940 0 935 -78 l 596 0 l 586 111 q 368 -15 511 -15 q 169 85 242 -15 q 96 360 96 186 q 130 558 96 472 q 228 693 164 644 q 381 742 293 742 q 585 643 504 742 l 585 1032 l 665 1022 l 665 726 l 1174 726 l 1174 664 l 760 69 l 949 69 q 1007 228 961 174 q 1129 283 1053 283 q 1224 249 1188 283 q 1261 156 1261 215 m 381 51 q 498 85 450 51 q 585 186 546 118 l 585 565 q 394 675 507 675 q 238 593 296 675 q 182 361 181 511 q 235 131 182 211 q 381 51 288 51 m 665 63 l 1079 657 l 665 657 l 665 63 m 1124 225 q 1013 69 1033 225 q 1149 88 1108 68 q 1190 157 1190 108 q 1173 207 1190 189 q 1124 225 1156 225 z "},"e":{"ha":744,"x_min":89,"x_max":663,"o":"m 663 390 q 660 332 663 360 l 175 332 q 242 122 182 190 q 401 53 303 53 q 502 70 458 53 q 597 125 546 88 l 635 74 q 524 7 581 29 q 397 -15 467 -15 q 171 83 253 -15 q 89 357 89 182 q 124 559 89 472 q 226 694 160 646 q 379 742 292 742 q 590 648 518 742 q 663 390 663 554 m 583 415 q 533 606 583 538 q 382 675 482 675 q 236 606 292 675 q 175 394 181 536 l 583 394 l 583 415 z "},"é":{"ha":744,"x_min":89,"x_max":663,"o":"m 663 390 q 660 332 663 360 l 175 332 q 242 122 182 190 q 401 53 303 53 q 502 70 458 53 q 597 125 546 88 l 635 74 q 524 7 581 29 q 397 -15 467 -15 q 171 83 253 -15 q 89 357 89 182 q 124 559 89 472 q 226 694 160 646 q 379 742 292 742 q 590 648 518 742 q 663 390 663 554 m 583 415 q 533 606 583 538 q 382 675 482 675 q 236 606 292 675 q 175 394 181 536 l 583 394 l 583 415 m 524 1014 l 253 896 l 226 943 l 488 1086 l 524 1014 z "},"ĕ":{"ha":744,"x_min":89,"x_max":663,"o":"m 663 390 q 660 332 663 360 l 175 332 q 242 122 182 190 q 401 53 303 53 q 502 70 458 53 q 597 125 546 88 l 635 74 q 524 7 581 29 q 397 -15 467 -15 q 171 83 253 -15 q 89 357 89 182 q 124 559 89 472 q 226 694 160 646 q 379 742 292 742 q 590 648 518 742 q 663 390 663 554 m 583 415 q 533 606 583 538 q 382 675 482 675 q 236 606 292 675 q 175 394 181 536 l 583 394 l 583 415 m 382 907 q 260 949 310 907 q 201 1060 211 990 l 257 1072 q 382 972 285 972 q 508 1072 481 972 l 564 1060 q 504 949 554 990 q 382 907 454 907 z "},"ě":{"ha":744,"x_min":89,"x_max":663,"o":"m 663 390 q 660 332 663 360 l 175 332 q 242 122 182 190 q 401 53 303 53 q 502 70 458 53 q 597 125 546 88 l 635 74 q 524 7 581 29 q 397 -15 467 -15 q 171 83 253 -15 q 89 357 89 182 q 124 559 89 472 q 226 694 160 646 q 379 742 292 742 q 590 648 518 742 q 663 390 663 554 m 583 415 q 533 606 583 538 q 382 675 482 675 q 236 606 292 675 q 175 394 181 536 l 583 394 l 583 415 m 588 1026 l 408 879 l 358 879 l 178 1026 l 214 1068 l 383 951 l 551 1068 l 588 1026 z "},"ȩ":{"ha":744,"x_min":89,"x_max":663,"o":"m 663 390 q 660 332 663 360 l 175 332 q 242 122 182 190 q 401 53 303 53 q 502 70 458 53 q 597 125 546 88 l 635 74 q 533 11 585 33 q 422 -14 482 -11 l 422 -89 q 519 -122 488 -94 q 550 -194 550 -150 q 508 -283 550 -251 q 404 -315 467 -315 q 293 -286 338 -315 l 318 -236 q 403 -257 356 -257 q 458 -242 436 -257 q 479 -194 479 -226 q 449 -149 479 -164 q 356 -133 419 -133 l 367 -14 q 163 94 236 -3 q 89 357 89 192 q 124 559 89 472 q 226 694 160 646 q 379 742 292 742 q 590 648 518 742 q 663 390 663 554 m 583 415 q 533 606 583 538 q 382 675 482 675 q 236 606 292 675 q 175 394 181 536 l 583 394 l 583 415 z "},"ê":{"ha":744,"x_min":89,"x_max":663,"o":"m 663 390 q 660 332 663 360 l 175 332 q 242 122 182 190 q 401 53 303 53 q 502 70 458 53 q 597 125 546 88 l 635 74 q 524 7 581 29 q 397 -15 467 -15 q 171 83 253 -15 q 89 357 89 182 q 124 559 89 472 q 226 694 160 646 q 379 742 292 742 q 590 648 518 742 q 663 390 663 554 m 583 415 q 533 606 583 538 q 382 675 482 675 q 236 606 292 675 q 175 394 181 536 l 583 394 l 583 415 m 178 936 l 357 1082 l 407 1082 l 588 936 l 551 893 l 382 1011 l 214 893 l 178 936 z "},"ế":{"ha":744,"x_min":89,"x_max":708,"o":"m 663 390 q 660 332 663 360 l 175 332 q 242 122 182 190 q 401 53 303 53 q 502 70 458 53 q 597 125 546 88 l 635 74 q 524 7 581 29 q 397 -15 467 -15 q 171 83 253 -15 q 89 357 89 182 q 124 559 89 472 q 226 694 160 646 q 379 742 292 742 q 590 648 518 742 q 663 390 663 554 m 583 415 q 533 606 583 538 q 382 675 482 675 q 236 606 292 675 q 175 394 181 536 l 583 394 l 583 415 m 175 857 l 356 999 l 406 999 l 585 857 l 549 815 l 381 926 l 211 815 l 175 857 m 708 1129 l 540 963 l 504 996 l 654 1179 l 708 1129 z "},"ệ":{"ha":744,"x_min":89,"x_max":663,"o":"m 663 390 q 660 332 663 360 l 175 332 q 242 122 182 190 q 401 53 303 53 q 502 70 458 53 q 597 125 546 88 l 635 74 q 524 7 581 29 q 397 -15 467 -15 q 171 83 253 -15 q 89 357 89 182 q 124 559 89 472 q 226 694 160 646 q 379 742 292 742 q 590 648 518 742 q 663 390 663 554 m 583 415 q 533 606 583 538 q 382 675 482 675 q 236 606 292 675 q 175 394 181 536 l 583 394 l 583 415 m 178 936 l 357 1082 l 407 1082 l 588 936 l 551 893 l 382 1011 l 214 893 l 178 936 m 401 -236 q 357 -219 374 -236 q 340 -178 340 -203 q 357 -136 340 -153 q 401 -119 374 -119 q 444 -136 428 -119 q 461 -178 461 -153 q 444 -219 461 -203 q 401 -236 428 -236 z "},"ề":{"ha":744,"x_min":60,"x_max":663,"o":"m 663 390 q 660 332 663 360 l 175 332 q 242 122 182 190 q 401 53 303 53 q 502 70 458 53 q 597 125 546 88 l 635 74 q 524 7 581 29 q 397 -15 467 -15 q 171 83 253 -15 q 89 357 89 182 q 124 559 89 472 q 226 694 160 646 q 379 742 292 742 q 590 648 518 742 q 663 390 663 554 m 583 415 q 533 606 583 538 q 382 675 482 675 q 236 606 292 675 q 175 394 181 536 l 583 394 l 583 415 m 175 857 l 356 999 l 406 999 l 585 857 l 549 815 l 381 926 l 211 815 l 175 857 m 263 996 l 226 963 l 60 1129 l 113 1179 l 263 996 z "},"ể":{"ha":744,"x_min":89,"x_max":693,"o":"m 663 390 q 660 332 663 360 l 175 332 q 242 122 182 190 q 401 53 303 53 q 502 70 458 53 q 597 125 546 88 l 635 74 q 524 7 581 29 q 397 -15 467 -15 q 171 83 253 -15 q 89 357 89 182 q 124 559 89 472 q 226 694 160 646 q 379 742 292 742 q 590 648 518 742 q 663 390 663 554 m 583 415 q 533 606 583 538 q 382 675 482 675 q 236 606 292 675 q 175 394 181 536 l 583 394 l 583 415 m 175 857 l 356 999 l 406 999 l 585 857 l 549 815 l 381 926 l 211 815 l 175 857 m 522 1074 q 595 1090 571 1076 q 619 1138 619 1104 q 602 1180 619 1165 q 554 1194 585 1194 q 474 1175 513 1194 l 451 1224 q 564 1254 503 1254 q 658 1224 624 1254 q 693 1143 693 1193 q 666 1069 693 1096 q 589 1036 639 1043 l 589 957 l 522 957 l 522 1074 z "},"ễ":{"ha":744,"x_min":89,"x_max":663,"o":"m 663 390 q 660 332 663 360 l 175 332 q 242 122 182 190 q 401 53 303 53 q 502 70 458 53 q 597 125 546 88 l 635 74 q 524 7 581 29 q 397 -15 467 -15 q 171 83 253 -15 q 89 357 89 182 q 124 559 89 472 q 226 694 160 646 q 379 742 292 742 q 590 648 518 742 q 663 390 663 554 m 583 415 q 533 606 583 538 q 382 675 482 675 q 236 606 292 675 q 175 394 181 536 l 583 394 l 583 415 m 175 843 l 356 985 l 406 985 l 585 843 l 549 801 l 381 913 l 211 801 l 175 843 m 463 1036 q 417 1045 438 1036 q 365 1072 396 1054 q 328 1093 343 1086 q 300 1100 314 1100 q 259 1087 276 1100 q 222 1044 242 1074 l 172 1069 q 300 1164 224 1164 q 344 1156 324 1164 q 389 1131 364 1147 q 429 1108 414 1115 q 463 1101 444 1101 q 502 1115 485 1101 q 540 1161 519 1129 l 590 1136 q 463 1036 542 1036 z "},"ȅ":{"ha":744,"x_min":89,"x_max":663,"o":"m 663 390 q 660 332 663 360 l 175 332 q 242 122 182 190 q 401 53 303 53 q 502 70 458 53 q 597 125 546 88 l 635 74 q 524 7 581 29 q 397 -15 467 -15 q 171 83 253 -15 q 89 357 89 182 q 124 559 89 472 q 226 694 160 646 q 379 742 292 742 q 590 648 518 742 q 663 390 663 554 m 583 415 q 533 606 583 538 q 382 675 482 675 q 236 606 292 675 q 175 394 181 536 l 583 394 l 583 415 m 342 917 l 289 892 l 160 1089 l 232 1126 l 342 917 m 510 922 l 457 899 l 340 1088 l 413 1126 l 510 922 z "},"ë":{"ha":744,"x_min":89,"x_max":663,"o":"m 663 390 q 660 332 663 360 l 175 332 q 242 122 182 190 q 401 53 303 53 q 502 70 458 53 q 597 125 546 88 l 635 74 q 524 7 581 29 q 397 -15 467 -15 q 171 83 253 -15 q 89 357 89 182 q 124 559 89 472 q 226 694 160 646 q 379 742 292 742 q 590 648 518 742 q 663 390 663 554 m 583 415 q 533 606 583 538 q 382 675 482 675 q 236 606 292 675 q 175 394 181 536 l 583 394 l 583 415 m 251 1031 q 291 1015 275 1031 q 307 975 307 999 q 291 936 307 951 q 251 921 275 921 q 212 936 228 921 q 196 975 196 951 q 212 1015 196 999 q 251 1031 228 1031 m 514 1031 q 553 1015 538 1031 q 569 975 569 999 q 553 936 569 951 q 514 921 538 921 q 474 936 490 921 q 458 975 458 951 q 474 1015 458 999 q 514 1031 490 1031 z "},"ė":{"ha":744,"x_min":89,"x_max":663,"o":"m 663 390 q 660 332 663 360 l 175 332 q 242 122 182 190 q 401 53 303 53 q 502 70 458 53 q 597 125 546 88 l 635 74 q 524 7 581 29 q 397 -15 467 -15 q 171 83 253 -15 q 89 357 89 182 q 124 559 89 472 q 226 694 160 646 q 379 742 292 742 q 590 648 518 742 q 663 390 663 554 m 583 415 q 533 606 583 538 q 382 675 482 675 q 236 606 292 675 q 175 394 181 536 l 583 394 l 583 415 m 382 1046 q 426 1029 410 1046 q 443 988 443 1013 q 426 946 443 963 q 382 929 410 929 q 339 946 356 929 q 322 988 322 963 q 339 1029 322 1013 q 382 1046 356 1046 z "},"ẹ":{"ha":744,"x_min":89,"x_max":663,"o":"m 663 390 q 660 332 663 360 l 175 332 q 242 122 182 190 q 401 53 303 53 q 502 70 458 53 q 597 125 546 88 l 635 74 q 524 7 581 29 q 397 -15 467 -15 q 171 83 253 -15 q 89 357 89 182 q 124 559 89 472 q 226 694 160 646 q 379 742 292 742 q 590 648 518 742 q 663 390 663 554 m 583 415 q 533 606 583 538 q 382 675 482 675 q 236 606 292 675 q 175 394 181 536 l 583 394 l 583 415 m 401 -236 q 357 -219 374 -236 q 340 -178 340 -203 q 357 -136 340 -153 q 401 -119 374 -119 q 444 -136 428 -119 q 461 -178 461 -153 q 444 -219 461 -203 q 401 -236 428 -236 z "},"è":{"ha":744,"x_min":89,"x_max":663,"o":"m 663 390 q 660 332 663 360 l 175 332 q 242 122 182 190 q 401 53 303 53 q 502 70 458 53 q 597 125 546 88 l 635 74 q 524 7 581 29 q 397 -15 467 -15 q 171 83 253 -15 q 89 357 89 182 q 124 559 89 472 q 226 694 160 646 q 379 742 292 742 q 590 648 518 742 q 663 390 663 554 m 583 415 q 533 606 583 538 q 382 675 482 675 q 236 606 292 675 q 175 394 181 536 l 583 394 l 583 415 m 538 943 l 513 896 l 240 1014 l 276 1086 l 538 943 z "},"ẻ":{"ha":744,"x_min":89,"x_max":663,"o":"m 663 390 q 660 332 663 360 l 175 332 q 242 122 182 190 q 401 53 303 53 q 502 70 458 53 q 597 125 546 88 l 635 74 q 524 7 581 29 q 397 -15 467 -15 q 171 83 253 -15 q 89 357 89 182 q 124 559 89 472 q 226 694 160 646 q 379 742 292 742 q 590 648 518 742 q 663 390 663 554 m 583 415 q 533 606 583 538 q 382 675 482 675 q 236 606 292 675 q 175 394 181 536 l 583 394 l 583 415 m 350 972 q 423 989 399 975 q 447 1036 447 1003 q 430 1078 447 1064 q 382 1093 413 1093 q 301 1074 340 1093 l 279 1122 q 392 1153 331 1153 q 486 1122 451 1153 q 521 1042 521 1092 q 494 968 521 994 q 417 935 467 942 l 417 856 l 350 856 l 350 972 z "},"ȇ":{"ha":744,"x_min":89,"x_max":663,"o":"m 663 390 q 660 332 663 360 l 175 332 q 242 122 182 190 q 401 53 303 53 q 502 70 458 53 q 597 125 546 88 l 635 74 q 524 7 581 29 q 397 -15 467 -15 q 171 83 253 -15 q 89 357 89 182 q 124 559 89 472 q 226 694 160 646 q 379 742 292 742 q 590 648 518 742 q 663 390 663 554 m 583 415 q 533 606 583 538 q 382 675 482 675 q 236 606 292 675 q 175 394 181 536 l 583 394 l 583 415 m 382 1031 q 504 989 454 1031 q 564 878 554 947 l 508 865 q 382 965 481 965 q 257 865 285 965 l 201 878 q 260 989 211 947 q 382 1031 310 1031 z "},"ē":{"ha":744,"x_min":89,"x_max":663,"o":"m 663 390 q 660 332 663 360 l 175 332 q 242 122 182 190 q 401 53 303 53 q 502 70 458 53 q 597 125 546 88 l 635 74 q 524 7 581 29 q 397 -15 467 -15 q 171 83 253 -15 q 89 357 89 182 q 124 559 89 472 q 226 694 160 646 q 379 742 292 742 q 590 648 518 742 q 663 390 663 554 m 583 415 q 533 606 583 538 q 382 675 482 675 q 236 606 292 675 q 175 394 181 536 l 583 394 l 583 415 m 215 939 l 215 1004 l 550 1004 l 550 939 l 215 939 z "},"ę":{"ha":744,"x_min":89,"x_max":663,"o":"m 663 390 q 660 332 663 360 l 175 332 q 242 122 182 190 q 401 53 303 53 q 502 70 458 53 q 597 125 546 88 l 635 74 q 519 6 576 26 q 390 -72 428 -35 q 353 -157 353 -108 q 375 -210 353 -190 q 442 -229 397 -229 q 521 -219 476 -229 l 513 -286 q 432 -296 464 -296 q 318 -260 358 -296 q 278 -168 278 -225 q 393 -15 278 -74 q 170 85 251 -14 q 89 357 89 183 q 124 559 89 472 q 226 694 160 646 q 379 742 292 742 q 590 648 518 742 q 663 390 663 554 m 583 415 q 533 606 583 538 q 382 675 482 675 q 236 606 292 675 q 175 394 181 536 l 583 394 l 583 415 z "},"ɛ":{"ha":639,"x_min":89,"x_max":607,"o":"m 361 742 q 585 676 488 742 l 544 625 q 464 663 506 650 q 368 675 422 675 q 245 640 289 675 q 201 544 201 606 q 248 449 201 486 q 372 413 294 413 l 456 413 l 444 347 l 367 347 q 222 311 268 347 q 175 199 175 275 q 225 92 175 131 q 361 53 275 53 q 472 70 426 53 q 567 124 518 88 l 607 72 q 357 -15 501 -15 q 163 41 238 -15 q 89 197 89 97 q 138 329 89 283 q 272 385 188 375 q 118 549 118 418 q 185 690 118 638 q 361 742 253 742 z "},"ʚ":{"ha":774,"x_min":89,"x_max":685,"o":"m 367 -15 q 165 44 240 -15 q 89 210 89 103 q 137 335 89 293 q 278 388 185 378 q 126 546 126 419 q 194 688 126 635 q 368 742 261 742 q 601 640 517 742 q 685 363 685 539 q 603 85 685 185 q 367 -15 521 -15 m 368 53 q 600 363 600 53 q 540 596 600 517 q 368 675 481 675 q 251 640 293 675 q 208 546 208 606 q 258 448 208 482 q 393 414 307 414 l 426 414 l 433 349 l 381 349 q 227 317 282 349 q 172 211 172 285 q 224 91 172 129 q 368 53 276 53 z "},"ɜ":{"ha":669,"x_min":32,"x_max":581,"o":"m 307 742 q 476 690 408 742 q 543 550 543 639 q 392 388 543 419 q 533 335 485 378 q 581 210 581 293 q 503 43 581 101 q 303 -15 426 -15 q 151 10 217 -15 q 32 79 86 35 l 76 129 q 177 72 125 92 q 300 53 229 53 q 442 90 389 53 q 496 211 496 128 q 440 317 496 285 q 282 349 385 349 l 196 349 l 201 414 l 271 414 q 411 449 361 414 q 461 549 461 483 q 417 642 461 610 q 300 675 374 675 q 192 660 238 675 q 96 614 147 646 l 57 664 q 172 722 113 703 q 307 742 232 742 z "},"ɞ":{"ha":774,"x_min":89,"x_max":685,"o":"m 407 -15 q 171 85 253 -15 q 89 363 89 185 q 173 640 89 539 q 406 742 257 742 q 580 688 513 742 q 647 546 647 635 q 496 388 647 419 q 637 335 589 378 q 685 210 685 293 q 609 44 685 103 q 407 -15 533 -15 m 406 53 q 549 91 497 53 q 601 211 601 129 q 547 317 601 285 q 393 349 492 349 l 340 349 l 347 414 l 381 414 q 516 448 467 414 q 565 546 565 482 q 523 640 565 606 q 406 675 481 675 q 233 596 293 675 q 174 363 174 517 q 406 53 174 53 z "},"ɝ":{"ha":919,"x_min":32,"x_max":954,"o":"m 954 496 q 811 449 893 449 q 688 493 732 449 q 643 621 643 538 l 643 658 l 536 604 q 543 550 543 576 q 392 388 543 419 q 533 335 485 378 q 581 210 581 293 q 503 43 581 101 q 303 -15 426 -15 q 151 10 217 -15 q 32 79 86 35 l 76 129 q 177 72 125 92 q 300 53 229 53 q 442 90 389 53 q 496 211 496 128 q 440 317 496 285 q 282 349 385 349 l 196 349 l 201 414 l 271 414 q 411 449 361 414 q 461 549 461 483 q 417 642 461 610 q 300 675 374 675 q 192 660 238 675 q 96 614 147 646 l 57 664 q 172 722 113 703 q 307 742 232 742 q 424 720 371 742 q 507 660 476 699 l 643 726 l 719 726 l 719 629 q 815 515 719 515 q 871 524 847 515 q 921 549 894 532 l 954 496 z "},"ɘ":{"ha":744,"x_min":82,"x_max":656,"o":"m 368 742 q 583 642 510 742 q 656 357 656 542 q 573 84 656 183 q 349 -15 490 -15 q 222 7 279 -15 q 110 74 164 29 l 149 125 q 244 70 199 88 q 350 53 289 53 q 506 121 449 53 q 569 332 564 189 l 85 332 q 82 390 82 360 q 157 647 82 553 q 368 742 232 742 m 163 394 l 571 394 q 515 610 565 544 q 367 675 464 675 q 215 605 267 675 q 163 415 163 535 l 163 394 z "},"ʃ":{"ha":390,"x_min":-79,"x_max":471,"o":"m 329 1032 q 471 985 410 1032 l 438 933 q 387 958 410 950 q 332 965 364 965 q 236 850 236 965 l 236 -99 q 189 -237 236 -190 q 63 -285 142 -285 q -79 -237 -18 -285 l -46 -186 q 3 -210 -19 -203 q 60 -218 26 -218 q 156 -103 156 -218 l 156 846 q 202 985 156 938 q 329 1032 249 1032 z "},"ʆ":{"ha":406,"x_min":-118,"x_max":486,"o":"m 250 725 l 251 -24 q 397 -76 324 -43 l 375 -125 q 250 -79 317 -99 q 188 -233 240 -181 q 44 -285 136 -285 q -74 -248 -31 -285 q -118 -150 -118 -211 q -67 -40 -118 -79 q 69 0 -15 0 q 169 -7 125 0 l 169 726 l 171 726 l 171 846 q 217 985 171 938 q 344 1032 264 1032 q 486 985 425 1032 l 453 933 q 402 958 425 950 q 347 965 379 965 q 251 850 251 965 l 251 725 l 250 725 m 44 -226 q 138 -188 107 -226 q 169 -65 168 -150 q 71 -56 118 -56 q -19 -79 13 -56 q -50 -147 -50 -103 q -26 -206 -50 -185 q 44 -226 -1 -226 z "},"ƪ":{"ha":403,"x_min":-75,"x_max":482,"o":"m 482 -237 q 340 -285 421 -285 q 214 -237 261 -285 q 167 -99 167 -190 l 167 713 q 83 694 128 694 q -31 740 14 694 q -75 861 -75 785 q -29 985 -75 938 q 88 1032 17 1032 q 204 985 161 1032 q 247 861 247 939 l 247 -103 q 343 -218 247 -218 q 399 -210 376 -218 q 449 -186 422 -203 l 482 -237 m 94 760 q 167 775 132 760 l 167 865 q 147 940 167 914 q 89 967 126 967 q 28 939 50 967 q 6 863 6 911 q 29 785 6 811 q 94 760 53 760 z "},"ʅ":{"ha":558,"x_min":4,"x_max":554,"o":"m 554 32 q 413 -15 493 -15 q 286 32 333 -15 q 239 171 239 79 l 239 560 q 143 675 239 675 q 88 667 111 675 q 38 643 65 660 l 4 694 q 146 742 65 742 q 273 694 226 742 q 319 556 319 647 l 319 167 q 415 51 319 51 q 472 59 449 51 q 521 83 494 67 l 554 32 z "},"ɇ":{"ha":744,"x_min":89,"x_max":663,"o":"m 385 332 l 313 69 q 401 53 353 53 q 502 70 458 53 q 597 125 546 88 l 635 74 q 524 7 581 29 q 397 -15 467 -15 q 293 0 343 -15 l 267 -97 l 224 -86 l 251 18 q 131 147 174 60 q 89 357 89 233 q 124 559 89 472 q 226 694 160 646 q 379 742 292 742 q 449 735 411 742 l 472 822 l 515 810 l 492 722 q 619 603 576 689 q 663 390 663 517 q 660 332 663 360 l 385 332 m 382 675 q 236 606 292 675 q 175 394 181 536 l 356 394 l 431 671 q 382 675 408 675 m 583 415 q 556 567 583 506 q 474 656 529 629 l 401 394 l 583 394 l 583 415 m 338 332 l 175 332 q 272 93 183 160 l 338 332 z "},"ẽ":{"ha":744,"x_min":89,"x_max":663,"o":"m 663 390 q 660 332 663 360 l 175 332 q 242 122 182 190 q 401 53 303 53 q 502 70 458 53 q 597 125 546 88 l 635 74 q 524 7 581 29 q 397 -15 467 -15 q 171 83 253 -15 q 89 357 89 182 q 124 559 89 472 q 226 694 160 646 q 379 742 292 742 q 590 648 518 742 q 663 390 663 554 m 583 415 q 533 606 583 538 q 382 675 482 675 q 236 606 292 675 q 175 394 181 536 l 583 394 l 583 415 m 464 925 q 418 934 439 925 q 367 961 397 943 q 330 982 344 975 q 301 989 315 989 q 260 976 278 989 q 224 933 243 963 l 174 958 q 301 1053 225 1053 q 345 1044 325 1053 q 390 1019 365 1036 q 431 997 415 1004 q 464 990 446 990 q 503 1004 486 990 q 542 1050 521 1018 l 592 1025 q 464 925 543 925 z "},"ǝ":{"ha":753,"x_min":82,"x_max":664,"o":"m 371 742 q 589 646 514 742 q 664 367 664 550 q 585 84 664 183 q 369 -15 506 -15 q 160 81 238 -15 q 82 342 82 176 q 85 396 82 363 l 581 396 q 520 606 575 538 q 369 674 465 674 q 267 657 314 674 q 171 604 219 640 l 132 658 q 371 742 238 742 m 369 51 q 581 332 572 51 l 163 332 l 163 324 q 217 122 163 193 q 369 51 271 51 z "},"ʒ":{"ha":640,"x_min":15,"x_max":596,"o":"m 272 278 q 515 208 435 278 q 596 6 596 139 q 558 -146 596 -81 q 451 -248 521 -211 q 289 -285 382 -285 q 135 -255 200 -285 q 15 -165 69 -225 l 64 -121 q 167 -194 114 -172 q 288 -217 219 -217 q 453 -158 396 -217 q 510 7 510 -99 q 450 165 510 117 q 260 214 390 214 l 171 214 l 171 278 l 467 657 l 47 657 l 47 726 l 561 726 l 561 664 l 256 278 l 272 278 z "},"ǯ":{"ha":640,"x_min":15,"x_max":596,"o":"m 272 278 q 515 208 435 278 q 596 6 596 139 q 558 -146 596 -81 q 451 -248 521 -211 q 289 -285 382 -285 q 135 -255 200 -285 q 15 -165 69 -225 l 64 -121 q 167 -194 114 -172 q 288 -217 219 -217 q 453 -158 396 -217 q 510 7 510 -99 q 450 165 510 117 q 260 214 390 214 l 171 214 l 171 278 l 467 657 l 47 657 l 47 726 l 561 726 l 561 664 l 256 278 l 272 278 m 508 1026 l 329 879 l 279 879 l 99 1026 l 135 1068 l 304 951 l 472 1068 l 508 1026 z "},"ʓ":{"ha":640,"x_min":-25,"x_max":596,"o":"m 596 10 q 544 -159 596 -89 q 396 -261 493 -229 l 432 -339 l 372 -362 l 333 -276 q 233 -285 288 -285 q 40 -241 106 -285 q -25 -117 -25 -197 q 17 -11 -25 -53 q 129 31 60 31 q 260 -19 207 31 q 368 -199 314 -69 q 510 10 510 -153 q 450 165 510 117 q 260 214 390 214 l 171 214 l 171 278 l 467 657 l 47 657 l 47 726 l 561 726 l 561 664 l 256 278 l 274 278 q 515 209 435 278 q 596 10 596 140 m 49 -115 q 96 -194 49 -171 q 236 -217 143 -217 q 303 -212 271 -217 q 220 -69 257 -107 q 133 -32 183 -32 q 71 -54 93 -32 q 49 -115 49 -76 z "},"ƹ":{"ha":640,"x_min":46,"x_max":625,"o":"m 625 -165 q 504 -255 572 -225 q 346 -285 436 -285 q 188 -249 256 -285 q 83 -151 119 -214 q 46 -7 46 -87 q 128 201 46 125 q 371 278 211 278 l 385 278 l 79 664 l 79 726 l 593 726 l 593 657 l 175 657 l 469 278 l 469 214 l 382 214 q 192 158 253 214 q 131 -7 131 103 q 187 -160 131 -103 q 346 -217 243 -217 q 473 -194 418 -217 q 578 -122 528 -172 l 625 -165 z "},"ƺ":{"ha":632,"x_min":42,"x_max":590,"o":"m 206 -286 q 85 -210 125 -251 q 44 -112 44 -168 q 102 -9 44 -46 q 282 43 160 28 q 411 69 364 53 q 481 115 458 85 q 504 196 504 144 q 467 283 504 254 q 363 311 431 311 l 158 311 l 158 375 l 446 657 l 42 657 l 42 726 l 549 726 l 549 664 l 249 375 l 368 375 q 531 328 472 375 q 590 196 590 282 q 522 44 590 94 q 318 -22 453 -6 q 170 -56 213 -36 q 128 -118 128 -76 q 153 -177 128 -151 q 235 -232 178 -203 l 206 -286 z "},"f":{"ha":446,"x_min":29,"x_max":526,"o":"m 361 965 q 267 936 299 965 q 236 843 236 907 l 236 726 l 428 726 l 417 661 l 236 661 l 236 0 l 156 0 l 156 661 l 29 661 l 29 726 l 156 726 l 156 846 q 209 982 156 932 q 357 1032 263 1032 q 526 993 442 1032 l 499 933 q 361 965 426 965 z "},"ḟ":{"ha":446,"x_min":29,"x_max":526,"o":"m 361 965 q 267 936 299 965 q 236 843 236 907 l 236 726 l 428 726 l 417 661 l 236 661 l 236 0 l 156 0 l 156 661 l 29 661 l 29 726 l 156 726 l 156 846 q 209 982 156 932 q 357 1032 263 1032 q 526 993 442 1032 l 499 933 q 361 965 426 965 m 353 1292 q 397 1275 381 1292 q 414 1233 414 1258 q 397 1192 414 1208 q 353 1175 381 1175 q 310 1192 326 1175 q 293 1233 293 1208 q 310 1275 293 1258 q 353 1292 326 1292 z "},"ʩ":{"ha":1204,"x_min":29,"x_max":1065,"o":"m 863 742 q 1013 683 961 742 q 1065 519 1065 625 l 1065 -99 q 1018 -237 1065 -190 q 892 -285 971 -285 q 750 -237 811 -285 l 783 -186 q 833 -210 810 -203 q 889 -218 856 -218 q 985 -103 985 -218 l 985 508 q 950 636 985 596 q 847 676 915 676 q 724 638 778 676 q 622 526 671 600 l 622 0 l 542 0 l 542 661 l 236 661 l 236 0 l 156 0 l 156 661 l 29 661 l 29 726 l 156 726 l 156 846 q 209 982 156 932 q 357 1032 263 1032 q 526 993 442 1032 l 499 933 q 361 965 426 965 q 267 936 299 965 q 236 843 236 907 l 236 726 l 611 726 l 619 603 q 725 705 664 668 q 863 742 786 742 z "},"g":{"ha":699,"x_min":46,"x_max":688,"o":"m 688 711 q 486 690 621 693 q 610 493 610 632 q 539 320 610 386 q 347 254 468 254 q 253 268 293 254 q 212 231 226 253 q 197 185 197 210 q 313 110 197 110 l 431 110 q 601 58 538 110 q 664 -76 664 6 q 585 -231 664 -176 q 349 -285 506 -285 q 116 -235 186 -285 q 46 -76 46 -186 l 121 -76 q 143 -160 122 -129 q 213 -204 164 -190 q 349 -218 261 -218 q 526 -183 471 -218 q 582 -81 582 -147 q 539 9 582 -22 q 418 40 496 40 l 300 40 q 167 76 214 40 q 121 168 121 113 q 142 236 121 204 q 200 292 163 268 q 108 374 138 324 q 78 496 78 424 q 151 674 78 606 q 344 742 225 742 q 537 751 476 740 q 663 789 597 763 l 688 711 m 344 679 q 208 629 254 679 q 161 496 161 579 q 210 361 161 410 q 344 313 260 313 q 481 360 433 313 q 528 494 528 408 q 481 631 528 582 q 344 679 435 679 z "},"ǵ":{"ha":699,"x_min":46,"x_max":688,"o":"m 688 711 q 486 690 621 693 q 610 493 610 632 q 539 320 610 386 q 347 254 468 254 q 253 268 293 254 q 212 231 226 253 q 197 185 197 210 q 313 110 197 110 l 431 110 q 601 58 538 110 q 664 -76 664 6 q 585 -231 664 -176 q 349 -285 506 -285 q 116 -235 186 -285 q 46 -76 46 -186 l 121 -76 q 143 -160 122 -129 q 213 -204 164 -190 q 349 -218 261 -218 q 526 -183 471 -218 q 582 -81 582 -147 q 539 9 582 -22 q 418 40 496 40 l 300 40 q 167 76 214 40 q 121 168 121 113 q 142 236 121 204 q 200 292 163 268 q 108 374 138 324 q 78 496 78 424 q 151 674 78 606 q 344 742 225 742 q 537 751 476 740 q 663 789 597 763 l 688 711 m 344 679 q 208 629 254 679 q 161 496 161 579 q 210 361 161 410 q 344 313 260 313 q 481 360 433 313 q 528 494 528 408 q 481 631 528 582 q 344 679 435 679 m 490 1014 l 219 896 l 193 943 l 454 1086 l 490 1014 z "},"ɣ":{"ha":650,"x_min":21,"x_max":628,"o":"m 371 75 q 434 -60 414 -7 q 454 -164 454 -114 q 421 -252 454 -219 q 326 -285 388 -285 q 233 -252 267 -285 q 199 -164 199 -219 q 219 -62 199 -118 q 282 74 239 -7 l 21 726 l 108 726 l 326 131 l 543 726 l 628 726 l 371 75 m 379 -160 q 367 -84 379 -122 q 326 17 354 -46 q 285 -85 297 -49 q 272 -160 272 -122 q 326 -221 272 -221 q 366 -205 353 -221 q 379 -160 379 -189 z "},"ğ":{"ha":699,"x_min":46,"x_max":688,"o":"m 688 711 q 486 690 621 693 q 610 493 610 632 q 539 320 610 386 q 347 254 468 254 q 253 268 293 254 q 212 231 226 253 q 197 185 197 210 q 313 110 197 110 l 431 110 q 601 58 538 110 q 664 -76 664 6 q 585 -231 664 -176 q 349 -285 506 -285 q 116 -235 186 -285 q 46 -76 46 -186 l 121 -76 q 143 -160 122 -129 q 213 -204 164 -190 q 349 -218 261 -218 q 526 -183 471 -218 q 582 -81 582 -147 q 539 9 582 -22 q 418 40 496 40 l 300 40 q 167 76 214 40 q 121 168 121 113 q 142 236 121 204 q 200 292 163 268 q 108 374 138 324 q 78 496 78 424 q 151 674 78 606 q 344 742 225 742 q 537 751 476 740 q 663 789 597 763 l 688 711 m 344 679 q 208 629 254 679 q 161 496 161 579 q 210 361 161 410 q 344 313 260 313 q 481 360 433 313 q 528 494 528 408 q 481 631 528 582 q 344 679 435 679 m 349 907 q 227 949 276 907 q 168 1060 178 990 l 224 1072 q 349 972 251 972 q 475 1072 447 972 l 531 1060 q 471 949 521 990 q 349 907 421 907 z "}}}
